<?xml version="1.0" encoding="utf-8"?>
<!-- Generator: Adobe Illustrator 21.0.0, SVG Export Plug-In . SVG Version: 6.00 Build 0)  -->
<svg version="1.1" id="Layer_1" xmlns="http://www.w3.org/2000/svg" xmlns:xlink="http://www.w3.org/1999/xlink" x="0px" y="0px"
	 viewBox="0 0 476.1 474.1"  xml:space="preserve">
<style type="text/css">
	.st0{fill:#49CBD6;}
</style>
<path class="st0" d="M269.8,237h-31.6c-4.4,0-7.9,3.5-7.9,7.9v134.2c0,26.1-21.3,47.4-47.4,47.4l-32.8,0.1
	c-26.1,0-47.4-21.3-47.4-47.4V316h15.8c3.5,0,6.5-2.3,7.6-5.6l19.4-63.1c0-0.1,0-0.1,0.1-0.2l12.1-39.4c0.2-0.8,0.3-1.5,0.3-2.3
	V102.7c0-4.4-3.5-7.9-7.9-7.9v-79c0-4.4-3.5-7.9-7.9-7.9h-23.7c0-4.4-3.5-7.9-7.9-7.9H47.4c-4.4,0-7.9,3.5-7.9,7.9H15.8
	c-4.4,0-7.9,3.5-7.9,7.9v79c-4.4,0-7.9,3.5-7.9,7.9v102.7c0,0.8,0.1,1.6,0.3,2.3l2.4,7.9v0.1l9.7,31.5c0,0.1,0,0.1,0.1,0.2l9.7,31.5
	l0,0l9.7,31.6c1,3.3,4.1,5.6,7.6,5.6h15.8v63.2c0,52.3,42.5,94.8,94.8,94.8l32.8-0.1c52.3,0,94.8-42.5,94.8-94.8V244.9
	C277.7,240.6,274.2,237,269.8,237z M134.3,23.7v71.1h-15.8h-15.8V79h7.9c4.4,0,7.9-3.5,7.9-7.9V23.7H134.3z M63.2,110.6h31.6h14.8
	c-3.5,13.6-15.9,23.7-30.6,23.7s-27.1-10.1-30.6-23.7C48.4,110.6,63.2,110.6,63.2,110.6z M102.7,15.8v47.4h-7.9
	c-4.4,0-7.9,3.5-7.9,7.9v23.7H71.1V71.1c0-4.4-3.5-7.9-7.9-7.9h-7.9V15.8H102.7z M23.7,23.7h15.8v47.4c0,4.4,3.5,7.9,7.9,7.9h7.9
	v15.8H39.5H23.7V23.7z M40.5,284.4h14.8c4.4,0,7.9-3.5,7.9-7.9s-3.5-7.9-7.9-7.9H35.6l-4.9-15.8h24.6c4.4,0,7.9-3.5,7.9-7.9
	s-3.5-7.9-7.9-7.9H25.9L21,221.2h34.3c4.4,0,7.9-3.5,7.9-7.9s-3.5-7.9-7.9-7.9H16.2l-0.4-1.2v-14.6h39.5c4.4,0,7.9-3.5,7.9-7.9
	s-3.5-7.9-7.9-7.9H15.8v-63.2h16.5C36,133,55.5,150.1,79,150.1s43-17.1,46.7-39.5h16.5v63.2h-39.5c-4.4,0-7.9,3.5-7.9,7.9
	s3.5,7.9,7.9,7.9h39.5v14.6l-0.4,1.2h-39.1c-4.4,0-7.9,3.5-7.9,7.9s3.5,7.9,7.9,7.9H137l-4.9,15.8h-29.4c-4.4,0-7.9,3.5-7.9,7.9
	s3.5,7.9,7.9,7.9h24.6l-4.9,15.8h-19.7c-4.4,0-7.9,3.5-7.9,7.9s3.5,7.9,7.9,7.9h14.8l-4.9,15.8H94.8H63.2H45.3L40.5,284.4z
	 M261.9,379.1c0,43.6-35.5,79-79,79l-32.8,0.1c-43.5,0-79-35.5-79-79V316h15.8v63.2c0,34.9,28.4,63.2,63.2,63.2l32.8-0.1
	c34.8,0,63.2-28.3,63.2-63.2V252.8h15.8V379.1L261.9,379.1z M217,64.4L233.5,51c0.8-0.7,1.9-1,2.9-1h35.4c2.5,0,4.6,2.1,4.6,4.6v3.9
	h8.4v-3.2c0-11.1,9.1-20.2,20.2-20.2h101.4c0.2,0,0.4,0,0.6,0c13.5,1.8,25.7,7.8,35.4,17.3c9.7,9.5,15.9,21.7,17.8,35.2l9.7,65.7
	c0.4,2.5-1.4,4.9-3.9,5.2c-2.5,0.4-4.9-1.4-5.2-3.9l-9.7-65.7c-3.4-23.1-21.9-41.4-45-44.6H330v38.2c0,2.5-2.1,4.6-4.6,4.6
	s-4.6-2.1-4.6-4.6V44.2H305c-6.1,0-11,4.9-11,11v45.2c0,6.1,4.9,11,11,11h15.8V98.7c0-2.5,2.1-4.6,4.6-4.6s4.6,2.1,4.6,4.6v12.6
	h57.8c11.5,0,21.6,7.8,24.5,19l15.6,60.4l38.2,0.1l-3-20.3c-0.4-2.5,1.4-4.9,3.9-5.2c2.5-0.4,4.9,1.4,5.2,3.9l6.8,25.7
	c0,0.1,0,65.4,0,65.4c0,2.5-2.1,4.6-4.6,4.6H349.3c-2.5,0-4.6-2.1-4.6-4.6v-39.4c0-16.6,13.5-30.1,30.1-30.1h43.7l-9.1-35.4h-16.1
	c-2.2,0-4-1.5-4.5-3.6l-6.9-31.2h-67.8v9.3h13.3c2.5,0,4.6,2.1,4.6,4.6s-2.1,4.6-4.6,4.6h-2.3c1.4,2.6,2.2,5.6,2.2,8.6v47.6
	c0,2.5-2.1,4.6-4.6,4.6h-26.5c-2.5,0-4.6-2.1-4.6-4.6v-47.6c0-3.1,0.8-6.1,2.2-8.6h-2.3c-2.5,0-4.6-2.1-4.6-4.6s2.1-4.6,4.6-4.6
	h13.3v-9.3c-11-0.1-20-9.1-20-20.2v-2.1h-8.4v3.9c0,2.5-2.1,4.6-4.6,4.6h-35.4c-1.1,0-2.1-0.4-2.9-1L217,92.3
	c-1.1-0.9-1.7-2.2-1.7-3.6V68C215.3,66.6,215.9,65.3,217,64.4z M374.8,200c-11.5,0-20.9,9.4-20.9,20.9v34.8h113V200H374.8L374.8,200
	z M397,146.2h10l-3.5-13.5c-1.5-6-6.3-10.4-12.1-11.7L397,146.2z M300.8,147.7v43H318v-43c0-2.3-0.9-4.5-2.5-6.1s-3.8-2.5-6.1-2.5
	C304.7,139.1,300.8,142.9,300.8,147.7z M276.4,89h8.4V67.7h-8.4V89z M241,97.6h26.2V59.1H241V97.6z M224.5,86.5l7.3,5.9V64.2
	l-7.3,5.9V86.5z M406.8,65.6c1.8-1.8,4.7-1.8,6.5,0l16.5,16.5c1.8,1.8,1.8,4.7,0,6.5c-0.9,0.9-2.1,1.4-3.3,1.4
	c-1.2,0-2.4-0.5-3.3-1.4l-16.5-16.5C405,70.4,405,67.4,406.8,65.6z M386.4,65.6c1.8-1.8,4.7-1.8,6.5,0l16.5,16.5
	c1.8,1.8,1.8,4.7,0,6.5c-0.9,0.9-2.1,1.4-3.3,1.4c-1.2,0-2.4-0.5-3.3-1.4l-16.5-16.5C384.6,70.4,384.6,67.4,386.4,65.6z M366,65.6
	c1.8-1.8,4.7-1.8,6.5,0L389,82.1c1.8,1.8,1.8,4.7,0,6.5c-0.9,0.9-2.1,1.4-3.3,1.4c-1.2,0-2.4-0.5-3.3-1.4L366,72.2
	C364.2,70.4,364.2,67.4,366,65.6z M198.1,79.8l6.5-6.5c1.8-1.8,4.7-1.8,6.5,0s1.8,4.7,0,6.5l-6.5,6.5c-0.9,0.9-2.1,1.4-3.3,1.4
	s-2.4-0.5-3.3-1.4C196.3,84.5,196.3,81.6,198.1,79.8z M182.1,79.8l6.5-6.5c1.8-1.8,4.7-1.8,6.5,0s1.8,4.7,0,6.5l-6.5,6.5
	c-0.9,0.9-2.1,1.4-3.3,1.4s-2.4-0.5-3.3-1.4C180.3,84.5,180.3,81.6,182.1,79.8z M166.1,79.8l6.5-6.5c1.8-1.8,4.7-1.8,6.5,0
	s1.8,4.7,0,6.5l-6.5,6.5c-0.9,0.9-2.1,1.4-3.3,1.4s-2.4-0.5-3.3-1.4C164.3,84.5,164.3,81.6,166.1,79.8z"/>
</svg>
