<?xml version="1.0" encoding="iso-8859-1"?>
<!-- Uploaded to: SVG Repo, www.svgrepo.com, Generator: SVG Repo Mixer Tools -->
<svg height="800px" width="800px" version="1.1" id="Layer_1" xmlns="http://www.w3.org/2000/svg" xmlns:xlink="http://www.w3.org/1999/xlink" 
	 viewBox="0 0 503.607 503.607" xml:space="preserve">
<g transform="translate(1 1)">
	<g>
		<path style="fill:#FFE100;" d="M368.311,326.344v75.541c0,32.734-26.02,58.754-58.754,58.754H192.049
			c-32.734,0-58.754-26.02-58.754-58.754l0,0v-75.541H99.721v75.541l0,0c0,51.2,41.128,92.328,92.328,92.328h117.508
			c51.2,0,92.328-41.128,92.328-92.328v-75.541H368.311z"/>
		<polygon style="fill:#FFE100;" points="427.066,326.344 343.131,326.344 309.557,200.443 309.557,108.115 460.639,108.115 
			460.639,200.443 		"/>
	</g>
	<polygon style="fill:#FFA800;" points="443.852,108.115 443.852,200.443 410.279,326.344 427.066,326.344 460.639,200.443 
		460.639,108.115 	"/>
	<polygon style="fill:#FFFFFF;" points="326.344,108.115 326.344,200.443 359.918,326.344 343.131,326.344 309.557,200.443 
		309.557,108.115 	"/>
	<path style="fill:#63D3FD;" d="M343.131,108.115c0,23.502,18.466,41.967,41.967,41.967c23.502,0,41.967-18.466,41.967-41.967
		H343.131z"/>
	<g>
		<polygon style="fill:#FFE100;" points="351.525,74.541 351.525,15.787 317.951,15.787 317.951,108.115 368.311,108.115 
			368.311,74.541 		"/>
		<polygon style="fill:#FFE100;" points="418.672,15.787 418.672,74.541 401.885,74.541 401.885,108.115 452.246,108.115 
			452.246,15.787 		"/>
	</g>
	<polygon style="fill:#63D3FD;" points="351.525,7.393 351.525,74.541 368.311,74.541 368.311,108.115 401.885,108.115 
		401.885,74.541 418.672,74.541 418.672,7.393 	"/>
	<polygon style="fill:#FFE100;" points="158.475,326.344 74.541,326.344 40.967,200.443 40.967,108.115 192.049,108.115 
		192.049,200.443 	"/>
	<polygon style="fill:#FFA800;" points="175.262,108.115 175.262,200.443 141.689,326.344 158.475,326.344 192.049,200.443 
		192.049,108.115 	"/>
	<polygon style="fill:#FFFFFF;" points="57.754,108.115 57.754,200.443 91.328,326.344 74.541,326.344 40.967,200.443 
		40.967,108.115 	"/>
	<path style="fill:#63D3FD;" d="M74.541,108.115c0,23.502,18.466,41.967,41.967,41.967s41.967-18.466,41.967-41.967H74.541z"/>
	<g>
		<polygon style="fill:#FFE100;" points="82.934,74.541 82.934,15.787 49.361,15.787 49.361,108.115 99.721,108.115 99.721,74.541 
					"/>
		<polygon style="fill:#FFE100;" points="150.082,15.787 150.082,74.541 133.295,74.541 133.295,108.115 183.656,108.115 
			183.656,15.787 		"/>
	</g>
	<polygon style="fill:#63D3FD;" points="82.934,7.393 82.934,74.541 99.721,74.541 99.721,108.115 133.295,108.115 133.295,74.541 
		150.082,74.541 150.082,7.393 	"/>
	<path d="M158.475,334.738H74.541c-3.357,0-6.715-2.518-8.393-5.875L32.574,219.748c0-0.839,0-1.679,0-2.518V108.115
		c0-5.036,3.357-8.393,8.393-8.393h151.082c5.036,0,8.393,3.357,8.393,8.393v109.115c0,0.839,0,1.679,0,2.518l-33.574,109.115
		C165.19,332.22,161.833,334.738,158.475,334.738z M80.416,317.951h71.344l31.895-101.561v-99.882H49.361v99.043L80.416,317.951z"/>
	<path d="M116.508,158.475c-27.698,0-50.361-22.662-50.361-50.361c0-5.036,3.357-8.393,8.393-8.393h83.934
		c5.036,0,8.393,3.357,8.393,8.393C166.869,135.813,144.207,158.475,116.508,158.475z M83.774,116.508
		c3.357,14.269,16.787,25.18,32.734,25.18s28.538-10.911,32.734-25.18H83.774z"/>
	<path d="M133.295,116.508H99.721c-5.036,0-8.393-3.357-8.393-8.393v-25.18h-8.393c-5.036,0-8.393-3.357-8.393-8.393V7.393
		C74.541,2.357,77.898-1,82.934-1h67.148c5.036,0,8.393,3.357,8.393,8.393v67.148c0,5.036-3.357,8.393-8.393,8.393h-8.393v25.18
		C141.689,113.151,138.331,116.508,133.295,116.508z M108.115,99.721h16.787v-25.18c0-5.036,3.357-8.393,8.393-8.393h8.393V15.787
		H91.328v50.361h8.393c5.036,0,8.393,3.357,8.393,8.393V99.721z"/>
	<path d="M99.721,116.508H49.361c-5.036,0-8.393-3.357-8.393-8.393V15.787c0-5.036,3.357-8.393,8.393-8.393h33.574
		c5.036,0,8.393,3.357,8.393,8.393v50.361h8.393c5.036,0,8.393,3.357,8.393,8.393v33.574
		C108.115,113.151,104.757,116.508,99.721,116.508z M57.754,99.721h33.574V82.934h-8.393c-5.036,0-8.393-3.357-8.393-8.393V24.18
		H57.754V99.721z"/>
	<path d="M183.656,116.508h-50.361c-5.036,0-8.393-3.357-8.393-8.393V74.541c0-5.036,3.357-8.393,8.393-8.393h8.393V15.787
		c0-5.036,3.357-8.393,8.393-8.393h33.574c5.036,0,8.393,3.357,8.393,8.393v92.328C192.049,113.151,188.692,116.508,183.656,116.508
		z M141.689,99.721h33.574V24.18h-16.787v50.361c0,5.036-3.357,8.393-8.393,8.393h-8.393V99.721z"/>
	<path d="M91.328,301.164H64.469c-5.036,0-8.393-3.357-8.393-8.393s3.357-8.393,8.393-8.393h26.859c5.036,0,8.393,3.357,8.393,8.393
		S96.364,301.164,91.328,301.164z"/>
	<path d="M168.548,301.164h-26.859c-5.036,0-8.393-3.357-8.393-8.393s3.357-8.393,8.393-8.393h26.859
		c5.036,0,8.393,3.357,8.393,8.393S173.584,301.164,168.548,301.164z"/>
	<path d="M91.328,267.59h-37.77c-5.036,0-8.393-3.357-8.393-8.393s3.357-8.393,8.393-8.393h37.77c5.036,0,8.393,3.357,8.393,8.393
		S96.364,267.59,91.328,267.59z"/>
	<path d="M179.459,267.59h-37.77c-5.036,0-8.393-3.357-8.393-8.393s3.357-8.393,8.393-8.393h37.77c5.036,0,8.393,3.357,8.393,8.393
		S183.656,267.59,179.459,267.59z"/>
	<path d="M91.328,234.016H43.485c-5.036,0-8.393-3.357-8.393-8.393s3.357-8.393,8.393-8.393h47.843c5.036,0,8.393,3.357,8.393,8.393
		S96.364,234.016,91.328,234.016z"/>
	<path d="M189.531,234.016h-47.843c-5.036,0-8.393-3.357-8.393-8.393s3.357-8.393,8.393-8.393h47.843
		c5.036,0,8.393,3.357,8.393,8.393S193.728,234.016,189.531,234.016z"/>
	<path d="M91.328,200.443H40.967c-5.036,0-8.393-3.357-8.393-8.393c0-5.036,3.357-8.393,8.393-8.393h50.361
		c5.036,0,8.393,3.357,8.393,8.393C99.721,197.085,96.364,200.443,91.328,200.443z"/>
	<path d="M192.049,200.443h-50.361c-5.036,0-8.393-3.357-8.393-8.393c0-5.036,3.357-8.393,8.393-8.393h50.361
		c5.036,0,8.393,3.357,8.393,8.393C200.443,197.085,197.085,200.443,192.049,200.443z"/>
	<path d="M427.066,334.738h-83.934c-3.357,0-6.715-2.518-8.393-5.875l-33.574-109.115c0-0.839,0-1.679,0-2.518V108.115
		c0-5.036,3.357-8.393,8.393-8.393h151.082c5.036,0,8.393,3.357,8.393,8.393v109.115c0,0.839,0,1.679,0,2.518l-33.574,109.115
		C433.78,332.22,430.423,334.738,427.066,334.738z M349.007,317.951h71.344l31.895-101.561v-99.882H317.951v99.043L349.007,317.951z
		"/>
	<path d="M385.098,158.475c-27.698,0-50.361-22.662-50.361-50.361c0-5.036,3.357-8.393,8.393-8.393h83.934
		c5.036,0,8.393,3.357,8.393,8.393C435.459,135.813,412.797,158.475,385.098,158.475z M352.364,116.508
		c3.357,14.269,16.787,25.18,32.734,25.18c15.948,0,28.538-10.911,32.734-25.18H352.364z"/>
	<path d="M401.885,116.508h-33.574c-5.036,0-8.393-3.357-8.393-8.393v-25.18h-8.393c-5.036,0-8.393-3.357-8.393-8.393V7.393
		c0-5.036,3.357-8.393,8.393-8.393h67.148c5.036,0,8.393,3.357,8.393,8.393v67.148c0,5.036-3.357,8.393-8.393,8.393h-8.393v25.18
		C410.279,113.151,406.921,116.508,401.885,116.508z M376.705,99.721h16.787v-25.18c0-5.036,3.357-8.393,8.393-8.393h8.393V15.787
		h-50.361v50.361h8.393c5.036,0,8.393,3.357,8.393,8.393V99.721z"/>
	<path d="M368.311,116.508h-50.361c-5.036,0-8.393-3.357-8.393-8.393V15.787c0-5.036,3.357-8.393,8.393-8.393h33.574
		c5.036,0,8.393,3.357,8.393,8.393v50.361h8.393c5.036,0,8.393,3.357,8.393,8.393v33.574
		C376.705,113.151,373.348,116.508,368.311,116.508z M326.344,99.721h33.574V82.934h-8.393c-5.036,0-8.393-3.357-8.393-8.393V24.18
		h-16.787V99.721z"/>
	<path d="M452.246,116.508h-50.361c-5.036,0-8.393-3.357-8.393-8.393V74.541c0-5.036,3.357-8.393,8.393-8.393h8.393V15.787
		c0-5.036,3.357-8.393,8.393-8.393h33.574c5.036,0,8.393,3.357,8.393,8.393v92.328C460.639,113.151,457.282,116.508,452.246,116.508
		z M410.279,99.721h33.574V24.18h-16.787v50.361c0,5.036-3.357,8.393-8.393,8.393h-8.393V99.721z"/>
	<path d="M359.918,301.164h-26.859c-5.036,0-8.393-3.357-8.393-8.393s3.357-8.393,8.393-8.393h26.859
		c5.036,0,8.393,3.357,8.393,8.393S364.954,301.164,359.918,301.164z"/>
	<path d="M437.138,301.164h-26.859c-5.036,0-8.393-3.357-8.393-8.393s3.357-8.393,8.393-8.393h26.859
		c5.036,0,8.393,3.357,8.393,8.393S442.174,301.164,437.138,301.164z"/>
	<path d="M359.918,267.59h-37.77c-5.036,0-8.393-3.357-8.393-8.393s3.357-8.393,8.393-8.393h37.77c5.036,0,8.393,3.357,8.393,8.393
		S364.954,267.59,359.918,267.59z"/>
	<path d="M448.049,267.59h-37.771c-5.036,0-8.393-3.357-8.393-8.393s3.357-8.393,8.393-8.393h37.771
		c5.036,0,8.393,3.357,8.393,8.393S452.246,267.59,448.049,267.59z"/>
	<path d="M359.918,234.016h-47.843c-5.036,0-8.393-3.357-8.393-8.393s3.357-8.393,8.393-8.393h47.843
		c5.036,0,8.393,3.357,8.393,8.393S364.954,234.016,359.918,234.016z"/>
	<path d="M458.121,234.016h-47.843c-5.036,0-8.393-3.357-8.393-8.393s3.357-8.393,8.393-8.393h47.843
		c5.036,0,8.393,3.357,8.393,8.393S462.318,234.016,458.121,234.016z"/>
	<path d="M359.918,200.443h-50.361c-5.036,0-8.393-3.357-8.393-8.393c0-5.036,3.357-8.393,8.393-8.393h50.361
		c5.036,0,8.393,3.357,8.393,8.393C368.311,197.085,364.954,200.443,359.918,200.443z"/>
	<path d="M460.639,200.443h-50.361c-5.036,0-8.393-3.357-8.393-8.393c0-5.036,3.357-8.393,8.393-8.393h50.361
		c5.036,0,8.393,3.357,8.393,8.393C469.033,197.085,465.675,200.443,460.639,200.443z"/>
	<path d="M309.557,502.607H192.049c-55.397,0-100.721-45.325-100.721-100.721v-75.541c0-5.036,3.357-8.393,8.393-8.393h33.574
		c5.036,0,8.393,3.357,8.393,8.393v75.541c0,27.698,22.662,50.361,50.361,50.361h117.508c27.698,0,50.361-22.662,50.361-50.361
		v-75.541c0-5.036,3.357-8.393,8.393-8.393h33.574c5.036,0,8.393,3.357,8.393,8.393v75.541
		C410.279,457.282,364.954,502.607,309.557,502.607z M108.115,334.738v67.148c0,46.164,37.77,83.934,83.934,83.934h117.508
		c46.164,0,83.934-37.77,83.934-83.934v-67.148h-16.787v67.148c0,36.931-30.216,67.148-67.148,67.148H192.049
		c-36.931,0-67.148-30.216-67.148-67.148v-67.148H108.115z"/>
</g>
</svg>