<?xml version="1.0" encoding="utf-8"?>
<!-- Generator: Adobe Illustrator 21.0.0, SVG Export Plug-In . SVG Version: 6.00 Build 0)  -->
<svg version="1.1" id="Layer_1" xmlns="http://www.w3.org/2000/svg" xmlns:xlink="http://www.w3.org/1999/xlink" x="0px" y="0px"
	 viewBox="0 0 512 512" style="enable-background:new 0 0 512 512;" xml:space="preserve">
<style type="text/css">
	.st0{display:none;}
	.st1{display:inline;}
	.st2{fill:#49CBD6;}
	.st3{display:none;fill:#49CBD6;}
	.st4{display:inline;fill:#49CBD6;}
	.st5{fill:#49CBD6;}
</style>
<g class="st0">
	<g class="st1">
		<path class="st2" d="M325.7,160.7v116C306.8,265.8,279.3,256,256,256s-51.2,9.8-70,20.7v-76.8h-50.7v182.8
			c0,70.7,49.5,129.1,120.2,129.4c70.9,0.3,128.5-57.2,128.5-128V160.7H325.7z M331.4,459.4c-20.1,20.1-46.9,31.2-75.4,31.2
			s-55.3-11.1-75.4-31.2s-31.2-46.9-31.2-75.4v-70.8v-94.1c0-4.6,3.7-8.3,8.3-8.3h4.8c4.6,0,8.3,3.7,8.3,8.3v69.5V320v63
			c0,46.4,36.6,85,82.9,86.3c48.8,1.3,88.7-38.4,87.7-87.1c-0.9-45.6-38.3-82.8-83.9-83.5c-26.1-0.4-49.5,10.8-65.5,28.9v-28.9
			c18.4-13.8,40.6-21.3,64-21.3s45.6,7.5,64,21.3l0,0c4,3,7.8,6.3,11.4,9.9c20.1,20.1,31.2,46.9,31.2,75.4S351.6,439.3,331.4,459.4z
			 M192.1,388.2c-2.5-38.6,29.5-70.5,68-68.1c31.9,2,57.7,27.8,59.7,59.7c2.5,38.6-29.5,70.6-68.1,68.1
			C219.9,445.8,194.2,420.1,192.1,388.2z M362.7,313.2c-6-9.1-13.2-17.4-21.3-24.6V179.4c0-4.8,3.9-8.7,8.7-8.7h3.8
			c4.8,0,8.7,3.9,8.7,8.7L362.7,313.2L362.7,313.2z"/>
	</g>
</g>
<g class="st0">
	<g class="st1">
		<path class="st2" d="M197.5,88.1V38.8c0-2.1-1.7-3.8-3.8-3.8h-67.5c-2.1,0-3.8,1.7-3.8,3.8v49.4c-4.4,1.5-7.5,5.7-7.5,10.6v39.5
			c0,9.1,1.7,18,5.1,26.5l10.2,25.4c0.6,1.4,1.9,2.4,3.5,2.4H145v18.7c0,2.1,1.7,3.8,3.8,3.8s3.8-1.7,3.8-3.8v-18.7h15v18.7
			c0,2.1,1.7,3.8,3.8,3.8s3.8-1.7,3.8-3.8v-18.7h11.3c1.5,0,2.9-0.9,3.5-2.4l10.2-25.4c3.4-8.5,5.1-17.4,5.1-26.5V98.7
			C205,93.9,201.9,89.7,197.5,88.1z M194.8,137.3c0,7.6-1.4,15-4.2,22l-8.6,21.4h-44l-8.6-21.4c-2.8-7-4.2-14.4-4.2-22v-26.2h7.2
			c1.7,11.8,11.9,20.9,24.1,20.9h7c12.3,0,22.4-9.1,24.1-20.9h7.2V137.3L194.8,137.3z M149.5,83.2H146V69.3h27.9v13.9h-3.5
			c-1.9,0-3.5,1.6-3.5,3.5V118c0,3.8-3.1,7-7,7c-3.8,0-7-3.1-7-7V86.7C153,84.8,151.5,83.2,149.5,83.2z M194.8,104.1h-10.4
			c-1.9,0-3.5,1.6-3.5,3.5c0,6-3,11.2-7.6,14.4c0.4-1.2,0.6-2.5,0.6-3.9V90.2h3.5c1.9,0,3.5-1.6,3.5-3.5V65.8c0-1.9-1.6-3.5-3.5-3.5
			h-34.8c-1.9,0-3.5,1.6-3.5,3.5v20.9c0,1.9,1.6,3.5,3.5,3.5h3.5V118c0,1.4,0.3,2.7,0.6,3.9c-4.6-3.1-7.6-8.4-7.6-14.4
			c0-1.9-1.6-3.5-3.5-3.5h-10.4v-3.5c0-1.9,1.6-3.5,3.5-3.5c1.9,0,3.5-1.6,3.5-3.5V48.4h3.5v3.5c0,1.9,1.6,3.5,3.5,3.5
			s3.5-1.6,3.5-3.5v-3.5h7v3.5c0,1.9,1.6,3.5,3.5,3.5s3.5-1.6,3.5-3.5v-3.5h7v3.5c0,1.9,1.6,3.5,3.5,3.5s3.5-1.6,3.5-3.5v-3.5h7v3.5
			c0,1.9,1.6,3.5,3.5,3.5s3.5-1.6,3.5-3.5v-3.5h3.5v45.3c0,1.9,1.6,3.5,3.5,3.5s3.5,1.6,3.5,3.5L194.8,104.1L194.8,104.1z"/>
	</g>
</g>
<path class="st3" d="M192,192"/>
<g class="st0">
	<g class="st1">
		<path class="st2" d="M387.7,56.8V11.6c0-1.9-1.5-3.4-3.4-3.4h-61.9c-1.9,0-3.4,1.5-3.4,3.4v45.3c-4,1.4-6.9,5.2-6.9,9.7v36.2
			c0,8.3,1.6,16.5,4.7,24.3l9.3,23.3c0.5,1.3,1.8,2.2,3.2,2.2h10.3v17.2c0,1.9,1.5,3.4,3.4,3.4s3.4-1.5,3.4-3.4v-17.2h13.7v17.2
			c0,1.9,1.5,3.4,3.4,3.4s3.4-1.5,3.4-3.4v-17.2h10.3c1.4,0,2.7-0.9,3.2-2.2l9.3-23.3c3.1-7.8,4.7-15.9,4.7-24.3V66.6
			C394.6,62.1,391.7,58.3,387.7,56.8z M385.3,101.9c0,6.9-1.3,13.7-3.9,20.2l-7.9,19.6h-40.4l-7.9-19.6c-2.6-6.4-3.9-13.2-3.9-20.2
			v-24h6.6c1.6,10.8,10.9,19.2,22.1,19.2h6.4c11.2,0,20.6-8.3,22.1-19.2h6.6v24C385.1,101.9,385.3,101.9,385.3,101.9z M343.8,52.3
			h-3.2V39.6h25.5v12.8h-3.2c-1.8,0-3.2,1.4-3.2,3.2v28.7c0,3.5-2.9,6.4-6.4,6.4s-6.4-2.9-6.4-6.4V55.5
			C346.9,53.7,345.5,52.3,343.8,52.3z M385.3,71.5h-9.6c-1.8,0-3.2,1.4-3.2,3.2c0,5.5-2.8,10.3-7,13.2c0.3-1.1,0.6-2.3,0.6-3.6V58.7
			h3.2c1.8,0,3.2-1.4,3.2-3.2V36.4c0-1.8-1.4-3.2-3.2-3.2h-31.9c-1.8,0-3.2,1.4-3.2,3.2v19.2c0,1.8,1.4,3.2,3.2,3.2h3.2v25.5
			c0,1.3,0.2,2.4,0.6,3.6c-4.2-2.9-7-7.7-7-13.2c0-1.8-1.4-3.2-3.2-3.2h-9.6v-3.2c0-1.8,1.4-3.2,3.2-3.2c1.8,0,3.2-1.4,3.2-3.2V20.4
			h3.2v3.2c0,1.8,1.4,3.2,3.2,3.2c1.8,0,3.2-1.4,3.2-3.2v-3.2h6.4v3.2c0,1.8,1.4,3.2,3.2,3.2s3.2-1.4,3.2-3.2v-3.2h6.4v3.2
			c0,1.8,1.4,3.2,3.2,3.2c1.8,0,3.2-1.4,3.2-3.2v-3.2h6.4v3.2c0,1.8,1.4,3.2,3.2,3.2c1.8,0,3.2-1.4,3.2-3.2v-3.2h3.2v41.5
			c0,1.8,1.4,3.2,3.2,3.2c1.8,0,3.2,1.4,3.2,3.2L385.3,71.5L385.3,71.5z"/>
	</g>
</g>
<g class="st0">
	<path class="st4" d="M270.2,182.3h25.6v18.5h-25.6v28.9h-19.5v-28.9h-25.6v-18.5h25.6v-27.7h19.5V182.3z"/>
</g>
<g class="st0">
	<g class="st1">
		<path class="st2" d="M190.9,459.4h29c3.9,0,7.6-2.5,9-6.2l26.2-65.6c8.7-22,13.2-44.8,13.2-68.5v-102c0.6-12.7-7.6-23.4-18.9-27.6
			V62.2c0-5.4-4.2-9.6-9.6-9.6H65.6c-5.4,0-9.6,4.2-9.6,9.6v127.6c-11.3,3.9-19.4,14.6-19.4,27.3v102c0,23.4,4.5,46.5,13.2,68.5
			L76,453.2c1.4,3.7,5.1,6.2,9,6.2h29 M133.2,459.4h38.6 M242.8,316.6c0,19.4-3.7,38.6-11,56.9l-22.3,55.2H95.7l-22.3-55.2
			c-7.3-18-11-37.2-11-56.9V249H81c4.5,30.4,30.7,54.1,62.3,54.1h18c31.6,0,58-23.4,62.3-54.1h18.6v67.6H242.8z M125.9,176.8h-9
			v-17.1h71.8v17.4h-9c-5.1,0-9,3.9-9,9V267c0,9.9-8.2,18-18,18c-9.9,0-18-8.2-18-18v-81.1C134.6,180.8,130.6,176.8,125.9,176.8z
			 M242.8,230.9h-27c-5.1,0-9,3.9-9,9c0,15.5-7.9,29-19.7,37.2c0.8-3.1,1.7-6.5,1.7-10.1v-72.1h9c5.1,0,9-3.9,9-9v-35.1
			c0-5.1-3.9-9-9-9h-89.9c-5.1,0-9,3.9-9,9v35.4c0,5.1,3.9,9,9,9h9V267c0,3.7,0.6,6.8,1.7,10.1c-11.8-8.2-19.7-21.7-19.7-37.2
			c0-5.1-3.9-9-9-9h-27v-9c0-5.1,3.9-9,9-9s9-3.9,9-9V87h9v38c0,5.1,3.9,9,9,9s9-3.9,9-9V87h18v38c0,5.1,3.9,9,9,9s9-3.9,9-9V87h18
			v38c0,5.1,3.9,9,9,9s9-3.9,9-9V87h18v38c0,5.1,3.9,9,9,9s9-3.9,9-9V87h9v116.9c0,5.1,3.9,9,9,9s9,3.9,9,9L242.8,230.9L242.8,230.9
			z"/>
	</g>
</g>
<g class="st0">
	<g class="st1">
		<path class="st2" d="M307.6,227.8c5.9,0,11.3-3.6,13.6-9c9.5-22.6,31.8-38.5,57.8-38.5c14.3,0,27.5,4.9,38,13.1l-8.3,1.3
			c-2.8,0.4-5,2.7-5.4,5.5s1.1,5.6,3.7,6.7l45.4,20.4c2,0.9,4.3,0.7,6.1-0.5c1.8-1.2,2.9-3.2,3-5.4l0.2-50c0-2.8-1.8-5.4-4.6-6.2
			c-2.7-0.8-5.7,0.2-7.2,2.6l-6.3,9.4c-16.7-16.4-39.6-26.6-64.8-26.6c-38.2,0-71.1,23.3-85.1,56.5c-1.9,4.6-1.5,9.9,1.3,14
			C297.9,225.3,302.6,227.8,307.6,227.8z"/>
		<path class="st2" d="M462.8,264.8c-2.8-4.2-7.4-6.7-12.4-6.7c-5.9,0-11.3,3.6-13.6,9c-9.5,22.6-31.8,38.5-57.8,38.5
			c-14.3,0-27.5-4.9-38-13.1l8.3-1.3c2.8-0.4,5-2.7,5.4-5.5s-1.1-5.6-3.7-6.7l-45.4-20.4c-2-0.9-4.3-0.7-6.1,0.5
			c-1.8,1.2-2.9,3.2-3,5.4l-0.2,50c0,2.8,1.8,5.4,4.6,6.2c2.7,0.8,5.7-0.2,7.2-2.6l6.3-9.4c16.7,16.4,39.6,26.6,64.8,26.6
			c38.2,0,71.1-23.3,85.1-56.5C466,274.2,465.5,269,462.8,264.8z"/>
	</g>
</g>
<path class="st5" d="M177.4,459.1h20.9c4.6,0,8.6-3,10.1-7.4l25.7-83.5c0-0.1,0-0.1,0.1-0.3l16-52.1c0.3-1.1,0.4-2,0.4-3V176.9
	c0-5.8-4.6-10.5-10.5-10.5V61.9c0-5.8-4.6-10.5-10.5-10.5h-31.4c0-5.8-4.6-10.5-10.5-10.5h-83.6c-5.8,0-10.5,4.6-10.5,10.5H62.4
	c-5.8,0-10.5,4.6-10.5,10.5v104.5c-5.8,0-10.5,4.6-10.5,10.5v135.9c0,1.1,0.1,2.1,0.4,3l3.2,10.5v0.1l12.8,41.7c0,0.1,0,0.1,0.1,0.3
	L70.8,410l0,0l12.8,41.8c1.3,4.4,5.4,7.4,10.1,7.4h20.9 M224.7,69.3v101.1h-22.5h-22.5v-22.5H191c6.2,0,11.3-4.9,11.3-11.3V69.3
	H224.7z M122.7,185.5h46.6h21.8c-5.1,20.1-23.4,36-45.1,36s-40-15.9-45.1-36H122.7z M190,58.5v70.6h-14.7c-8.1,0-14.7,5.3-14.7,12
	v32.8h-29.3v-32.8c0-6.6-6.4-12-14.7-12h-14.7V58.5H190z M67.3,69.3h22.5v67.4c0,6.2,4.9,11.3,11.3,11.3h11.3v22.5H89.8H67.3V69.3z
	 M90.4,418.7h23.9c5.9,0,10.6-4.7,10.6-10.6c0-5.9-4.7-10.6-10.6-10.6H83.8l-6.6-21.2h36.9c5.9,0,10.6-4.7,10.6-10.6
	c0-5.9-4.7-10.6-10.6-10.6H70.8l-6.6-21.2h50c5.9,0,10.6-4.7,10.6-10.6s-4.7-10.6-10.6-10.6H57.8l-0.5-1.6v-19.6h57
	c5.9,0,10.6-4.7,10.6-10.6s-4.7-10.6-10.6-10.6h-57v-84.7h26.1c5,30,31.1,53,62.6,53s57.7-22.9,62.6-53h27.1v85.1h-58
	c-5.9,0-10.6,4.7-10.6,10.6c0,5.9,4.7,10.6,10.6,10.6h58v19.6l-0.5,1.6h-57.4c-5.9,0-10.6,4.7-10.6,10.6c0,5.9,4.7,10.6,10.6,10.6
	h51l-6.6,21.2h-44.4c-5.9,0-10.6,4.7-10.6,10.6c0,5.9,4.7,10.6,10.6,10.6h37.9l-6.6,21.2h-31.4c-5.9,0-10.6,4.7-10.6,10.6
	c0,5.9,4.7,10.6,10.6,10.6h24.9l-6.6,25.2h-28.9h-42.4h-28L90.4,418.7z M135.5,459.1h20.9"/>
<g>
	<g>
		<path class="st5" d="M490.7,161.4c-4.2-0.9-8.3,1.8-9.2,6l-5.7,26.4c-18-30.7-51-50-87.2-50c-55.8,0-101.1,45.4-101.1,101.1
			c0,4.3,3.5,7.8,7.8,7.8c4.3,0,7.8-3.5,7.8-7.8c0-47.2,38.4-85.6,85.6-85.6c30.8,0,58.8,16.4,74,42.6l-25.9-5.6
			c-4.2-0.9-8.3,1.8-9.2,6c-0.9,4.2,1.8,8.3,6,9.2l44.5,9.5c0.8,0.2,1.5,0.2,2.3,0.1c1.3-0.1,2.5-0.5,3.6-1.2
			c1.7-1.1,2.9-2.9,3.4-4.9l9.5-44.5C497.6,166.4,494.9,162.3,490.7,161.4z"/>
		<path class="st5" d="M482.9,234.7c-4.3,0.1-7.7,3.7-7.5,8c0.8,22.8-7.4,44.6-23.1,61.3c-15.6,16.7-36.8,26.3-59.6,27
			c-1,0-1.9,0-2.8,0c-29.8,0-57.3-15.5-72.8-40.6l27,7.2c4.1,1.1,8.4-1.3,9.5-5.5c1.1-4.1-1.3-8.4-5.5-9.5l-44-11.8
			c-2-0.5-4.1-0.3-5.9,0.8c-1.8,1-3.1,2.7-3.6,4.7l-11.8,44c-1.1,4.1,1.3,8.4,5.5,9.5c0.7,0.2,1.4,0.3,2,0.3c3.4,0,6.6-2.3,7.5-5.8
			l6.6-24.7c18.4,29,50.5,46.9,85.3,46.9c1.1,0,2.2,0,3.4-0.1c27-0.9,52-12.2,70.5-32c18.5-19.7,28.1-45.4,27.2-72.4
			C490.7,237.9,487.1,234.5,482.9,234.7z"/>
	</g>
</g>
</svg>
