<?xml version="1.0" encoding="utf-8"?>
<!-- Generator: Adobe Illustrator 21.0.0, SVG Export Plug-In . SVG Version: 6.00 Build 0)  -->
<svg version="1.1" id="Layer_1" xmlns="http://www.w3.org/2000/svg" xmlns:xlink="http://www.w3.org/1999/xlink" x="0px" y="0px"
	 viewBox="0 0 512 378" style="enable-background:new 0 0 512 378;" xml:space="preserve">
<style type="text/css">
	.st0{display:none;}
	.st1{display:inline;}
	.st2{fill:#49CBD6;}
	.st3{display:none;fill:#49CBD6;}
	.st4{display:inline;fill:#49CBD6;}
	.st5{fill:#49CBD6;}
</style>
<path class="st2" d="M426.1,48.3L399,26.2c-1.4-1.1-3-1.7-4.8-1.7H336c-4.2,0-7.6,3.4-7.6,7.6v6.4h-13.9v-5.3
	c0-18.3-14.9-33.2-33.2-33.2H114.5c-0.3,0-0.7,0-1,0.1C91.4,3,71.2,12.9,55.3,28.6C39.4,44.2,29.3,64.2,26,86.4l-15.9,108
	c-0.6,4.1,2.3,8,6.4,8.6s8-2.3,8.6-6.4L41,88.6c5.6-38,36-68.2,74-73.4h125.1V78c0,4.2,3.4,7.6,7.6,7.6s7.6-3.4,7.6-7.6V15.2h25.9
	c10,0,18,8.1,18,18.1v74.3c0,9.9-8.1,18-18,18h-25.9v-20.8c0-4.2-3.4-7.6-7.6-7.6s-7.6,3.4-7.6,7.6v20.8H145
	c-19,0-35.5,12.8-40.3,31.2L79.2,256l-62.8,0.2l4.9-33.4c0.6-4.1-2.3-8-6.4-8.6c-4.2-0.6-8,2.3-8.6,6.4c0,0-6.2,42.2-6.2,42.3
	C0,263,0,370.4,0,370.4c0,4.2,3.4,7.6,7.6,7.6h201c4.2,0,7.6-3.4,7.6-7.6v-64.7c0-27.3-22.2-49.5-49.5-49.5H94.8l15-58.2h26.4
	c3.6,0,6.6-2.5,7.4-5.9l11.4-51.4h111.4V156h-21.9c-4.2,0-7.6,3.4-7.6,7.6s3.4,7.6,7.6,7.6h3.8c-2.4,4.3-3.6,9.1-3.6,14.2v78.3
	c0,4.2,3.4,7.6,7.6,7.6h43.5c4.2,0,7.6-3.4,7.6-7.6v-78.3c0-5.1-1.3-10-3.7-14.2h3.8c4.2,0,7.6-3.4,7.6-7.6s-3.4-7.6-7.6-7.6h-21.9
	v-15.3c18.1-0.2,32.8-15,32.8-33.2V104h13.9v6.5c0,4.2,3.4,7.6,7.6,7.6h58.2c1.7,0,3.4-0.6,4.8-1.7L426,94.3
	c1.8-1.4,2.8-3.6,2.8-5.9V54.2C428.9,51.9,427.9,49.8,426.1,48.3z M166.7,271.4c18.9,0,34.3,15.4,34.3,34.3v57.1H15.2v-91.5
	L166.7,271.4L166.7,271.4z M130.1,182.9h-16.4l5.7-22.3c2.5-9.8,10.3-17.1,19.9-19.2L130.1,182.9z M288.2,185.3V256h-28.3v-70.7
	c0-3.8,1.5-7.4,4.2-10c2.7-2.7,6.2-4.1,10-4.1C281.9,171.1,288.2,177.5,288.2,185.3z M328.4,88.8h-13.9V53.7h13.9V88.8z
	 M386.6,102.9h-43.1V39.7h43.1V102.9z M413.7,84.8l-12,9.7V48.1l12,9.7V84.8z M114,61.1L86.9,88.2c-1.5,1.5-3.4,2.2-5.4,2.2
	s-3.9-0.7-5.4-2.2c-3-3-3-7.8,0-10.7l27.1-27.1c3-3,7.8-3,10.7,0C117,53.4,117,58.2,114,61.1z M147.6,61.1l-27.1,27.1
	c-1.5,1.5-3.4,2.2-5.4,2.2s-3.9-0.7-5.4-2.2c-3-3-3-7.8,0-10.7l27.1-27.1c3-3,7.8-3,10.7,0C150.5,53.4,150.5,58.2,147.6,61.1z
	 M181.1,61.1L154,88.2c-1.5,1.5-3.4,2.2-5.4,2.2s-3.9-0.7-5.4-2.2c-3-3-3-7.8,0-10.7l27.1-27.1c3-3,7.8-3,10.7,0
	C184.1,53.4,184.1,58.2,181.1,61.1z M457.1,84.4c-1.5,1.5-3.4,2.2-5.4,2.2s-3.9-0.7-5.4-2.2l-10.6-10.6c-3-3-3-7.8,0-10.7
	c3-3,7.8-3,10.7,0L457,73.7C460,76.7,460,81.5,457.1,84.4z M483.4,84.4c-1.5,1.5-3.4,2.2-5.4,2.2s-3.9-0.7-5.4-2.2L462,73.8
	c-3-3-3-7.8,0-10.7c3-3,7.8-3,10.7,0l10.6,10.6C486.4,76.7,486.4,81.5,483.4,84.4z M509.8,84.4c-1.5,1.5-3.4,2.2-5.4,2.2
	s-3.9-0.7-5.4-2.2l-10.6-10.6c-3-3-3-7.8,0-10.7c3-3,7.8-3,10.7,0l10.6,10.6C512.7,76.7,512.7,81.5,509.8,84.4z"/>
</svg>
