<?xml version="1.0" standalone="no"?>
<!DOCTYPE svg PUBLIC "-//W3C//DTD SVG 20010904//EN"
 "http://www.w3.org/TR/2001/REC-SVG-20010904/DTD/svg10.dtd">
<svg version="1.0" xmlns="http://www.w3.org/2000/svg"
 width="512.000000pt" height="512.000000pt" viewBox="0 0 512.000000 512.000000"
 preserveAspectRatio="xMidYMid meet">

 <style type="text/css">
	.st0{display:none;}
	.st1{display:inline;}
	.st2{fill:#49CBD6;}
	.st3{display:none;fill:#49CBD6;}
	.st4{display:inline;fill:#49CBD6;}
	.st5{fill:#49CBD6;}
</style>

<g transform="translate(0.000000,512.000000) scale(0.100000,-0.100000)"
class="st1" stroke="none">
<path class="st2" d="M315 4470 c-11 -4 -31 -20 -45 -35 l-25 -27 0 -1369 0 -1369 33 -32
32 -33 725 -3 725 -2 0 -159 0 -159 -157 -4 c-128 -4 -168 -8 -209 -25 -114
-45 -202 -132 -245 -240 -21 -52 -23 -75 -24 -220 l0 -163 33 -32 32 -33 1010
0 1010 0 32 33 33 32 0 153 c0 175 -10 220 -66 307 -45 71 -119 131 -196 161
-49 19 -83 23 -215 27 l-158 4 0 159 0 159 80 0 80 0 0 120 0 120 -1160 0
-1160 0 0 1200 0 1200 1760 0 1760 0 0 -240 0 -240 120 0 121 0 -3 325 -3 325
-33 32 -32 33 -1918 2 c-1054 1 -1926 -2 -1937 -7z m2085 -3030 l0 -160 -200
0 -200 0 0 160 0 160 200 0 200 0 0 -160z m535 -419 c68 -31 105 -93 105 -176
l0 -45 -840 0 -840 0 0 45 c0 83 37 145 105 176 38 17 82 19 735 19 653 0 697
-2 735 -19z"/>
<path class="st2" d="M720 3040 l0 -880 120 0 120 0 0 880 0 880 -120 0 -120 0 0 -880z"/>
<path class="st2" d="M1920 3520 l0 -240 120 0 120 0 0 240 0 240 -120 0 -120 0 0 -240z"/>
<path class="st2" d="M3431 3644 c-189 -44 -201 -56 -216 -204 -11 -117 -15 -129 -51 -154
l-34 -23 -103 23 c-124 29 -143 29 -183 5 -32 -19 -190 -261 -205 -313 -12
-44 5 -82 76 -174 65 -83 67 -87 61 -129 -7 -42 -10 -46 -96 -100 -101 -64
-140 -104 -140 -144 0 -46 67 -330 84 -356 24 -37 45 -44 172 -60 64 -8 118
-16 119 -17 1 -2 11 -17 23 -34 l22 -31 -27 -120 c-26 -120 -26 -120 -7 -158
15 -32 44 -54 154 -123 74 -47 147 -88 163 -93 43 -12 82 5 176 79 87 69 89
70 132 62 24 -5 45 -12 46 -17 2 -4 31 -50 64 -101 86 -134 87 -134 293 -87
88 21 171 42 183 48 42 19 60 65 74 184 l12 113 36 23 36 24 100 -23 c182 -42
184 -41 305 153 115 186 115 189 12 325 -67 88 -70 95 -64 133 7 37 13 44 105
105 100 66 126 95 126 140 1 49 -68 324 -87 349 -28 39 -53 47 -172 61 -107
12 -110 13 -135 46 l-26 34 27 121 28 121 -19 36 c-22 39 -44 56 -211 157
-139 85 -148 85 -279 -14 -90 -67 -97 -71 -135 -65 -37 6 -43 12 -104 109 -40
61 -76 106 -91 113 -40 18 -88 14 -244 -24z m189 -307 c29 -46 62 -90 74 -97
25 -16 181 -44 247 -44 43 -1 54 5 129 63 l83 64 31 -17 c73 -40 71 -33 46
-141 -12 -54 -19 -110 -16 -127 3 -16 25 -55 49 -86 24 -31 53 -74 66 -95 13
-20 32 -42 44 -48 15 -9 180 -38 219 -39 8 0 14 -20 23 -71 l7 -37 -86 -55
c-89 -58 -116 -93 -116 -146 0 -17 -7 -64 -16 -105 -9 -41 -14 -85 -11 -98 4
-12 33 -58 67 -102 33 -43 60 -81 60 -84 0 -17 -53 -92 -66 -92 -8 0 -55 9
-106 20 -108 24 -116 23 -213 -48 -141 -103 -134 -93 -151 -216 -7 -60 -15
-110 -16 -111 -14 -8 -113 -24 -116 -18 -11 31 -106 165 -126 178 -14 9 -54
20 -88 25 -35 4 -84 13 -110 20 -26 7 -59 9 -72 6 -14 -3 -63 -35 -109 -70
l-84 -64 -46 29 c-26 16 -47 33 -47 39 0 5 9 48 20 95 26 110 25 125 -4 166
-14 19 -46 65 -71 102 -26 37 -57 74 -69 82 -12 8 -68 20 -123 26 -62 7 -104
17 -107 24 -2 7 -7 32 -11 56 l-7 44 90 58 c50 32 93 65 97 75 10 24 34 154
41 227 l6 60 -66 87 -66 87 28 45 c15 25 33 46 40 46 7 0 53 -9 102 -20 103
-23 125 -20 184 25 23 17 67 48 97 67 66 42 75 61 92 187 l12 95 50 11 c28 6
53 10 56 8 4 -1 30 -40 59 -86z"/>
<path class="st2" d="M3585 2913 c-77 -28 -139 -68 -185 -120 -185 -208 -122 -527 128
-650 73 -37 80 -38 182 -38 102 0 109 1 182 38 259 127 315 462 111 665 -79
79 -164 115 -278 119 -67 3 -103 -1 -140 -14z m229 -257 c92 -70 97 -199 11
-275 -39 -34 -87 -46 -147 -38 -98 13 -168 122 -139 218 14 47 55 97 96 115
49 23 136 13 179 -20z"/>
<path class="st2" d="M1920 2560 l0 -240 120 0 120 0 0 240 0 240 -120 0 -120 0 0 -240z"/>
</g>
</svg>
