<?xml version="1.0" encoding="iso-8859-1"?>
<!-- Uploaded to: SVG Repo, www.svgrepo.com, Generator: SVG Repo Mixer Tools -->
<svg fill="#000000" height="800px" width="800px" version="1.1" id="Layer_1" xmlns="http://www.w3.org/2000/svg" xmlns:xlink="http://www.w3.org/1999/xlink" 
	 viewBox="0 0 512 512" xml:space="preserve">

	 <style type="text/css">
	.st0{display:none;}
	.st1{display:inline;}
	.st2{fill:#49CBD6;}
	.st3{display:none;fill:#49CBD6;}
	.st4{display:inline;fill:#49CBD6;}
	.st5{fill:#49CBD6;}
</style>
<g class="st1">
	<g class="st1">
		<path class="st2" d="M418.133,187.733h59.733v-76.8c0-4.719-3.814-8.533-8.533-8.533V17.067c0-4.719-3.814-8.533-8.533-8.533h-25.6
			c0-4.719-3.814-8.533-8.533-8.533H358.4c-4.719,0-8.533,3.814-8.533,8.533h-25.6c-4.719,0-8.533,3.814-8.533,8.533V102.4
			c-4.719,0-8.533,3.814-8.533,8.533v76.8h59.733c4.719,0,8.533,3.814,8.533,8.533c0,4.719-3.814,8.533-8.533,8.533H307.2v17.067
			h59.733c4.719,0,8.533,3.814,8.533,8.533s-3.814,8.533-8.533,8.533h-54.878L317.303,256h49.63c4.719,0,8.533,3.814,8.533,8.533
			s-3.814,8.533-8.533,8.533H322.56l5.248,17.067h39.125c4.719,0,8.533,3.814,8.533,8.533s-3.814,8.533-8.533,8.533h-33.877
			l8.653,28.109c1.101,3.584,4.412,6.025,8.158,6.025h17.067V409.6c0,28.237-22.963,51.2-51.2,51.2H196.267
			c-28.237,0-51.2-22.921-51.2-51.2v-68.267h17.067c3.746,0,7.057-2.441,8.158-6.025l8.653-28.109h-33.877
			c-4.719,0-8.533-3.814-8.533-8.533s3.814-8.533,8.533-8.533h39.125l5.248-17.067h-44.373c-4.719,0-8.533-3.814-8.533-8.533
			s3.814-8.533,8.533-8.533h49.63l5.248-17.067h-54.878c-4.719,0-8.533-3.814-8.533-8.533s3.814-8.533,8.533-8.533H204.8V204.8
			h-59.733c-4.719,0-8.533-3.814-8.533-8.533c0-4.719,3.814-8.533,8.533-8.533H204.8v-76.8c0-4.719-3.814-8.533-8.533-8.533V17.067
			c0-4.719-3.814-8.533-8.533-8.533h-25.6c0-4.719-3.814-8.533-8.533-8.533H85.333C80.614,0,76.8,3.814,76.8,8.533H51.2
			c-4.719,0-8.533,3.814-8.533,8.533V102.4c-4.719,0-8.533,3.814-8.533,8.533v76.8h59.733c4.719,0,8.533,3.814,8.533,8.533
			c0,4.719-3.814,8.533-8.533,8.533H34.133v17.067h59.733c4.719,0,8.533,3.814,8.533,8.533s-3.814,8.533-8.533,8.533H38.989
			L44.237,256h49.63c4.719,0,8.533,3.814,8.533,8.533s-3.814,8.533-8.533,8.533H49.493l5.248,17.067h39.125
			c4.719,0,8.533,3.814,8.533,8.533s-3.814,8.533-8.533,8.533H59.989l8.653,28.109c1.101,3.584,4.412,6.025,8.158,6.025h17.067
			v68.378c0,56.397,45.935,102.289,102.4,102.289h119.467c56.465,0,102.4-45.935,102.4-102.4v-68.267H435.2
			c3.746,0,7.057-2.441,8.158-6.025l8.653-28.109h-33.877c-4.719,0-8.533-3.814-8.533-8.533s3.814-8.533,8.533-8.533h39.125
			l5.248-17.067h-44.373c-4.719,0-8.533-3.814-8.533-8.533s3.814-8.533,8.533-8.533h49.63l5.248-17.067h-54.878
			c-4.719,0-8.533-3.814-8.533-8.533s3.814-8.533,8.533-8.533h59.733V204.8h-59.733c-4.719,0-8.533-3.814-8.533-8.533
			C409.6,191.548,413.414,187.733,418.133,187.733z M435.2,76.8V25.6h17.067v76.8H435.2h-17.067V85.333h8.533
			C431.386,85.333,435.2,81.519,435.2,76.8z M366.933,17.067h51.2v51.2H409.6c-4.719,0-8.533,3.814-8.533,8.533v25.6H384V76.8
			c0-4.719-3.814-8.533-8.533-8.533h-8.533V17.067z M332.8,25.6h17.067v51.2c0,4.719,3.814,8.533,8.533,8.533h8.533V102.4h-17.067
			H332.8V25.6z M162.133,76.8V25.6H179.2v76.8h-17.067h-17.067V85.333h8.533C158.319,85.333,162.133,81.519,162.133,76.8z
			 M93.867,17.067h51.2v51.2h-8.533c-4.719,0-8.533,3.814-8.533,8.533v25.6h-17.067V76.8c0-4.719-3.814-8.533-8.533-8.533h-8.533
			V17.067z M59.733,25.6H76.8v51.2c0,4.719,3.814,8.533,8.533,8.533h8.533V102.4H76.8H59.733V25.6z M69.035,119.467h17.382
			c3.789,14.711,17.178,25.6,33.05,25.6c15.872,0,29.261-10.889,33.05-25.6h17.382c-4.088,24.175-25.114,42.667-50.432,42.667
			C94.148,162.133,73.122,143.642,69.035,119.467z M401.067,409.6c0,47.053-38.281,85.333-85.333,85.333H196.267
			c-47.053,0-85.333-38.229-85.333-85.333v-68.267H128v68.378c0,37.581,30.626,68.156,68.267,68.156h119.467
			c37.641,0,68.267-30.626,68.267-68.267v-68.267h17.067V409.6z M392.533,162.133c-25.318,0-46.345-18.492-50.432-42.667h17.382
			c3.789,14.711,17.178,25.6,33.05,25.6s29.261-10.889,33.05-25.6h17.382C438.878,143.642,417.852,162.133,392.533,162.133z"/>
	</g>
</g>
</svg>