<?xml version="1.0" encoding="utf-8"?>
<!-- Generator: Adobe Illustrator 21.0.0, SVG Export Plug-In . SVG Version: 6.00 Build 0)  -->
<svg version="1.1" id="Layer_1" xmlns="http://www.w3.org/2000/svg" xmlns:xlink="http://www.w3.org/1999/xlink" x="0px" y="0px"
	 viewBox="0 0 516.7 354" style="fill:#49CBD6;" xml:space="preserve">
<path d="M261.7,321.5c0,3.4-2.7,6.1-6.1,6.1H97.5c-3.4,0-6.1-2.7-6.1-6.1s2.7-6.1,6.1-6.1H140V285c0-3.4,2.7-6.1,6.1-6.1
	s6.1,2.7,6.1,6.1v30.4h48.7V285c0-3.4,2.7-6.1,6.1-6.1c3.4,0,6.1,2.7,6.1,6.1v30.4h42.6C258.9,315.4,261.7,318.1,261.7,321.5z
	 M182.6,247.1L182.6,247.1c-3.4,0-6.1,2.7-6.1,6.1c0,3.4,2.8,6.1,6.1,6.1c3.4,0,6.1-2.7,6.1-6.1C188.7,249.8,186,247.1,182.6,247.1z
	 M293.7,87.1c1.2,1.2,2.7,1.8,4.3,1.8c1.6,0,3.1-0.6,4.3-1.8c2.4-2.4,2.4-6.2,0-8.6l-12.2-12.2c-2.4-2.4-6.2-2.4-8.6,0
	c-2.4,2.4-2.4,6.2,0,8.6L293.7,87.1z M293.7,123.6c1.2,1.2,2.7,1.8,4.3,1.8c1.6,0,3.1-0.6,4.3-1.8c2.4-2.4,2.4-6.2,0-8.6l-48.7-48.7
	c-2.4-2.4-6.2-2.4-8.6,0c-2.4,2.4-2.4,6.2,0,8.6L293.7,123.6z M364.9,34.2v102.5c0,0-136.9-1-152.6-1L212,283.5H30.4
	C14.8,283.5,0,268.8,0,253.1V34.2C0,18.6,14.8,3.8,30.4,3.8h304.1C350.1,3.8,364.9,18.6,364.9,34.2z M352.7,137.5l0-103.3
	c0-8.9-9.4-18.2-18.2-18.2H30.4c-8.9,0-18.2,9.4-18.2,18.2v218.9c0,8.9,9.4,18.2,18.2,18.2h181.9l0-135.7
	C212.3,135.7,340.6,137.5,352.7,137.5L352.7,137.5z M340.6,34.2v103.3c0,0-124.1,0.1-127.5,0.1l-0.5,97.2H30.4
	c-3.4,0-6.1-2.7-6.1-6.1V34.2c0-3.4,2.7-6.1,6.1-6.1h304.1C337.9,28.1,340.6,30.8,340.6,34.2z M212,222.7l0-87.2l99,0.8l17.6,0.1
	l-0.3-96.1H36.5v182.5h176.6 M478.7,142.9c4.5,0,8.2,3.7,8.2,8.2V303c0,4.5-3.7,8.2-8.2,8.2h-252c-4.5,0-8.2-3.7-8.2-8.2V151.1
	c0-4.5,3.7-8.2,8.2-8.2L478.7,142.9L478.7,142.9z M479.8,151.1c0-0.6-0.5-1.1-1.1-1.1h-252c-0.6,0-1.1,0.5-1.1,1.1V303
	c0,0.6,0.5,1.1,1.1,1.1h252c0.6,0,1.1-0.5,1.1-1.1V151.1z M516.7,322v14.7c0,9.5-7.8,17.3-17.3,17.3H206c-9.5,0-17.3-7.8-17.3-17.3
	V322c0-3,2.4-5.3,5.3-5.3h8.4V147.2c0-11.2,9.1-20.4,20.4-20.4h259.8c11.2,0,20.4,9.1,20.4,20.4v169.4h8.4
	C514.3,316.6,516.7,319,516.7,322z M213.1,147.2v169.4h279.2V147.2c0-5.3-4.3-9.7-9.7-9.7H222.8
	C217.5,137.5,213.1,141.9,213.1,147.2L213.1,147.2z M339.5,327.3v2.8c0,1.3,1,2.3,2.3,2.3h26.8c1.3,0,2.3-1,2.3-2.3v-2.8H339.5
	L339.5,327.3z M506,336.7v-9.3h-8.4H378v2.8c0,5.2-4.2,9.4-9.4,9.4h-26.8c-5.2,0-9.4-4.2-9.4-9.4v-2.8H207.8h-8.4v9.3
	c0,3.6,3,6.6,6.6,6.6h293.4C503.1,343.3,506,340.3,506,336.7L506,336.7z M80.8,76.7v101.2h13.1V76.7H80.8z M116.7,177.9h13.1v-40.5
	c3,0.8,6.6,0.9,10.5,0.9c12.8,0,24-3.8,30.9-11.1c5.1-5.3,7.8-12.5,7.8-21.6c0-9-3.3-16.4-8.9-21.2c-6-5.4-15.5-8.4-28.4-8.4
	c-10.5,0-18.8,0.9-25.1,2V177.9z M129.8,87.3c2.3-0.6,6.6-1.1,12.3-1.1c14.4,0,23.9,6.5,23.9,19.8c0,14-9.6,21.6-25.4,21.6
	c-4.4,0-8-0.3-10.8-1.1V87.3z M311,176.7v101.2h13.1V176.7H311z M346.9,277.9H360v-40.5c3,0.8,6.6,0.9,10.5,0.9
	c12.8,0,24-3.8,30.9-11.1c5.1-5.3,7.8-12.5,7.8-21.6c0-9-3.3-16.4-8.9-21.2c-6-5.4-15.5-8.4-28.4-8.4c-10.5,0-18.8,0.9-25.1,2V277.9
	z M360,187.3c2.3-0.6,6.6-1.1,12.3-1.1c14.4,0,23.9,6.5,23.9,19.8c0,14-9.6,21.6-25.4,21.6c-4.4,0-8-0.3-10.8-1.1V187.3z"/>
</svg>
