<?xml version="1.0" encoding="iso-8859-1"?>
<!-- Generator: Adobe Illustrator 19.0.0, SVG Export Plug-In . SVG Version: 6.00 Build 0)  -->
<svg version="1.1" id="Capa_1" xmlns="http://www.w3.org/2000/svg" xmlns:xlink="http://www.w3.org/1999/xlink" x="0px" y="0px"
	 viewBox="0 0 511.999 511.999"  xml:space="preserve">
<g>
	<g>
		<path fill="#49CBD6" d="M376.241,336.677c-4.142,0-7.5,3.358-7.5,7.5v128.258c0,13.545-11.02,24.564-24.564,24.564H87.66
			c-13.545,0-24.564-11.02-24.564-24.564V215.919c0-13.545,11.02-24.565,24.564-24.565h224.45c4.142,0,7.5-3.358,7.5-7.5
			c0-4.142-3.358-7.5-7.5-7.5H87.66c-21.816,0-39.564,17.749-39.564,39.565v256.516c0,21.816,17.749,39.564,39.564,39.564h256.516
			c21.816,0,39.564-17.749,39.564-39.564V344.177C383.741,340.035,380.384,336.677,376.241,336.677z"/>
	</g>
</g>
<g>
	<g>
		<path fill="#49CBD6" d="M440.371,0h-80.162c-12.976,0-23.532,10.556-23.532,23.532V256c0,35.076,28.537,63.613,63.613,63.613
			s63.613-28.537,63.613-63.613V23.532C463.902,10.556,453.346,0,440.371,0z M448.903,256L448.903,256
			c0,26.805-21.808,48.613-48.613,48.613S351.676,282.805,351.676,256V23.532c0-4.705,3.828-8.532,8.532-8.532h80.162
			c4.705,0,8.532,3.828,8.532,8.532V256z"/>
	</g>
</g>
<g>
	<g>
		<path fill="#49CBD6" d="M376.322,48.097h-0.081c-4.142,0-7.459,3.358-7.459,7.5c0,4.142,3.398,7.5,7.54,7.5c4.142,0,7.5-3.358,7.5-7.5
			C383.822,51.455,380.463,48.097,376.322,48.097z"/>
	</g>
</g>
<g>
	<g>
		<path fill="#49CBD6" d="M400.371,48.097h-0.08c-4.142,0-7.46,3.358-7.46,7.5c0,4.142,3.398,7.5,7.54,7.5c4.142,0,7.5-3.358,7.5-7.5
			C407.871,51.455,404.512,48.097,400.371,48.097z"/>
	</g>
</g>
<g>
	<g>
		<path fill="#49CBD6" d="M424.338,48.097h-0.08c-4.142,0-7.46,3.358-7.46,7.5c0,4.142,3.398,7.5,7.54,7.5c4.142,0,7.5-3.358,7.5-7.5
			C431.839,51.455,428.48,48.097,424.338,48.097z"/>
	</g>
</g>
<g>
	<g>
		<path fill="#49CBD6" d="M376.322,72.145h-0.081c-4.142,0-7.459,3.358-7.459,7.5c0,4.142,3.398,7.5,7.54,7.5c4.142,0,7.5-3.358,7.5-7.5
			C383.822,75.503,380.463,72.145,376.322,72.145z"/>
	</g>
</g>
<g>
	<g>
		<path fill="#49CBD6" d="M400.371,72.145h-0.08c-4.142,0-7.46,3.358-7.46,7.5c0,4.142,3.398,7.5,7.54,7.5c4.142,0,7.5-3.358,7.5-7.5
			C407.871,75.503,404.512,72.145,400.371,72.145z"/>
	</g>
</g>
<g>
	<g>
		<path fill="#49CBD6" d="M424.338,72.145h-0.08c-4.142,0-7.46,3.358-7.46,7.5c0,4.142,3.398,7.5,7.54,7.5c4.142,0,7.5-3.358,7.5-7.5
			C431.839,75.503,428.48,72.145,424.338,72.145z"/>
	</g>
</g>
<g>
	<g>
		<path fill="#49CBD6" d="M376.322,96.194h-0.081c-4.142,0-7.459,3.358-7.459,7.5c0,4.142,3.398,7.5,7.54,7.5c4.142,0,7.5-3.358,7.5-7.5
			C383.822,99.552,380.463,96.194,376.322,96.194z"/>
	</g>
</g>
<g>
	<g>
		<path fill="#49CBD6" d="M400.371,96.194h-0.08c-4.142,0-7.46,3.358-7.46,7.5c0,4.142,3.398,7.5,7.54,7.5c4.142,0,7.5-3.358,7.5-7.5
			C407.871,99.552,404.512,96.194,400.371,96.194z"/>
	</g>
</g>
<g>
	<g>
		<path fill="#49CBD6" d="M424.338,96.194h-0.08c-4.142,0-7.46,3.358-7.46,7.5c0,4.142,3.398,7.5,7.54,7.5c4.142,0,7.5-3.358,7.5-7.5
			C431.839,99.552,428.48,96.194,424.338,96.194z"/>
	</g>
</g>
<g>
	<g>
		<path fill="#49CBD6" d="M376.322,128.258h-0.081c-4.142,0-7.459,3.358-7.459,7.5c0,4.142,3.398,7.5,7.54,7.5c4.142,0,7.5-3.358,7.5-7.5
			C383.822,131.616,380.463,128.258,376.322,128.258z"/>
	</g>
</g>
<g>
	<g>
		<path fill="#49CBD6" d="M424.338,128.258h-0.08c-4.142,0-7.46,3.358-7.46,7.5c0,4.142,3.398,7.5,7.54,7.5c4.142,0,7.5-3.358,7.5-7.5
			C431.839,131.616,428.48,128.258,424.338,128.258z"/>
	</g>
</g>
<g>
	<g>
		<path fill="#49CBD6" d="M376.322,224.452h-0.081c-4.142,0-7.459,3.358-7.459,7.5c0,4.142,3.398,7.5,7.54,7.5c4.142,0,7.5-3.358,7.5-7.5
			C383.822,227.81,380.463,224.452,376.322,224.452z"/>
	</g>
</g>
<g>
	<g>
		<path fill="#49CBD6" d="M424.338,224.452h-0.08c-4.142,0-7.46,3.358-7.46,7.5c0,4.142,3.398,7.5,7.54,7.5c4.142,0,7.5-3.358,7.5-7.5
			C431.839,227.81,428.48,224.452,424.338,224.452z"/>
	</g>
</g>
<g>
	<g>
		<path fill="#49CBD6" d="M400.29,152.306c-17.396,0-31.549,14.153-31.549,31.548c0,17.396,14.153,31.549,31.549,31.549
			c17.396,0,31.548-14.153,31.548-31.549C431.838,166.459,417.686,152.306,400.29,152.306z M400.29,200.403
			c-9.125,0-16.549-7.424-16.549-16.549s7.424-16.548,16.549-16.548s16.548,7.424,16.548,16.548
			C416.838,192.98,409.415,200.403,400.29,200.403z"/>
	</g>
</g>
<g>
	<g>
		<path fill="#49CBD6" d="M207.902,296.597h-64.129c-4.142,0-7.5,3.358-7.5,7.5c0,4.142,3.358,7.5,7.5,7.5h24.564v64.645c0,4.142,3.358,7.5,7.5,7.5
			c4.142,0,7.5-3.358,7.5-7.5v-64.645h0.001h24.564c4.142,0,7.5-3.358,7.5-7.5C215.402,299.955,212.044,296.597,207.902,296.597z"/>
	</g>
</g>
<g>
	<g>
		<path fill="#49CBD6" d="M298.452,296.981c-3.93-1.31-8.176,0.814-9.487,4.744l-21.513,64.54c-0.494,1.481-1.875,2.477-3.437,2.477
			s-2.942-0.995-3.436-2.476l-21.513-64.541c-1.311-3.93-5.557-6.054-9.487-4.744s-6.053,5.557-4.744,9.487l21.514,64.541
			c2.539,7.616,9.639,12.733,17.666,12.733c8.027,0,15.127-5.117,17.667-12.733l21.514-64.541
			C304.506,302.539,302.382,298.291,298.452,296.981z"/>
	</g>
</g>
<g>
	<g>
		<path fill="#49CBD6" d="M223.934,464.936h-16.032c-4.142,0-7.5,3.358-7.5,7.5c0,4.142,3.358,7.5,7.5,7.5h16.032c4.142,0,7.5-3.358,7.5-7.5
			C231.434,468.294,228.077,464.936,223.934,464.936z"/>
	</g>
</g>
<g>
	<g>
		<path fill="#49CBD6" d="M272.032,464.936h-16.032c-4.142,0-7.5,3.358-7.5,7.5c0,4.142,3.358,7.5,7.5,7.5h16.032c4.142,0,7.5-3.358,7.5-7.5
			C279.532,468.294,276.173,464.936,272.032,464.936z"/>
	</g>
</g>
<g>
	<g>
		<path fill="#49CBD6" d="M175.838,464.936h-16.032c-4.142,0-7.5,3.358-7.5,7.5c0,4.142,3.358,7.5,7.5,7.5h16.032c4.142,0,7.5-3.358,7.5-7.5
			C183.338,468.294,179.98,464.936,175.838,464.936z"/>
	</g>
</g>
<g>
</g>
<g>
</g>
<g>
</g>
<g>
</g>
<g>
</g>
<g>
</g>
<g>
</g>
<g>
</g>
<g>
</g>
<g>
</g>
<g>
</g>
<g>
</g>
<g>
</g>
<g>
</g>
<g>
</g>
</svg>
