<?xml version="1.0" encoding="utf-8"?>
<!-- Generator: Adobe Illustrator 21.0.0, SVG Export Plug-In . SVG Version: 6.00 Build 0)  -->
<svg version="1.1" id="Capa_1" xmlns="http://www.w3.org/2000/svg" xmlns:xlink="http://www.w3.org/1999/xlink" x="0px" y="0px"
	 viewBox="0 0 60 44" style="enable-background:new 0 0 60 44;" xml:space="preserve">
<style type="text/css">
	.st0{fill:#49CBD6;}
</style>
<path class="st0" d="M7,33c0.6,0,1,0.4,1,1s-0.4,1-1,1s-1-0.4-1-1S6.4,33,7,33z M55,8c0,0.6,0.4,1,1,1s1-0.4,1-1s-0.4-1-1-1
	S55,7.4,55,8z M55,34c0,0.6,0.4,1,1,1s1-0.4,1-1s-0.4-1-1-1S55,33.4,55,34z M60,38H37v4H11v-4H5v5c0,0.6-0.4,1-1,1s-1-0.4-1-1v-5V27
	H0v-6h3v-1H0v-6h3v-1H0V7h3V4V2H1C0.4,2,0,1.6,0,1s0.4-1,1-1h3c0.6,0,1,0.4,1,1v3h55V38z M5,11h2V9H5V11z M3,11V9H2v2H3z M5,18h2v-2
	H5V18z M3,18v-2H2v2H3z M5,25h2v-2H5V25z M3,25v-2H2v2H3z M35,38H13v2h1v-1h2v1h1v-1h2v1h1v-1h2v1h1v-1h2v1h1v-1h2v1h1v-1h2v1h1v-1
	h2v1h1V38z M58,6H5v1h4v6H5v1h4v6H5v1h4v6H5v9h6h26h21V6z M51,29h2V8h-2V29z M48,29h2V8h-2V29z M45,29h2V8h-2V29z M42,29h2V8h-2V29z
	 M29,18h-2v-8h2V8h2v2h1V8h2v2h1V8h2v2h2v8h-2v2h-2v-2h-1v2h-2v-2h-1v2h-2V18z M29,16h8v-4h-8V16z M14,18h-2v-8h2V8h2v2h1V8h2v2h1V8
	h2v2h2v8h-2v2h-2v-2h-1v2h-2v-2h-1v2h-2V18z M14,16h8v-4h-8V16z M20,22c0,0.6,0.4,1,1,1s1-0.4,1-1s-0.4-1-1-1S20,21.4,20,22z M6,31
	c0,0.6,0.4,1,1,1s1-0.4,1-1s-0.4-1-1-1S6,30.4,6,31z M17,22c0,0.6,0.4,1,1,1s1-0.4,1-1s-0.4-1-1-1S17,21.4,17,22z M14,22
	c0,0.6,0.4,1,1,1s1-0.4,1-1s-0.4-1-1-1S14,21.4,14,22z M14,29v-1h-1c-0.6,0-1-0.4-1-1s0.4-1,1-1h1v-2h8v2h1c0.6,0,1,0.4,1,1
	s-0.4,1-1,1h-1v1h1c0.6,0,1,0.4,1,1s-0.4,1-1,1h-1v2h-8v-2h-1c-0.6,0-1-0.4-1-1s0.4-1,1-1H14z M16,31h4v-5h-4V31z M35,22
	c0,0.6,0.4,1,1,1s1-0.4,1-1s-0.4-1-1-1S35,21.4,35,22z M32,22c0,0.6,0.4,1,1,1s1-0.4,1-1s-0.4-1-1-1S32,21.4,32,22z M42,32
	c0,0.6,0.4,1,1,1s1-0.4,1-1s-0.4-1-1-1S42,31.4,42,32z M45,32c0,0.6,0.4,1,1,1s1-0.4,1-1s-0.4-1-1-1S45,31.4,45,32z M48,32
	c0,0.6,0.4,1,1,1s1-0.4,1-1s-0.4-1-1-1S48,31.4,48,32z M51,32c0,0.6,0.4,1,1,1s1-0.4,1-1s-0.4-1-1-1S51,31.4,51,32z M29,22
	c0,0.6,0.4,1,1,1s1-0.4,1-1s-0.4-1-1-1S29,21.4,29,22z M29,29v-1h-1c-0.6,0-1-0.4-1-1s0.4-1,1-1h1v-2h8v2h1c0.6,0,1,0.4,1,1
	s-0.4,1-1,1h-1v1h1c0.6,0,1,0.4,1,1s-0.4,1-1,1h-1v2h-8v-2h-1c-0.6,0-1-0.4-1-1s0.4-1,1-1H29z M31,31h4v-5h-4V31z"/>
</svg>
