<?xml version="1.0" encoding="utf-8"?>
<!-- Generator: Adobe Illustrator 21.0.0, SVG Export Plug-In . SVG Version: 6.00 Build 0)  -->
<svg version="1.1" id="Layer_1" xmlns="http://www.w3.org/2000/svg" xmlns:xlink="http://www.w3.org/1999/xlink" x="0px" y="0px"
	 viewBox="0 0 416 417.5" style="enable-background:new 0 0 416 417.5;" xml:space="preserve">
<style type="text/css">
	.st0{fill:#49CBD6;}
</style>
<path class="st0" d="M395.6,272.5h-7.4V272c0-11.3-9.2-20.4-20.4-20.4H228.4V70.5c0-11.3-9.2-20.4-20.4-20.4
	c-11.3,0-20.4,9.2-20.4,20.4v97.3c0,3.6,2.9,6.5,6.5,6.5s6.5-2.9,6.5-6.5v-63h14.8v146.8h-14.8v-49.1c0-3.6-2.9-6.5-6.5-6.5
	s-6.5,2.9-6.5,6.5v49.1H48.2c-11.3,0-20.4,9.2-20.4,20.4v0.4h-7.4C9.2,272.5,0,281.6,0,292.9v83.4c0,11.3,9.2,20.4,20.4,20.4h7.4
	v0.4c0,11.3,9.2,20.4,20.4,20.4h319.6c11.3,0,20.4-9.2,20.4-20.4v-0.4h7.4c11.3,0,20.4-9.2,20.4-20.4v-83.4
	C416,281.6,406.8,272.5,395.6,272.5z M200.6,91.8V70.5c0-4.1,3.3-7.4,7.4-7.4s7.4,3.3,7.4,7.4v21.3H200.6z M40.8,272
	c0-4.1,3.3-7.4,7.4-7.4h319.6c4.1,0,7.4,3.3,7.4,7.4v0.4H40.8V272z M403,376.2c0,4.1-3.3,7.4-7.4,7.4H145.5c-3.6,0-6.5,2.9-6.5,6.5
	s2.9,6.5,6.5,6.5h229.7v0.4c0,4.1-3.3,7.4-7.4,7.4H48.2c-4.1,0-7.4-3.3-7.4-7.4v-0.4h69.9c3.6,0,6.5-2.9,6.5-6.5s-2.9-6.5-6.5-6.5
	H20.4c-4.1,0-7.4-3.3-7.4-7.4v-83.4c0-4.1,3.3-7.4,7.4-7.4h375.2c4.1,0,7.4,3.3,7.4,7.4V376.2L403,376.2z M367.4,334.6
	c0,18.9-15.4,34.3-34.3,34.3s-34.3-15.4-34.3-34.3c0-8.4,3-16.4,8.6-22.7c2.4-2.7,6.5-3,9.2-0.6s3,6.5,0.6,9.2
	c-3.4,3.9-5.3,8.9-5.3,14.1c0,11.7,9.5,21.3,21.3,21.3s21.3-9.5,21.3-21.3c0-5.2-1.9-10.2-5.3-14.1c-2.4-2.7-2.1-6.8,0.6-9.2
	c2.7-2.4,6.8-2.1,9.2,0.6C364.3,318.1,367.4,326.2,367.4,334.6z M339.6,306.8v27.8c0,3.6-2.9,6.5-6.5,6.5s-6.5-2.9-6.5-6.5v-27.8
	c0-3.6,2.9-6.5,6.5-6.5C336.7,300.2,339.6,303.2,339.6,306.8z M69,314.1c-11.3,0-20.4,9.2-20.4,20.4S57.8,355,69,355
	s20.4-9.2,20.4-20.4S80.3,314.1,69,314.1z M69,341.9c-4.1,0-7.4-3.3-7.4-7.4s3.3-7.4,7.4-7.4s7.4,3.3,7.4,7.4S73.1,341.9,69,341.9z
	 M124.6,314.1c-11.3,0-20.4,9.2-20.4,20.4s9.2,20.4,20.4,20.4s20.4-9.2,20.4-20.4S135.9,314.1,124.6,314.1z M124.6,341.9
	c-4.1,0-7.4-3.3-7.4-7.4s3.3-7.4,7.4-7.4s7.4,3.3,7.4,7.4S128.7,341.9,124.6,341.9z M180.2,314.1c-11.3,0-20.4,9.2-20.4,20.4
	S169,355,180.2,355c11.3,0,20.4-9.2,20.4-20.4C200.6,323.3,191.5,314.1,180.2,314.1z M180.2,341.9c-4.1,0-7.4-3.3-7.4-7.4
	s3.3-7.4,7.4-7.4c4.1,0,7.4,3.3,7.4,7.4C187.6,338.6,184.3,341.9,180.2,341.9z M268.7,55.2c0,8.5-2.2,16.8-6.5,24.1
	c-1.8,3.1-5.8,4.2-8.9,2.4c-3.1-1.8-4.2-5.8-2.4-8.9c3.1-5.3,4.7-11.4,4.7-17.6s-1.6-12.3-4.7-17.6c-1.8-3.1-0.7-7.1,2.4-8.9
	c3.1-1.8,7.1-0.7,8.9,2.4C266.5,38.3,268.7,46.7,268.7,55.2z M296.5,55.1c0,13.4-3.5,26.5-10.2,38c-1.9,3.3-6.4,4.3-9.5,2
	c-2.6-1.9-3.4-5.7-1.8-8.5c5.5-9.5,8.4-20.4,8.4-31.5s-2.9-22-8.4-31.5c-1.8-3.1-0.7-7.1,2.4-8.9s7.1-0.7,8.9,2.4
	C293,28.6,296.5,41.8,296.5,55.1z M324.3,55.1c0,18.9-5.1,37.4-14.8,53.5c-1.8,3-5.9,4.1-8.9,2.2c-3.1-1.9-4.1-5.9-2.2-8.9
	c8.5-14.1,13-30.2,13-46.8c0-16-4.2-31.6-12.1-45.4c-1.8-3.1-0.7-7.1,2.4-8.9s7.1-0.7,8.9,2.4C319.5,19,324.3,36.9,324.3,55.1z
	 M165,72.7c2.5,4.3-0.7,9.8-5.6,9.8c-2.2,0-4.4-1.2-5.6-3.3c-4.2-7.3-6.5-15.6-6.5-24.1s2.2-16.8,6.5-24.1c1.8-3.1,5.8-4.2,8.9-2.4
	c3.1,1.8,4.2,5.8,2.4,8.9c-3.1,5.3-4.7,11.4-4.7,17.6C160.3,61.3,161.9,67.4,165,72.7z M140.9,86.6c2.5,4.3-0.7,9.8-5.6,9.8
	c-2.2,0-4.4-1.2-5.6-3.3c-6.7-11.5-10.2-24.6-10.2-38s3.5-26.5,10.2-38c1.8-3.1,5.8-4.2,8.9-2.4c3.1,1.8,4.2,5.8,2.4,8.9
	c-5.5,9.5-8.4,20.4-8.4,31.5C132.5,66.2,135.4,77.1,140.9,86.6z M112.1,111.8c-2.2,0-4.4-1.1-5.6-3.2C96.8,92.5,91.7,74,91.7,55.1
	c0-18.2,4.8-36.2,13.9-51.9c1.8-3.1,5.8-4.2,8.9-2.4s4.2,5.8,2.4,8.9c-7.9,13.7-12.1,29.4-12.1,45.4c0,16.5,4.5,32.7,13,46.8
	C120.2,106.2,117.1,111.8,112.1,111.8z"/>
</svg>
