<?xml version="1.0" encoding="utf-8"?>
<!-- Generator: Adobe Illustrator 21.0.0, SVG Export Plug-In . SVG Version: 6.00 Build 0)  -->
<svg version="1.1" id="Layer_1" xmlns="http://www.w3.org/2000/svg" xmlns:xlink="http://www.w3.org/1999/xlink" x="0px" y="0px"
	 viewBox="0 0 512 442" style="enable-background:new 0 0 512 442;fill:#49CBD6" xml:space="preserve">
<g>
	<g>
		<path d="M383.2,153.9h-25.4v-23.3c0-7.8-6.3-14.2-14.2-14.2h-14.8V98.1c0-7.8-6.3-14.2-14.2-14.2H197.3c-7.8,0-14.2,6.3-14.2,14.2
			v18.3h-14.8c-7.8,0-14.2,6.3-14.2,14.2v23.3h-25.4c-7.8,0-14.2,6.3-14.2,14.2v179.6c0,7.8,6.3,14.2,14.2,14.2h254.4
			c7.8,0,14.2-6.3,14.2-14.2V168C397.4,160.2,391,153.9,383.2,153.9z M369,333.5H143V182.2h25.4c7.8,0,14.2-6.3,14.2-14.2v-23.3
			h14.8c7.8,0,14.2-6.3,14.2-14.2v-18.3h89v18.3c0,7.8,6.3,14.2,14.2,14.2h14.8v23.3c0,7.8,6.3,14.2,14.2,14.2H369L369,333.5
			L369,333.5z"/>
	</g>
</g>
<g>
	<g>
		<path d="M330.5,208.7H181c-7.8,0-14.2,6.3-14.2,14.2v77c0,7.8,6.3,14.2,14.2,14.2h149.6c7.8,0,14.2-6.3,14.2-14.2v-77
			C344.7,215.1,338.4,208.7,330.5,208.7z M329,298.5H182.5V229c0,0,146.3,0,146.5,0V298.5z"/>
	</g>
</g>
<g>
	<g>
		<path d="M497.8,1.6H14.2C6.3,1.6,0,7.9,0,15.7v410.5c0,7.8,6.3,14.2,14.2,14.2h483.7c7.8,0,14.2-6.3,14.2-14.2V15.7
			C512,7.9,505.7,1.6,497.8,1.6z M14,424.1V17.9h484v406.3H14z"/>
	</g>
</g>
<g>
	<g>
		<circle cx="55.8" cy="61.4" r="13.7"/>
	</g>
</g>
<g>
	<g>
		<circle cx="456.1" cy="61.4" r="13.7"/>
	</g>
</g>
<g>
	<g>
		<circle cx="55.8" cy="380.6" r="13.7"/>
	</g>
</g>
<g>
	<g>
		<circle cx="456.1" cy="380.6" r="13.7"/>
	</g>
</g>
</svg>
