<?xml version="1.0" standalone="no"?>
<!DOCTYPE svg PUBLIC "-//W3C//DTD SVG 20010904//EN"
 "http://www.w3.org/TR/2001/REC-SVG-20010904/DTD/svg10.dtd">
<svg version="1.0" xmlns="http://www.w3.org/2000/svg"
 width="1654.000000pt" height="1166.000000pt" viewBox="0 0 1654.000000 1166.000000"
 preserveAspectRatio="xMidYMid meet">

<g transform="translate(0.000000,1166.000000) scale(0.100000,-0.100000)"
fill="#000000" stroke="none">
<path d="M8123 8200 c-671 -70 -1202 -557 -1329 -1220 -25 -132 -25 -398 0
-530 102 -532 468 -961 971 -1140 601 -213 1277 -17 1669 485 147 188 240 389
293 636 26 120 26 448 0 569 -134 622 -605 1081 -1217 1185 -112 19 -285 26
-387 15z m402 -194 c274 -60 492 -182 684 -381 145 -151 236 -300 300 -490 52
-157 66 -244 66 -420 0 -176 -14 -263 -66 -420 -64 -190 -155 -339 -300 -490
-195 -202 -412 -322 -689 -382 -120 -25 -401 -25 -520 1 -256 56 -480 176
-661 356 -112 111 -182 207 -251 344 -106 211 -143 387 -135 640 6 203 39 341
121 512 74 154 142 250 261 369 208 210 457 332 770 379 63 9 352 -3 420 -18z"/>
<path d="M8715 7356 c-91 -43 -153 -133 -175 -255 -26 -143 32 -300 136 -372
103 -71 216 -58 309 34 75 76 99 143 99 272 1 89 -3 107 -28 163 -70 151 -214
218 -341 158z"/>
<path d="M7711 7350 c-89 -19 -183 -96 -222 -184 -26 -61 -37 -169 -19 -191
22 -26 41 -17 117 56 84 80 125 101 194 101 65 -1 101 -22 186 -104 63 -62 74
-70 98 -64 l27 7 -4 82 c-3 67 -10 92 -33 135 -66 121 -210 189 -344 162z"/>
<path d="M7532 6264 c-29 -20 -28 -49 6 -104 47 -79 75 -111 146 -166 87 -69
188 -118 313 -151 88 -24 115 -27 268 -26 141 0 183 3 247 21 213 58 365 155
453 287 48 74 56 118 23 139 -23 15 -29 14 -114 -24 -193 -85 -379 -122 -614
-122 -233 0 -421 37 -609 122 -49 22 -90 40 -93 40 -2 0 -14 -7 -26 -16z"/>
<path d="M5667 7918 c-34 -12 -61 -64 -151 -290 -74 -188 -126 -356 -162 -533
-31 -147 -44 -456 -25 -600 35 -273 130 -588 266 -881 36 -76 48 -93 73 -102
26 -9 38 -7 73 11 24 12 52 35 63 50 20 27 20 29 2 75 -59 150 -138 404 -160
513 -108 531 -58 1085 140 1567 19 45 34 89 34 97 0 23 -51 73 -90 89 -25 9
-43 11 -63 4z"/>
<path d="M6167 7909 c-16 -12 -64 -95 -120 -207 -362 -725 -358 -1273 14
-2003 80 -157 112 -199 152 -199 36 0 104 47 116 81 10 28 5 42 -48 153 -162
335 -226 611 -225 981 0 372 63 647 225 981 53 111 58 125 48 153 -12 34 -80
81 -116 81 -11 0 -32 -9 -46 -21z"/>
<path d="M10248 7905 c-40 -27 -58 -53 -58 -82 0 -9 27 -72 60 -140 102 -205
181 -474 210 -713 5 -46 10 -161 10 -255 0 -94 -5 -209 -10 -255 -29 -239
-108 -508 -210 -713 -33 -68 -60 -132 -60 -143 0 -27 24 -59 64 -83 44 -27 81
-27 110 2 31 31 206 387 251 511 88 240 127 452 127 681 0 230 -39 441 -126
681 -40 108 -228 495 -250 514 -30 24 -79 22 -118 -5z"/>
<path d="M10759 7895 c-61 -41 -63 -67 -13 -185 74 -177 138 -421 170 -660 26
-187 24 -520 -5 -709 -35 -231 -93 -450 -165 -621 -51 -119 -48 -149 20 -191
47 -29 93 -27 120 4 30 35 143 306 198 475 167 512 166 917 -4 1426 -58 172
-162 423 -192 461 -26 34 -80 34 -129 0z"/>
<path d="M6546 7649 c-40 -47 -171 -322 -215 -450 -66 -194 -84 -300 -84 -484
0 -185 18 -291 85 -484 43 -127 175 -405 215 -452 30 -36 69 -38 123 -8 36 20
60 54 60 83 0 7 -22 60 -49 117 -222 475 -222 1013 0 1488 27 57 49 110 49
117 0 29 -24 63 -60 83 -55 30 -93 28 -124 -10z"/>
<path d="M9842 7650 c-36 -26 -42 -36 -42 -65 0 -20 14 -63 31 -97 237 -469
237 -1077 0 -1546 -17 -34 -31 -77 -31 -97 0 -29 6 -39 42 -65 47 -34 95 -39
126 -12 29 24 141 244 196 382 184 468 153 861 -111 1370 -35 69 -73 133 -85
143 -31 26 -79 21 -126 -13z"/>
<path d="M4350 4510 c-19 -19 -20 -33 -20 -513 0 -577 -7 -537 99 -537 102 0
101 -2 101 217 0 233 -15 217 207 217 150 0 167 -2 179 -19 11 -14 14 -62 14
-197 0 -215 1 -218 103 -218 105 0 97 -42 97 538 l0 501 -22 15 c-34 24 -133
21 -158 -4 -19 -19 -20 -33 -20 -204 0 -155 -2 -186 -16 -197 -11 -9 -60 -13
-186 -13 -155 0 -172 2 -184 19 -11 14 -14 63 -14 201 0 178 -1 183 -22 198
-34 24 -133 21 -158 -4z"/>
<path d="M5630 4515 c-149 -42 -262 -164 -290 -314 -5 -29 -10 -199 -10 -377
0 -381 -5 -364 103 -364 102 0 97 -19 97 361 0 206 4 338 11 364 7 23 28 57
53 81 72 72 175 82 255 24 76 -56 75 -51 81 -448 6 -408 -2 -382 106 -382 101
0 95 -26 92 404 l-3 371 -32 66 c-84 170 -286 263 -463 214z"/>
<path d="M6630 4514 c-74 -20 -126 -52 -184 -113 -59 -64 -95 -141 -107 -231
-6 -37 -9 -206 -7 -375 3 -355 -3 -335 104 -335 82 0 94 12 95 93 0 78 16 124
52 151 24 17 48 22 140 26 99 5 121 10 180 37 205 97 290 340 187 542 -86 169
-276 254 -460 205z m163 -195 c21 -6 56 -26 78 -46 95 -86 81 -238 -29 -314
-32 -22 -48 -24 -157 -27 -146 -4 -148 -3 -153 103 -6 106 12 175 56 225 55
61 125 81 205 59z"/>
<path d="M7646 4520 c-111 -28 -225 -123 -274 -228 l-27 -57 -3 -369 c-3 -431
-9 -406 95 -406 90 0 103 15 103 118 0 122 35 152 179 152 185 0 328 94 392
257 31 79 32 206 2 280 -44 109 -136 201 -243 238 -56 20 -172 28 -224 15z
m149 -201 c77 -22 145 -115 145 -199 0 -48 -46 -127 -91 -157 -39 -26 -51 -28
-159 -31 -153 -5 -150 -7 -150 139 0 126 15 169 74 214 57 43 110 53 181 34z"/>
<path d="M8300 4510 c-11 -11 -20 -27 -20 -36 0 -8 38 -80 85 -158 110 -185
161 -294 180 -381 9 -40 18 -150 22 -254 7 -221 8 -221 106 -221 92 0 93 2
101 195 13 298 35 372 186 625 55 93 100 180 100 193 0 41 -29 57 -101 57 -36
0 -73 -6 -82 -12 -10 -7 -50 -64 -90 -127 -39 -63 -79 -118 -88 -124 -36 -23
-63 0 -138 118 -40 64 -80 123 -88 131 -10 9 -37 14 -84 14 -56 0 -73 -4 -89
-20z"/>
<path d="M9327 4512 c-15 -17 -17 -66 -17 -500 l0 -482 29 -32 29 -33 217 -3
c261 -4 255 -6 255 98 0 97 -5 100 -167 100 -113 0 -132 2 -146 18 -15 17 -17
60 -17 415 0 465 7 437 -103 437 -49 0 -68 -4 -80 -18z"/>
<path d="M10060 4510 c-19 -19 -20 -33 -20 -515 0 -577 -8 -535 103 -535 105
0 97 -42 97 538 l0 501 -22 15 c-34 24 -133 21 -158 -4z"/>
<path d="M10460 4510 c-19 -19 -20 -33 -20 -515 0 -577 -8 -535 103 -535 102
0 97 -19 97 361 0 206 4 338 11 364 15 52 82 119 136 135 56 17 122 6 172 -30
76 -56 75 -51 81 -448 6 -408 -1 -382 105 -382 102 0 96 -24 93 407 l-3 368
-32 66 c-84 169 -279 261 -453 214 -79 -22 -106 -22 -129 -1 -27 25 -135 22
-161 -4z"/>
<path d="M11466 4514 c-9 -8 -18 -25 -21 -37 -3 -12 -4 -239 -3 -505 3 -557
-6 -512 104 -512 44 0 67 5 78 16 14 14 16 74 16 518 0 580 8 536 -98 536 -42
0 -65 -5 -76 -16z"/>
<path d="M12017 4518 c-19 -15 -249 -410 -265 -458 -15 -42 -15 -88 0 -130 11
-34 234 -427 258 -455 9 -11 32 -15 86 -15 80 0 104 13 104 55 0 13 -56 121
-125 241 -69 119 -125 227 -125 239 0 12 56 119 125 238 69 119 125 227 125
240 0 41 -29 57 -101 57 -37 0 -72 -5 -82 -12z"/>
</g>
</svg>
