Ниже приведён исходный SVG-код, отформатированный с отступами и переводами строк для удобства чтения (без изменений содержимого и атрибутов):

<svg
    xmlns="http://www.w3.org/2000/svg"
    xmlns:xlink="http://www.w3.org/1999/xlink"
    preserveAspectRatio="xMidYMid meet"
    width="512"
    height="512"
    viewBox="0 0 512 512"
    style="width:100%;height:100%"
>
    <defs>
        <animateTransform
            repeatCount="indefinite"
            dur="5s"
            begin="0s"
            xlink:href="#_R_G_L_9_G"
            fill="freeze"
            attributeName="transform"
            from="1 1"
            to="1 1"
            type="scale"
            additive="sum"
            keyTimes="0;0.3;0.35;0.4;1"
            values="1 1;1 1;1.1 1.1;1 1;1 1"
            keySplines="0.333 0 0.667 1;0.333 0 0.667 1;0.333 0 0.667 1;0 0 0 0"
            calcMode="spline"
        />
        <animateTransform
            repeatCount="indefinite"
            dur="5s"
            begin="0s"
            xlink:href="#_R_G_L_9_G"
            fill="freeze"
            attributeName="transform"
            from="-539.697 -443.238"
            to="-539.697 -443.238"
            type="translate"
            additive="sum"
            keyTimes="0;1"
            values="-539.697 -443.238;-539.697 -443.238"
            keySplines="0 0 1 1"
            calcMode="spline"
        />
        <animateTransform
            repeatCount="indefinite"
            dur="5s"
            begin="0s"
            xlink:href="#_R_G_L_8_G"
            fill="freeze"
            attributeName="transform"
            from="1 1"
            to="1 1"
            type="scale"
            additive="sum"
            keyTimes="0;0.23;0.28;0.33;1"
            values="1 1;1 1;1.1 1.1;1 1;1 1"
            keySplines="0.333 0 0.667 1;0.333 0 0.667 1;0.333 0 0.667 1;0 0 0 0"
            calcMode="spline"
        />
        <animateTransform
            repeatCount="indefinite"
            dur="5s"
            begin="0s"
            xlink:href="#_R_G_L_8_G"
            fill="freeze"
            attributeName="transform"
            from="-539.697 -484.133"
            to="-539.697 -484.133"
            type="translate"
            additive="sum"
            keyTimes="0;1"
            values="-539.697 -484.133;-539.697 -484.133"
            keySplines="0 0 1 1"
            calcMode="spline"
        />
        <animateTransform
            repeatCount="indefinite"
            dur="5s"
            begin="0s"
            xlink:href="#_R_G_L_7_G"
            fill="freeze"
            attributeName="transform"
            from="1 1"
            to="1 1"
            type="scale"
            additive="sum"
            keyTimes="0;0.16;0.21;0.26;1"
            values="1 1;1 1;1.1 1.1;1 1;1 1"
            keySplines="0.333 0 0.667 1;0.333 0 0.667 1;0.333 0 0.667 1;0 0 0 0"
            calcMode="spline"
        />
        <animateTransform
            repeatCount="indefinite"
            dur="5s"
            begin="0s"
            xlink:href="#_R_G_L_7_G"
            fill="freeze"
            attributeName="transform"
            from="-539.697 -525.413"
            to="-539.697 -525.413"
            type="translate"
            additive="sum"
            keyTimes="0;1"
            values="-539.697 -525.413;-539.697 -525.413"
            keySplines="0 0 1 1"
            calcMode="spline"
        />
        <animateTransform
            repeatCount="indefinite"
            dur="5s"
            begin="0s"
            xlink:href="#_R_G_L_6_G"
            fill="freeze"
            attributeName="transform"
            from="1 1"
            to="1 1"
            type="scale"
            additive="sum"
            keyTimes="0;0.09;0.14;0.19;1"
            values="1 1;1 1;1.1 1.1;1 1;1 1"
            keySplines="0.333 0 0.667 1;0.333 0 0.667 1;0.333 0 0.667 1;0 0 0 0"
            calcMode="spline"
        />
        <animateTransform
            repeatCount="indefinite"
            dur="5s"
            begin="0s"
            xlink:href="#_R_G_L_6_G"
            fill="freeze"
            attributeName="transform"
            from="-539.697 -566.308"
            to="-539.697 -566.308"
            type="translate"
            additive="sum"
            keyTimes="0;1"
            values="-539.697 -566.308;-539.697 -566.308"
            keySplines="0 0 1 1"
            calcMode="spline"
        />
        <animateTransform
            repeatCount="indefinite"
            dur="5s"
            begin="0s"
            xlink:href="#_R_G_L_5_G"
            fill="freeze"
            attributeName="transform"
            from="1 1"
            to="1 1"
            type="scale"
            additive="sum"
            keyTimes="0;0.02;0.07;0.12;1"
            values="1 1;1 1;1.1 1.1;1 1;1 1"
            keySplines="0.333 0 0.667 1;0.333 0 0.667 1;0.333 0 0.667 1;0 0 0 0"
            calcMode="spline"
        />
        <animateTransform
            repeatCount="indefinite"
            dur="5s"
            begin="0s"
            xlink:href="#_R_G_L_5_G"
            fill="freeze"
            attributeName="transform"
            from="-539.697 -607.202"
            to="-539.697 -607.202"
            type="translate"
            additive="sum"
            keyTimes="0;1"
            values="-539.697 -607.202;-539.697 -607.202"
            keySplines="0 0 1 1"
            calcMode="spline"
        />
        <animate
            repeatCount="indefinite"
            dur="5s"
            begin="0s"
            xlink:href="#_R_G_L_4_G_D_1_P_0"
            fill="freeze"
            attributeName="fill"
            from="#79ce3a"
            to="#79ce3a"
            keyTimes="0;0.28;0.29;0.3;0.31;0.32;0.33;0.34;0.35;0.36;0.37;0.38;0.39;0.4;0.41;0.42;0.43;0.44;0.45;0.46;0.47;0.48;0.49;0.5;0.51;0.52;0.53;0.54;0.55;0.56;0.57;0.58;0.59;0.6;0.61;0.62;0.63;0.64;0.65;0.66;0.67;0.68;0.69;0.7;0.71;0.72;0.73;0.74;0.75;0.76;0.77;0.78;0.79;0.8;0.81;0.82;0.83;0.84;0.85;0.86;0.87;0.88;0.89;0.9;0.91;0.92;0.93;0.94;0.95;0.96;0.97;0.98;0.99;1"
            values="#79ce3a;#79ce3a;#73ce3a;#6dce3a;#67ce3a;#61ce3a;#61ce3a;#61ce3a;#61ce3a;#61ce3a;#61ce3a;#61ce3a;#61ce3a;#61ce3a;#61ce3a;#61ce3a;#61ce3a;#61ce3a;#61ce3a;#61ce3a;#61ce3a;#61ce3a;#61ce3a;#61ce3a;#61ce3a;#61ce3a;#61ce3a;#61ce3a;#61ce3a;#61ce3a;#61ce3a;#61ce3a;#61ce3a;#61ce3a;#61ce3a;#61ce3a;#61ce3a;#61ce3a;#61ce3a;#61ce3a;#61ce3a;#61ce3a;#61ce3a;#61ce3a;#61ce3a;#61ce3a;#61ce3a;#61ce3a;#61ce3a;#61ce3a;#61ce3a;#61ce3a;#61ce3a;#61ce3a;#61ce3a;#61ce3a;#61ce3a;#61ce3a;#61ce3a;#61ce3a;#61ce3a;#61ce3a;#61ce3a;#61ce3a;#61ce3a;#61ce3a;#61ce3a;#61ce3a;#61ce3a;#61ce3a;#61ce3a;#61ce3a;#61ce3a;#61ce3a"
            keySplines="0.167 0 0.833 1;0.167 0 0.833 1;0.167 0 0.833 1;0.167 0 0.833 1;0.167 0 0.833 1;0.167 0.503 0.833 1;0.167 0 0.833 1;0.167 0 0.833 1;0.167 0 0.833 1;0.167 0 0.833 1;0.167 0 0.833 1;0.167 0 0.833 1;0.167 0 0.833 1;0.167 0 0.833 1;0.167 0 0.833 1;0.167 0 0.833 1;0.167 0 0.833 1;0.167 0 0.833 1;0.167 0 0.833 1;0.167 0 0.833 1;0.167 0 0.833 1;0.167 0 0.833 1;0.167 0 0.833 1;0.167 0 0.833 1;0.167 0 0.833 1;0.167 0 0.833 1;0.167 0 0.833 1;0.167 0 0.833 1;0.167 0 0.833 1;0.167 0 0.833 1;0.167 0 0.833 1;0.167 0 0.833 1;0.167 0 0.833 1;0.167 0 0.833 1;0.167 0 0.833 1;0.167 0 0.833 1;0.167 0 0.833 1;0.167 0 0.833 1;0.167 0 0.833 1;0.167 0 0.833 1;0.167 0 0.833 1;0.167 0 0.833 1;0.167 0 0.833 1;0.167 0 0.833 1;0.167 0 0.833 1;0.167 0 0.833 1;0.167 0 0.833 1;0.167 0 0.833 1;0.167 0 0.833 1;0.167 0 0.833 1;0.167 0 0.833 1;0.167 0 0.833 1;0.167 0 0.833 1;0.167 0 0.833 1;0.167 0 0.833 1;0.167 0 0.833 1;0.167 0 0.833 1;0.167 0 0.833 1;0.167 0 0.833 1;0.167 0 0.833 1;0.167 0 0.833 1;0.167 0 0.833 1;0.167 0 0.833 1;0.167 0 0.833 1;0.167 0 0.833 1;0.167 0 0.833 1;0.167 0 0.833 1;0.167 0 0.833 1;0.167 0 0.833 1;0.167 0 0.833 1;0.167 0 0.833 1;0.167 0 0.833 1;0.167 0 0.833 1;0.167 0 0.833 1"
            calcMode="spline"
        />
        <animateTransform
            repeatCount="indefinite"
            dur="5s"
            begin="0s"
            xlink:href="#_R_G_L_4_G"
            fill="freeze"
            attributeName="transform"
            from="1 0"
            to="1 1"
            type="scale"
            additive="sum"
            keyTimes="0;0.28;0.35;1"
            values="1 0;1 0;1 1;1 1"
            keySplines="0.333 0 0.667 1;0.333 0 0.667 1;0 0 0 0"
            calcMode="spline"
        />
        <animateTransform
            repeatCount="indefinite"
            dur="5s"
            begin="0s"
            xlink:href="#_R_G_L_4_G"
            fill="freeze"
            attributeName="transform"
            from="-539.697 -460.766"
            to="-539.697 -460.766"
            type="translate"
            additive="sum"
            keyTimes="0;1"
            values="-539.697 -460.766;-539.697 -460.766"
            keySplines="0 0 1 1"
            calcMode="spline"
        />
        <animateTransform
            repeatCount="indefinite"
            dur="5s"
            begin="0s"
            xlink:href="#_R_G_L_4_G_N_11_T_0"
            fill="freeze"
            attributeName="transform"
            from="1 1"
            to="1 1"
            type="scale"
            additive="sum"
            keyTimes="0;0.3;0.35;0.4;1"
            values="1 1;1 1;1.1 1.1;1 1;1 1"
            keySplines="0.333 0 0.667 1;0.333 0 0.667 1;0.333 0 0.667 1;0 0 0 0"
            calcMode="spline"
        />
        <animateTransform
            repeatCount="indefinite"
            dur="5s"
            begin="0s"
            xlink:href="#_R_G_L_4_G_N_11_T_0"
            fill="freeze"
            attributeName="transform"
            from="-539.697 -443.238"
            to="-539.697 -443.238"
            type="translate"
            additive="sum"
            keyTimes="0;1"
            values="-539.697 -443.238;-539.697 -443.238"
            keySplines="0 0 1 1"
            calcMode="spline"
        />
        <animate
            repeatCount="indefinite"
            dur="5s"
            begin="0s"
            xlink:href="#_R_G_L_4_G_N_11_T_0_M"
            fill="freeze"
            attributeName="opacity"
            from="0"
            to="1"
            keyTimes="0;0.28;0.280001;1"
            values="0;0;1;1"
            keySplines="0 0 0 0;0 0 0 0;0 0 0 0"
            calcMode="spline"
        />
        <animate
            repeatCount="indefinite"
            dur="5s"
            begin="0s"
            xlink:href="#_R_G_L_3_G_D_1_P_0"
            fill="freeze"
            attributeName="fill"
            from="#a3ce3a"
            to="#a3ce3a"
            keyTimes="0;0.21;0.22;0.23;0.24;0.25;0.26;0.27;0.28;0.29;0.3;0.31;0.32;0.33;0.34;0.35;0.36;0.37;0.38;0.39;0.4;0.41;0.42;0.43;0.44;0.45;0.46;0.47;0.48;0.49;0.5;0.51;0.52;0.53;0.54;0.55;0.56;0.57;0.58;0.59;0.6;0.61;0.62;0.63;0.64;0.65;0.66;0.67;0.68;0.69;0.7;0.71;0.72;0.73;0.74;0.75;0.76;0.77;0.78;0.79;0.8;0.81;0.82;0.83;0.84;0.85;0.86;0.87;0.88;0.89;0.9;0.91;0.92;0.93;0.94;0.95;0.96;0.97;0.98;0.99;1"
            values="#a3ce3a;#a3ce3a;#9dce3a;#97ce3a;#91ce3a;#8bce3a;#85ce3a;#7fce3a;#79ce3a;#73ce3a;#6dce3a;#67ce3a;#61ce3a;#61ce3a;#61ce3a;#61ce3a;#61ce3a;#61ce3a;#61ce3a;#61ce3a;#61ce3a;#61ce3a;#61ce3a;#61ce3a;#61ce3a;#61ce3a;#61ce3a;#61ce3a;#61ce3a;#61ce3a;#61ce3a;#61ce3a;#61ce3a;#61ce3a;#61ce3a;#61ce3a;#61ce3a;#61ce3a;#61ce3a;#61ce3a;#61ce3a;#61ce3a;#61ce3a;#61ce3a;#61ce3a;#61ce3a;#61ce3a;#61ce3a;#61ce3a;#61ce3a;#61ce3a;#61ce3a;#61ce3a;#61ce3a;#61ce3a;#61ce3a;#61ce3a;#61ce3a;#61ce3a;#61ce3a;#61ce3a;#61ce3a;#61ce3a;#61ce3a;#61ce3a;#61ce3a;#61ce3a;#61ce3a;#61ce3a;#61ce3a;#61ce3a;#61ce3a;#61ce3a;#61ce3a;#61ce3a;#61ce3a;#61ce3a;#61ce3a;#61ce3a;#61ce3a;#61ce3a"
            keySplines="0.167 0 0.833 1;0.167 0 0.833 1;0.167 0 0.833 1;0.167 0 0.833 1;0.167 0 0.833 1;0.167 0 0.833 1;0.167 0 0.833 1;0.167 0 0.833 1;0.167 0 0.833 1;0.167 0 0.833 1;0.167 0 0.833 1;0.167 0 0.833 1;0.167 0 0.503 0.833 1;0.167 0 0.833 1;0.167 0 0.833 1;0.167 0 0.833 1;0.167 0 0.833 1;0.167 0 0.833 1;0.167 0 0.833 1;0.167 0 0.833 1;0.167 0 0.833 1;0.167 0 0.833 1;0.167 0 0.833 1;0.167 0 0.833 1;0.167 0 0.833 1;0.167 0 0.833 1;0.167 0 0.833 1;0.167 0 0.833 1;0.167 0 0.833 1;0.167 0 0.833 1;0.167 0 0.833 1;0.167 0 0.833 1;0.167 0 0.833 1;0.167 0 0.833 1;0.167 0 0.833 1;0.167 0 0.833 1;0.167 0 0.833 1;0.167 0 0.833 1;0.167 0 0.833 1;0.167 0 0.833 1;0.167 0 0.833 1;0.167 0 0.833 1;0.167 0 0.833 1;0.167 0 0.833 1;0.167 0 0.833 1;0.167 0 0.833 1;0.167 0 0.833 1;0.167 0 0.833 1;0.167 0 0.833 1;0.167 0 0.833 1;0.167 0 0.833 1;0.167 0 0.833 1;0.167 0 0.833 1;0.167 0 0.833 1;0.167 0 0.833 1;0.167 0 0.833 1;0.167 0 0.833 1;0.167 0 0.833 1;0.167 0 0.833 1;0.167 0 0.833 1;0.167 0 0.833 1;0.167 0 0.833 1;0.167 0 0.833 1;0.167 0 0.833 1;0.167 0 0.833 1;0.167 0 0.833 1;0.167 0 0.833 1;0.167 0 0.833 1;0.167 0 0.833 1;0.167 0 0.833 1;0.167 0 0.833 1;0.167 0 0.833 1;0.167 0 0.833 1"
            calcMode="spline"
        />
        <animateTransform
            repeatCount="indefinite"
            dur="5s"
            begin="0s"
            xlink:href="#_R_G_L_3_G"
            fill="freeze"
            attributeName="transform"
            from="1 0"
            to="1 1"
            type="scale"
            additive="sum"
            keyTimes="0;0.21;0.28;1"
            values="1 0;1 0;1 1;1 1"
            keySplines="0.333 0 0.667 1;0.333 0 0.667 1;0 0 0 0"
            calcMode="spline"
        />
        <animateTransform
            repeatCount="indefinite"
            dur="5s"
            begin="0s"
            xlink:href="#_R_G_L_3_G"
            fill="freeze"
            attributeName="transform"
            from="-539.697 -501.661"
            to="-539.697 -501.661"
            type="translate"
            additive="sum"
            keyTimes="0;1"
            values="-539.697 -501.661;-539.697 -501.661"
            keySplines="0 0 1 1"
            calcMode="spline"
        />
        <animateTransform
            repeatCount="indefinite"
            dur="5s"
            begin="0s"
            xlink:href="#_R_G_L_3_G_N_10_T_0"
            fill="freeze"
            attributeName="transform"
            from="1 1"
            to="1 1"
            type="scale"
            additive="sum"
            keyTimes="0;0.23;0.28;0.33;1"
            values="1 1;1 1;1.1 1.1;1 1;1 1"
            keySplines="0.333 0 0.667 1;0.333 0 0.667 1;0.333 0 0.667 1;0 0 0 0"
            calcMode="spline"
        />
        <animateTransform
            repeatCount="indefinite"
            dur="5s"
            begin="0s"
            xlink:href="#_R_G_L_3_G_N_10_T_0"
            fill="freeze"
            attributeName="transform"
            from="-539.697 -484.133"
            to="-539.697 -484.133"
            type="translate"
            additive="sum"
            keyTimes="0;1"
            values="-539.697 -484.133;-539.697 -484.133"
            keySplines="0 0 1 1"
            calcMode="spline"
        />
        <animate
            repeatCount="indefinite"
            dur="5s"
            begin="0s"
            xlink:href="#_R_G_L_3_G_N_10_T_0_M"
            fill="freeze"
            attributeName="opacity"
            from="0"
            to="1"
            keyTimes="0;0.21;0.210001;1"
            values="0;0;1;1"
            keySplines="0 0 0 0;0 0 0 0;0 0 0 0"
            calcMode="spline"
        />
        <animate
            repeatCount="indefinite"
            dur="5s"
            begin="0s"
            xlink:href="#_R_G_L_2_G_D_1_P_0"
            fill="freeze"
            attributeName="fill"
            from="#cece3a"
            to="#cece3a"
            keyTimes="0;0.14;0.15;0.16;0.17;0.18;0.19;0.2;0.21;0.22;0.23;0.24;0.25;0.26;0.27;0.28;0.29;0.3;0.31;0.32;0.33;0.34;0.35;0.36;0.37;0.38;0.39;0.4;0.41;0.42;0.43;0.44;0.45;0.46;0.47;0.48;0.49;0.5;0.51;0.52;0.53;0.54;0.55;0.56;0.57;0.58;0.59;0.6;0.61;0.62;0.63;0.64;0.65;0.66;0.67;0.68;0.69;0.7;0.71;0.72;0.73;0.74;0.75;0.76;0.77;0.78;0.79;0.8;0.81;0.82;0.83;0.84;0.85;0.86;0.87;0.88;0.89;0.9;0.91;0.92;0.93;0.94;0.95;0.96;0.97;0.98;0.99;1"
            values="#cece3a;#cece3a;#c8ce3a;#c2ce3a;#bcce3a;#b6ce3a;#afce3a;#a9ce3a;#a3ce3a;#9dce3a;#97ce3a;#91ce3a;#8bce3a;#85ce3a;#7fce3a;#79ce3a;#73ce3a;#6dce3a;#67ce3a;#61ce3a;#61ce3a;#61ce3a;#61ce3a;#61ce3a;#61ce3a;#61ce3a;#61ce3a;#61ce3a;#61ce3a;#61ce3a;#61ce3a;#61ce3a;#61ce3a;#61ce3a;#61ce3a;#61ce3a;#61ce3a;#61ce3a;#61ce3a;#61ce3a;#61ce3a;#61ce3a;#61ce3a;#61ce3a;#61ce3a;#61ce3a;#61ce3a;#61ce3a;#61ce3a;#61ce3a;#61ce3a;#61ce3a;#61ce3a;#61ce3a;#61ce3a;#61ce3a;#61ce3a;#61ce3a;#61ce3a;#61ce3a;#61ce3a;#61ce3a;#61ce3a;#61ce3a;#61ce3a;#61ce3a;#61ce3a;#61ce3a;#61ce3a;#61ce3a;#61ce3a;#61ce3a;#61ce3a;#61ce3a;#61ce3a;#61ce3a;#61ce3a;#61ce3a;#61ce3a;#61ce3a;#61ce3a;#61ce3a;#61ce3a;#61ce3a;#61ce3a;#61ce3a;#61ce3a;#61ce3a"
            keySplines="0.167 0 0.833 1;0.167 0 0.833 1;0.167 0 0.833 1;0.167 0 0.833 1;0.167 0 0.833 1;0.167 0 0.833 1;0.167 0 0.833 1;0.167 0 0.833 1;0.167 0 0.833 1;0.167 0 0.833 1;0.167 0 0.833 1;0.167 0 0.833 1;0.167 0 0.503 0.833 1;0.167 0 0.833 1;0.167 0 0.833 1;0.167 0 0.833 1;0.167 0 0.833 1;0.167 0 0.833 1;0.167 0 0.833 1;0.167 0 0.833 1;0.167 0 0.833 1;0.167 0 0.833 1;0.167 0 0.833 1;0.167 0 0.833 1;0.167 0 0.833 1;0.167 0 0.833 1;0.167 0 0.833 1;0.167 0 0.833 1;0.167 0 0.833 1;0.167 0 0.833 1;0.167 0 0.833 1;0.167 0 0.833 1;0.167 0 0.833 1;0.167 0 0.833 1;0.167 0 0.833 1;0.167 0 0.833 1;0.167 0 0.833 1;0.167 0 0.833 1;0.167 0 0.833 1;0.167 0 0.833 1;0.167 0 0.833 1;0.167 0 0.833 1;0.167 0 0.833 1;0.167 0 0.833 1;0.167 0 0.833 1;0.167 0 0.833 1;0.167 0 0.833 1;0.167 0 0.833 1;0.167 0 0.833 1;0.167 0 0.833 1;0.167 0 0.833 1;0.167 0 0.833 1;0.167 0 0.833 1;0.167 0 0.833 1;0.167 0 0.833 1;0.167 0 0.833 1;0.167 0 0.833 1;0.167 0 0.833 1;0.167 0 0.833 1;0.167 0 0.833 1;0.167 0 0.833 1;0.167 0 0.833 1;0.167 0 0.833 1;0.167 0 0.833 1;0.167 0 0.833 1;0.167 0 0.833 1;0.167 0 0.833 1;0.167 0 0.833 1;0.167 0 0.833 1;0.167 0 0.833 1;0.167 0 0.833 1;0.167 0 0.833 1;0.167 0 0.833 1;0.167 0 0.833 1"
            calcMode="spline"
        />
        <animateTransform
            repeatCount="indefinite"
            dur="5s"
            begin="0s"
            xlink:href="#_R_G_L_2_G"
            fill="freeze"
            attributeName="transform"
            from="1 0"
            to="1 1"
            type="scale"
            additive="sum"
            keyTimes="0;0.14;0.21;1"
            values="1 0;1 0;1 1;1 1"
            keySplines="0.333 0 0.667 1;0.333 0 0.667 1;0 0 0 0"
            calcMode="spline"
        />
        <animateTransform
            repeatCount="indefinite"
            dur="5s"
            begin="0s"
            xlink:href="#_R_G_L_2_G"
            fill="freeze"
            attributeName="transform"
            from="-539.697 -542.942"
            to="-539.697 -542.942"
            type="translate"
            additive="sum"
            keyTimes="0;1"
            values="-539.697 -542.942;-539.697 -542.942"
            keySplines="0 0 1 1"
            calcMode="spline"
        />
        <animateTransform
            repeatCount="indefinite"
            dur="5s"
            begin="0s"
            xlink:href="#_R_G_L_2_G_N_9_T_0"
            fill="freeze"
            attributeName="transform"
            from="1 1"
            to="1 1"
            type="scale"
            additive="sum"
            keyTimes="0;0.16;0.21;0.26;1"
            values="1 1;1 1;1.1 1.1;1 1;1 1"
            keySplines="0.333 0 0.667 1;0.333 0 0.667 1;0.333 0 0.667 1;0 0 0 0"
            calcMode="spline"
        />
        <animateTransform
            repeatCount="indefinite"
            dur="5s"
            begin="0s"
            xlink:href="#_R_G_L_2_G_N_9_T_0"
            fill="freeze"
            attributeName="transform"
            from="-539.697 -525.413"
            to="-539.697 -525.413"
            type="translate"
            additive="sum"
            keyTimes="0;1"
            values="-539.697 -525.413;-539.697 -525.413"
            keySplines="0 0 1 1"
            calcMode="spline"
        />
        <animate
            repeatCount="indefinite"
            dur="5s"
            begin="0s"
            xlink:href="#_R_G_L_2_G_N_9_T_0_M"
            fill="freeze"
            attributeName="opacity"
            from="0"
            to="1"
            keyTimes="0;0.14;0.140001;1"
            values="0;0;1;1"
            keySplines="0 0 0 0;0 0 0 0;0 0 0 0"
            calcMode="spline"
        />
        <animate
            repeatCount="indefinite"
            dur="5s"
            begin="0s"
            xlink:href="#_R_G_L_1_G_D_1_P_0"
            fill="freeze"
            attributeName="fill"
            from="#ce843a"
            to="#ce843a"
            keyTimes="0;0.07;0.08;0.09;0.1;0.11;0.12;0.13;0.14;0.15;0.16;0.17;0.18;0.19;0.2;0.21;0.22;0.23;0.24;0.25;0.26;0.27;0.28;0.29;0.3;0.31;0.32;0.33;0.34;0.35;0.36;0.37;0.38;0.39;0.4;0.41;0.42;0.43;0.44;0.45;0.46;0.47;0.48;0.49;0.5;0.51;0.52;0.53;0.54;0.55;0.56;0.57;0.58;0.59;0.6;0.61;0.62;0.63;0.64;0.65;0.66;0.67;0.68;0.69;0.7;0.71;0.72;0.73;0.74;0.75;0.76;0.77;0.78;0.79;0.8;0.81;0.82;0.83;0.84;0.85;0.86;0.87;0.88;0.89;0.9;0.91;0.92;0.93;0.94;0.95;0.96;0.97;0.98;0.99;1"
            values="#ce843a;#ce843a;#ce8f3a;#ce993a;#cea43a;#ceae3a;#ceb93a;#cec33a;#cece3a;#c8ce3a;#c2ce3a;#bcce3a;#b6ce3a;#afce3a;#a9ce3a;#a3ce3a;#9dce3a;#97ce3a;#91ce3a;#8bce3a;#85ce3a;#7fce3a;#79ce3a;#73ce3a;#6dce3a;#67ce3a;#61ce3a;#61ce3a;#61ce3a;#61ce3a;#61ce3a;#61ce3a;#61ce3a;#61ce3a;#61ce3a;#61ce3a;#61ce3a;#61ce3a;#61ce3a;#61ce3a;#61ce3a;#61ce3a;#61ce3a;#61ce3a;#61ce3a;#61ce3a;#61ce3a;#61ce3a;#61ce3a;#61ce3a;#61ce3a;#61ce3a;#61ce3a;#61ce3a;#61ce3a;#61ce3a;#61ce3a;#61ce3a;#61ce3a;#61ce3a;#61ce3a;#61ce3a;#61ce3a;#61ce3a;#61ce3a;#61ce3a;#61ce3a;#61ce3a;#61ce3a;#61ce3a;#61ce3a;#61ce3a;#61ce3a;#61ce3a;#61ce3a;#61ce3a;#61ce3a;#61ce3a;#61ce3a;#61ce3a;#61ce3a;#61ce3a;#61ce3a;#61ce3a;#61ce3a;#61ce3a;#61ce3a;#61ce3a;#61ce3a;#61ce3a;#61ce3a;#61ce3a;#61ce3a;#61ce3a;#61ce3a"
            keySplines="0.167 0 0.833 1;0.167 0 0.833 1;0.167 0 0.833 1;0.167 0 0.833 1;0.167 0 0.833 1;0.167 0 0.833 1;0.167 0 0.833 1;0.167 0 0.833 1;0.167 0 0.833 1;0.167 0 0.833 1;0.167 0 0.833 1;0.167 0 0.833 1;0.167 0 0.503 0.833 1;0.167 0 0.833 1;0.167 0 0.833 1;0.167 0 0.833 1;0.167 0 0.833 1;0.167 0 0.833 1;0.167 0 0.833 1;0.167 0 0.833 1;0.167 0 0.833 1;0.167 0 0.833 1;0.167 0 0.833 1;0.167 0 0.833 1;0.167 0 0.833 1;0.167 0 0.833 1;0.167 0 0.833 1;0.167 0 0.833 1;0.167 0 0.833 1;0.167 0 0.833 1;0.167 0 0.833 1;0.167 0 0.833 1;0.167 0 0.833 1;0.167 0 0.833 1;0.167 0 0.833 1;0.167 0 0.833 1;0.167 0 0.833 1;0.167 0 0.833 1;0.167 0 0.833 1;0.167 0 0.833 1;0.167 0 0.833 1;0.167 0 0.833 1;0.167 0 0.833 1;0.167 0 0.833 1;0.167 0 0.833 1;0.167 0 0.833 1;0.167 0 0.833 1;0.167 0 0.833 1;0.167 0 0.833 1;0.167 0 0.833 1;0.167 0 0.833 1;0.167 0 0.833 1;0.167 0 0.833 1;0.167 0 0.833 1;0.167 0 0.833 1;0.167 0 0.833 1;0.167 0 0.833 1;0.167 0 0.833 1;0.167 0 0.833 1;0.167 0 0.833 1;0.167 0 0.833 1;0.167 0 0.833 1;0.167 0 0.833 1;0.167 0 0.833 1;0.167 0 0.833 1;0.167 0 0.833 1;0.167 0 0.833 1;0.167 0 0.833 1;0.167 0 0.833 1;0.167 0 0.833 1;0.167 0 0.833 1;0.167 0 0.833 1;0.167 0 0.833 1;0.167 0 0.833 1;0.167 0 0.833 1"
            calcMode="spline"
        />
        <animateTransform
            repeatCount="indefinite"
            dur="5s"
            begin="0s"
            xlink:href="#_R_G_L_1_G"
            fill="freeze"
            attributeName="transform"
            from="1 0"
            to="1 1"
            type="scale"
            additive="sum"
            keyTimes="0;0.07;0.14;1"
            values="1 0;1 0;1 1;1 1"
            keySplines="0.333 0 0.667 1;0.333 0 0.667 1;0 0 0 0"
            calcMode="spline"
        />
        <animateTransform
            repeatCount="indefinite"
            dur="5s"
            begin="0s"
            xlink:href="#_R_G_L_1_G"
            fill="freeze"
            attributeName="transform"
            from="-539.697 -583.837"
            to="-539.697 -583.837"
            type="translate"
            additive="sum"
            keyTimes="0;1"
            values="-539.697 -583.837;-539.697 -583.837"
            keySplines="0 0 1 1"
            calcMode="spline"
        />
        <animateTransform
            repeatCount="indefinite"
            dur="5s"
            begin="0s"
            xlink:href="#_R_G_L_1_G_N_8_T_0"
            fill="freeze"
            attributeName="transform"
            from="1 1"
            to="1 1"
            type="scale"
            additive="sum"
            keyTimes="0;0.09;0.14;0.19;1"
            values="1 1;1 1;1.1 1.1;1 1;1 1"
            keySplines="0.333 0 0.667 1;0.333 0 0.667 1;0.333 0 0.667 1;0 0 0 0"
            calcMode="spline"
        />
        <animateTransform
            repeatCount="indefinite"
            dur="5s"
            begin="0s"
            xlink:href="#_R_G_L_1_G_N_8_T_0"
            fill="freeze"
            attributeName="transform"
            from="-539.697 -566.308"
            to="-539.697 -566.308"
            type="translate"
            additive="sum"
            keyTimes="0;1"
            values="-539.697 -566.308;-539.697 -566.308"
            keySplines="0 0 1 1"
            calcMode="spline"
        />
        <animate
            repeatCount="indefinite"
            dur="5s"
            begin="0s"
            xlink:href="#_R_G_L_1_G_N_8_T_0_M"
            fill="freeze"
            attributeName="opacity"
            from="0"
            to="1"
            keyTimes="0;0.07;0.070001;1"
            values="0;0;1;1"
            keySplines="0 0 0 0;0 0 0 0;0 0 0 0"
            calcMode="spline"
        />
        <animate
            repeatCount="indefinite"
            dur="5s"
            begin="0s"
            xlink:href="#_R_G_L_0_G_D_0_P_0"
            fill="freeze"
            attributeName="fill"
            from="#ce3a3a"
            to="#ce3a3a"
            keyTimes="0;0.01;0.02;0.03;0.04;0.05;0.06;0.07;0.08;0.09;0.1;0.11;0.12;0.13;0.14;0.15;0.16;0.17;0.18;0.19;0.2;0.21;0.22;0.23;0.24;0.25;0.26;0.27;0.28;0.29;0.3;0.31;0.32;0.33;0.34;0.35;0.36;0.37;0.38;0.39;0.4;0.41;0.42;0.43;0.44;0.45;0.46;0.47;0.48;0.49;0.5;0.51;0.52;0.53;0.54;0.55;0.56;0.57;0.58;0.59;0.6;0.61;0.62;0.63;0.64;0.65;0.66;0.67;0.68;0.69;0.7;0.71;0.72;0.73;0.74;0.75;0.76;0.77;0.78;0.79;0.8;0.81;0.82;0.83;0.84;0.85;0.86;0.87;0.88;0.89;0.9;0.91;0.92;0.93;0.94;0.95;0.96;0.97;0.98;0.99;1"
            values="#ce3a3a;#ce453a;#ce4f3a;#ce5a3a;#ce643a;#ce6f3a;#ce793a;#ce843a;#ce8f3a;#ce993a;#cea43a;#ceae3a;#ceb93a;#cec33a;#cece3a;#c8ce3a;#c2ce3a;#bcce3a;#b6ce3a;#afce3a;#a9ce3a;#a3ce3a;#9dce3a;#97ce3a;#91ce3a;#8bce3a;#85ce3a;#7fce3a;#79ce3a;#73ce3a;#6dce3a;#67ce3a;#61ce3a;#61ce3a;#61ce3a;#61ce3a;#61ce3a;#61ce3a;#61ce3a;#61ce3a;#61ce3a;#61ce3a;#61ce3a;#61ce3a;#61ce3a;#61ce3a;#61ce3a;#61ce3a;#61ce3a;#61ce3a;#61ce3a;#61ce3a;#61ce3a;#61ce3a;#61ce3a;#61ce3a;#61ce3a;#61ce3a;#61ce3a;#61ce3a;#61ce3a;#61ce3a;#61ce3a;#61ce3a;#61ce3a;#61ce3a;#61ce3a;#61ce3a;#61ce3a;#61ce3a;#61ce3a;#61ce3a;#61ce3a;#61ce3a;#61ce3a;#61ce3a;#61ce3a;#61ce3a;#61ce3a;#61ce3a;#61ce3a;#61ce3a;#61ce3a;#61ce3a;#61ce3a;#61ce3a;#61ce3a;#61ce3a;#61ce3a;#61ce3a;#61ce3a;#61ce3a;#61ce3a;#61ce3a;#61ce3a"
            keySplines="0.167 0 0.833 1;0.167 0 0.833 1;0.167 0 0.833 1;0.167 0 0.833 1;0.167 0 0.833 1;0.167 0 0.833 1;0.167 0 0.833 1;0.167 0 0.833 1;0.167 0 0.833 1;0.167 0 0.833 1;0.167 0 0.833 1;0.167 0 0.833 1;0.167 0 0.833 1;0.167 0 0.833 1;0.167 0 0.833 1;0.167 0 0.833 1;0.167 0 0.833 1;0.167 0 0.833 1;0.167 0 0.833 1;0.167 0 0.833 1;0.167 0 0.833 1;0.167 0 0.833 1;0.167 0 0.833 1;0.167 0 0.833 1;0.167 0 0.833 1;0.167 0 0.833 1;0.167 0.503 0.833 1;0.167 0 0.833 1;0.167 0 0.833 1;0.167 0 0.833 1;0.167 0 0.833 1;0.167 0 0.833 1;0.167 0 0.833 1;0.167 0 0.833 1;0.167 0 0.833 1;0.167 0 0.833 1;0.167 0 0.833 1;0.167 0 0.833 1;0.167 0 0.833 1;0.167 0 0.833 1;0.167 0 0.833 1;0.167 0 0.833 1;0.167 0 0.833 1;0.167 0 0.833 1;0.167 0 0.833 1;0.167 0 0.833 1;0.167 0 0.833 1;0.167 0 0.833 1;0.167 0 0.833 1;0.167 0 0.833 1;0.167 0 0.833 1;0.167 0 0.833 1;0.167 0 0.833 1;0.167 0 0.833 1;0.167 0 0.833 1;0.167 0 0.833 1;0.167 0 0.833 1;0.167 0 0.833 1;0.167 0 0.833 1;0.167 0 0.833 1;0.167 0 0.833 1;0.167 0 0.833 1;0.167 0 0.833 1;0.167 0 0.833 1;0.167 0 0.833 1;0.167 0 0.833 1;0.167 0 0.833 1;0.167 0 0.833 1;0.167 0 0.833 1;0.167 0 0.833 1;0.167 0 0.833 1;0.167 0 0.833 1;0.167 0 0.833 1;0.167 0 0.833 1;0.167 0 0.833 1;0.167 0 0.833 1;0.167 0 0.833 1;0.167 0 0.833 1;0.167 0 0.833 1;0.167 0 0.833 1;0.167 0 0.833 1;0.167 0 0.833 1;0.167 0 0.833 1"
            calcMode="spline"
        />
        <animateTransform
            repeatCount="indefinite"
            dur="5s"
            begin="0s"
            xlink:href="#_R_G_L_0_G"
            fill="freeze"
            attributeName="transform"
            from="1 0"
            to="1 1"
            type="scale"
            additive="sum"
            keyTimes="0;0.07;1"
            values="1 0;1 1;1 1"
            keySplines="0.333 0 0.667 1;0 0 0 0"
            calcMode="spline"
        />
        <animateTransform
            repeatCount="indefinite"
            dur="5s"
            begin="0s"
            xlink:href="#_R_G_L_0_G"
            fill="freeze"
            attributeName="transform"
            from="-539.697 -624.732"
            to="-539.697 -624.732"
            type="translate"
            additive="sum"
            keyTimes="0;1"
            values="-539.697 -624.732;-539.697 -624.732"
            keySplines="0 0 1 1"
            calcMode="spline"
        />
        <animateTransform
            repeatCount="indefinite"
            dur="5s"
            begin="0s"
            xlink:href="#_R_G_L_0_G_N_7_T_0"
            fill="freeze"
            attributeName="transform"
            from="1 1"
            to="1 1"
            type="scale"
            additive="sum"
            keyTimes="0;0.02;0.07;0.12;1"
            values="1 1;1 1;1.1 1.1;1 1;1 1"
            keySplines="0.333 0 0.667 1;0.333 0 0.667 1;0.333 0 0.667 1;0 0 0 0"
            calcMode="spline"
        />
        <animateTransform
            repeatCount="indefinite"
            dur="5s"
            begin="0s"
            xlink:href="#_R_G_L_0_G_N_7_T_0"
            fill="freeze"
            attributeName="transform"
            from="-539.697 -607.202"
            to="-539.697 -607.202"
            type="translate"
            additive="sum"
            keyTimes="0;1"
            values="-539.697 -607.202;-539.697 -607.202"
            keySplines="0 0 1 1"
            calcMode="spline"
        />
        <animate
            attributeType="XML"
            attributeName="opacity"
            dur="5s"
            from="0"
            to="1"
            xlink:href="#time_group"
        />
    </defs>

    <g id="_R_G">
        <g
            id="_R_G_L_11_G"
            transform="translate(256, 256) rotate(52.2) translate(-539.373, -526.858)"
        >
            <path
                id="_R_G_L_11_G_D_0_P_0"
                fill="#2a85d3"
                fill-opacity="1"
                fill-rule="nonzero"
                d="M532.67 308.85 C533.55,308.29 534.25,307.53 534.76,306.58 C535.27,305.63 535.5,304.58 535.44,303.43 C535.39,302.26 535.07,301.24 534.48,300.36 C533.89,299.49 533.13,298.81 532.19,298.34 C531.25,297.87 530.22,297.66 529.1,297.71 C527.98,297.76 526.98,298.06 526.1,298.62 C525.22,299.17 524.54,299.91 524.04,300.83 C523.55,301.76 523.32,302.81 523.38,303.98 C523.43,305.12 523.74,306.15 524.32,307.05 C524.9,307.95 525.65,308.65 526.58,309.13 C527.5,309.61 528.53,309.83 529.65,309.78 C530.77,309.73 531.78,309.42 532.67,308.85z"
            />
            <path
                id="_R_G_L_11_G_D_1_P_0"
                fill="#2a85d3"
                fill-opacity="1"
                fill-rule="nonzero"
                d="M485.28 320.92 C485.28,320.92 483.47,313.42 483.47,313.42 C483.47,313.42 493.04,311.11 493.04,311.11 C493.04,311.11 494.85,318.62 494.85,318.62 C494.85,318.62 499.3,317.54 499.3,317.54 C499.3,317.54 494.71,298.54 494.71,298.54 C494.71,298.54 490.26,299.62 490.26,299.62 C490.26,299.62 492.13,307.34 492.13,307.34 C492.13,307.34 482.56,309.65 482.56,309.65 C482.56,309.65 480.69,301.93 480.69,301.93 C480.69,301.93 476.25,303 476.25,303 C476.25,303 480.83,322 480.83,322 C480.83,322 485.28,320.92 485.28,320.92z"
            />
            <path
                id="_R_G_L_11_G_D_2_P_0"
                fill="#2a85d3"
                fill-opacity="1"
                fill-rule="nonzero"
                d="M460.56 329.16 C460.56,329.16 466.13,313.32 466.13,313.32 C466.13,313.32 470.64,325.39 470.64,325.39 C470.64,325.39 474.93,323.79 474.93,323.79 C474.93,323.79 468.08,305.48 468.08,305.48 C468.08,305.48 464.18,306.94 464.18,306.94 C464.18,306.94 458.57,322.79 458.57,322.79 C458.57,322.79 454.06,310.72 454.06,310.72 C454.06,310.72 449.78,312.32 449.78,312.32 C449.78,312.32 456.62,330.63 456.62,330.63 C456.62,330.63 460.56,329.16 460.56,329.16z"
            />
            <path
                id="_R_G_L_11_G_D_3_P_0"
                fill="#2a85d3"
                fill-opacity="1"
                fill-rule="nonzero"
                d="M437.62 344.98 C437.62,344.98 435.62,341.11 435.62,341.11 C435.62,341.11 449.01,334.18 449.01,334.18 C449.01,334.18 451.01,338.05 451.01,338.05 C451.01,338.05 454.81,336.08 454.81,336.08 C454.81,336.08 451.03,328.77 451.03,328.77 C451.03,328.77 430.06,339.62 430.06,339.62 C430.06,339.62 433.85,346.93 433.85,346.93 C433.85,346.93 437.62,344.98 437.62,344.98z  M449.27 331.66 C449.27,331.66 441.26,316.18 441.26,316.18 C441.26,316.18 426.96,323.59 426.96,323.59 C426.96,323.59 429.81,329.65 429.81,329.65 C430.3,330.72 430.75,331.76 431.14,332.78 C431.53,333.8 431.8,334.74 431.96,335.61 C432.12,336.47 432.11,337.22 431.93,337.85 C431.75,338.48 431.33,338.96 430.68,339.3 C430.68,339.3 435.03,337.83 435.03,337.83 C435.56,337.36 435.88,336.79 435.99,336.1 C436.1,335.41 436.05,334.63 435.85,333.76 C435.65,332.89 435.35,331.97 434.96,331 C434.57,330.04 434.14,329.05 433.67,328.03 C433.67,328.03 432.32,325.18 432.32,325.18 C432.32,325.18 438.98,321.73 438.98,321.73 C438.98,321.73 445.2,333.76 445.2,333.76 C445.2,333.76 449.27,331.66 449.27,331.66z"
            />
            <path
                id="_R_G_L_11_G_D_4_P_0"
                fill="#2a85d3"
                fill-opacity="1"
                fill-rule="nonzero"
                d="M417 347.75 C416.01,347.83 415.04,347.63 414.1,347.14 C413.16,346.66 412.34,345.9 411.65,344.87 C410.94,343.81 410.54,342.76 410.46,341.72 C410.37,340.67 410.55,339.71 411,338.82 C411.45,337.93 412.14,337.17 413.07,336.55 C413.98,335.94 414.94,335.59 415.94,335.5 C416.94,335.42 417.91,335.62 418.83,336.1 C419.76,336.58 420.57,337.35 421.28,338.4 C421.97,339.43 422.37,340.48 422.47,341.52 C422.57,342.57 422.4,343.54 421.94,344.44 C421.48,345.33 420.79,346.09 419.85,346.72 C418.94,347.33 417.99,347.68 417,347.75z  M425.79 345.88 C426.62,344.29 426.98,342.61 426.87,340.86 C426.77,339.11 426.18,337.43 425.11,335.83 C424.01,334.19 422.67,333 421.1,332.26 C419.53,331.52 417.86,331.23 416.07,331.4 C414.29,331.57 412.56,332.22 410.88,333.35 C409.22,334.46 407.98,335.81 407.16,337.39 C406.33,338.97 405.97,340.63 406.05,342.38 C406.14,344.13 406.73,345.82 407.82,347.44 C408.89,349.04 410.22,350.21 411.82,350.97 C413.41,351.72 415.1,352.02 416.87,351.87 C418.65,351.72 420.37,351.09 422.04,349.97 C423.72,348.84 424.97,347.48 425.79,345.88z"
            />
            <path
                id="_R_G_L_11_G_D_5_P_0"
                fill="#2a85d3"
                fill-opacity="1"
                fill-rule="nonzero"
                d="M404.57 362.7 C404.57,362.7 394,349.79 394,349.79 C394,349.79 393.83,351.25 393.83,351.25 C393.83,351.25 402.73,343.97 402.73,343.97 C402.73,343.97 400.27,340.97 400.27,340.97 C400.27,340.97 388.66,350.48 388.66,350.48 C388.66,350.48 401.03,365.6 401.03,365.6 C401.03,365.6 404.57,362.7 404.57,362.7z"
            />
            <path
                id="_R_G_L_11_G_D_6_P_0"
                fill="#2a85d3"
                fill-opacity="1"
                fill-rule="nonzero"
                d="M387.83 378.02 C387.83,378.02 376.71,367.94 376.71,367.94 C376.71,367.94 373.71,371.25 373.71,371.25 C373.71,371.25 377.53,374.72 377.53,374.72 C377.53,374.72 380.42,377.53 380.42,377.53 C380.42,377.53 384.73,381.44 384.73,381.44 C384.73,381.44 387.83,378.02 387.83,378.02z  M386.56 370.75 C386.56,370.75 383.58,368.04 383.58,368.04 C383.58,368.04 369.94,383.1 369.94,383.1 C369.94,383.1 372.08,381.83 372.08,381.83 C372.08,381.83 368.2,361.52 368.2,361.52 C368.2,361.52 364.78,365.3 364.78,365.3 C364.78,365.3 368.54,385.74 368.54,385.74 C368.54,385.74 370.99,387.95 370.99,387.95 C370.99,387.95 386.56,370.75 386.56,370.75z"
            />
            <path
                id="_R_G_L_11_G_D_7_P_0"
                fill="#2a85d3"
                fill-opacity="1"
                fill-rule="nonzero"
                d="M374.2 393.34 C374.2,393.34 370.95,390.97 370.95,390.97 C370.95,390.97 362.13,403.07 362.13,403.07 C362.13,403.07 364.16,403.33 364.16,403.33 C364.16,403.33 362.6,391.37 362.6,391.37 C362.38,389.76 362.09,388.44 361.72,387.42 C361.35,386.39 360.9,385.55 360.36,384.89 C359.83,384.23 359.23,383.66 358.56,383.17 C357.34,382.28 356.06,381.81 354.74,381.77 C353.41,381.72 352.1,382.08 350.81,382.84 C349.51,383.61 348.32,384.74 347.23,386.24 C345.99,387.93 345.18,389.68 344.78,391.49 C344.38,393.3 344.43,395.01 344.93,396.61 C344.93,396.61 348.96,395.42 348.96,395.42 C348.66,394.3 348.63,393.2 348.87,392.12 C349.11,391.04 349.6,390 350.33,389 C351.25,387.73 352.21,386.97 353.21,386.7 C354.2,386.43 355.18,386.64 356.12,387.33 C356.5,387.6 356.86,387.95 357.2,388.36 C357.55,388.78 357.84,389.34 358.09,390.03 C358.34,390.73 358.54,391.65 358.69,392.82 C358.69,392.82 360.51,406.73 360.51,406.73 C360.51,406.73 363.08,408.61 363.08,408.61 C363.08,408.61 374.2,393.34 374.2,393.34z"
            />
            <path
                id="_R_G_L_11_G_D_8_P_0"
                fill="#2a85d3"
                fill-opacity="1"
                fill-rule="nonzero"
                d="M346.25 429.38 C345.42,429.93 344.48,430.22 343.42,430.25 C342.36,430.28 341.28,430.01 340.17,429.44 C339.04,428.86 338.19,428.14 337.61,427.26 C337.03,426.39 336.72,425.45 336.68,424.46 C336.65,423.47 336.88,422.47 337.4,421.47 C337.9,420.5 338.57,419.73 339.4,419.17 C340.24,418.61 341.18,418.32 342.22,418.29 C343.26,418.27 344.35,418.54 345.48,419.12 C346.58,419.69 347.44,420.41 348.03,421.28 C348.63,422.15 348.94,423.09 348.97,424.09 C349.01,425.1 348.77,426.1 348.25,427.1 C347.75,428.07 347.08,428.83 346.25,429.38z  M353.05 423.49 C353,421.69 352.5,420.06 351.57,418.57 C350.63,417.09 349.3,415.91 347.59,415.02 C345.83,414.12 344.08,413.72 342.35,413.84 C340.62,413.95 339.02,414.51 337.54,415.52 C336.06,416.52 334.86,417.93 333.93,419.73 C333.02,421.51 332.58,423.29 332.63,425.07 C332.67,426.85 333.16,428.48 334.08,429.97 C335,431.46 336.33,432.65 338.06,433.54 C339.78,434.43 341.51,434.81 343.27,434.7 C345.03,434.59 346.65,434.04 348.14,433.04 C349.62,432.05 350.82,430.67 351.74,428.89 C352.66,427.09 353.1,425.29 353.05,423.49z"
            />
            <path
                id="_R_G_L_11_G_D_9_P_0"
                fill="#2a85d3"
                fill-opacity="1"
                fill-rule="nonzero"
                d="M342.98 459.88 C342.98,459.88 338.91,458.34 338.91,458.34 C338.91,458.34 344.21,444.23 344.21,444.23 C344.21,444.23 348.28,445.76 348.28,445.76 C348.28,445.76 349.79,441.75 349.79,441.75 C349.79,441.75 342.08,438.85 342.08,438.85 C342.08,438.85 333.78,460.96 333.78,460.96 C333.78,460.96 341.49,463.85 341.49,463.85 C341.49,463.85 342.98,459.88 342.98,459.88z  M342.71 442.18 C342.71,442.18 326.4,436.06 326.4,436.06 C326.4,436.06 320.74,451.13 320.74,451.13 C320.74,451.13 326.92,453.73 326.92,453.73 C328,454.18 329.02,454.66 330,455.16 C330.97,455.65 331.81,456.17 332.51,456.7 C333.2,457.24 333.7,457.8 333.98,458.39 C334.27,458.98 334.28,459.62 334.03,460.3 C334.03,460.3 336.27,456.3 336.27,456.3 C336.35,455.6 336.2,454.96 335.82,454.37 C335.44,453.79 334.89,453.24 334.15,452.73 C333.42,452.22 332.59,451.74 331.65,451.28 C330.71,450.82 329.73,450.38 328.69,449.94 C328.69,449.94 325.78,448.73 325.78,448.73 C325.78,448.73 328.42,441.7 328.42,441.7 C328.42,441.7 341.1,446.46 341.1,446.46 C341.1,446.46 342.71,442.18 342.71,442.18z"
            />
            <path
                id="_R_G_L_11_G_D_10_P_0"
                fill="#2a85d3"
                fill-opacity="1"
                fill-rule="nonzero"
                d="M332.2 480.86 C331.8,479.62 331.09,478.68 330.05,478.02 C330.05,478.02 327.21,478.22 327.21,478.22 C328.11,478.81 328.72,479.58 329.05,480.56 C329.37,481.53 329.42,482.57 329.2,483.67 C328.97,484.82 328.55,485.67 327.94,486.22 C327.33,486.76 326.62,486.96 325.81,486.79 C325.09,486.65 324.54,486.26 324.15,485.63 C323.77,485.01 323.73,483.93 324.04,482.4 C324.04,482.4 325.11,477.16 325.11,477.16 C325.11,477.16 322.13,476.56 322.13,476.56 C322.13,476.56 321,482.12 321,482.12 C320.61,484.06 320.54,485.66 320.81,486.94 C321.07,488.21 321.58,489.19 322.34,489.88 C323.1,490.57 324.01,491.02 325.09,491.24 C326.19,491.46 327.23,491.37 328.23,490.96 C329.22,490.55 330.07,489.86 330.78,488.88 C331.49,487.91 331.99,486.7 332.28,485.27 C332.62,483.57 332.6,482.1 332.2,480.86z  M334.11 474.96 C334.11,474.96 322.88,472.68 322.88,472.68 C320.11,472.12 317.9,472.46 316.27,473.71 C314.63,474.96 313.53,476.97 312.97,479.74 C312.66,481.27 312.56,482.79 312.66,484.29 C312.77,485.8 313.11,487.14 313.69,488.33 C313.69,488.33 317.31,487.23 317.31,487.23 C316.86,486.4 316.57,485.42 316.45,484.31 C316.32,483.21 316.37,482.11 316.59,481.04 C316.91,479.44 317.52,478.31 318.41,477.67 C319.3,477.03 320.4,476.84 321.72,477.11 C321.72,477.11 328.5,478.49 328.5,478.49 C328.5,478.49 329.37,478.4 329.37,478.4 C329.37,478.4 333.25,479.19 333.25,479.19 C333.25,479.19 334.11,474.96 334.11,474.96z"
            />
            <path
                id="_R_G_L_11_G_D_11_P_0"
                fill="#2a85d3"
                fill-opacity="1"
                fill-rule="nonzero"
                d="M328.4 516.07 C328.52,515.65 328.59,515.26 328.62,514.9 C328.73,513.76 328.52,512.79 327.98,511.99 C327.44,511.19 326.64,510.53 325.59,510 C324.54,509.47 323.29,509.04 321.83,508.69 C320.38,508.35 318.8,508.06 317.08,507.83 C317.08,507.83 311.97,507.09 311.97,507.09 C311.97,507.09 313.15,508.19 313.15,508.19 C313.15,508.19 314.02,498.94 314.02,498.94 C314.02,498.94 312.68,499.88 312.68,499.88 C312.68,499.88 329.51,501.45 329.51,501.45 C329.51,501.45 329.94,496.9 329.94,496.9 C329.94,496.9 310.48,495.08 310.48,495.08 C310.48,495.08 309.01,510.82 309.01,510.82 C309.01,510.82 316.48,511.85 316.48,511.85 C317.48,511.99 318.46,512.15 319.44,512.33 C320.41,512.51 321.29,512.74 322.06,513.02 C322.83,513.3 323.42,513.66 323.84,514.12 C324.27,514.58 324.44,515.18 324.37,515.93 C324.36,516.06 324.34,516.19 324.3,516.33 C324.26,516.48 324.22,516.63 324.18,516.8 C324.18,516.8 327.99,517.38 327.99,517.38 C328.15,516.92 328.29,516.49 328.4,516.07z"
            />
            <path
                id="_R_G_L_11_G_D_12_P_0"
                fill="#2a85d3"
                fill-opacity="1"
                fill-rule="nonzero"
                d="M328.18 523.4 C328.18,523.4 311.42,523.41 311.42,523.41 C311.42,523.41 312.52,524.47 312.52,524.47 C312.52,524.47 312.52,516.56 312.52,516.56 C312.52,516.56 308.64,516.56 308.64,516.56 C308.64,516.56 308.64,534.86 308.64,534.86 C308.64,534.86 312.52,534.86 312.52,534.86 C312.52,534.86 312.52,526.92 312.52,526.92 C312.52,526.92 311.42,527.98 311.42,527.98 C311.42,527.98 328.18,527.98 328.18,527.98 C328.18,527.98 328.18,523.4 328.18,523.4z"
            />
            <path
                id="_R_G_L_11_G_D_13_P_0"
                fill="#2a85d3"
                fill-opacity="1"
                fill-rule="nonzero"
                d="M305.02 540.02 C304.44,539.52 303.74,539.3 302.94,539.36 C302.18,539.41 301.58,539.73 301.12,540.31 C300.66,540.89 300.46,541.61 300.52,542.46 C300.58,543.31 300.89,543.99 301.45,544.51 C302.01,545.02 302.68,545.25 303.46,545.19 C304.21,545.14 304.84,544.82 305.33,544.23 C305.83,543.65 306.05,542.93 305.99,542.08 C305.93,541.2 305.61,540.51 305.02,540.02z  M328.54 538.22 C328.54,538.22 309.05,539.59 309.05,539.59 C309.05,539.59 309.37,544.15 309.37,544.15 C309.37,544.15 328.86,542.78 328.86,542.78 C328.86,542.78 328.54,538.22 328.54,538.22z"
            />
            <path
                id="_R_G_L_11_G_D_14_P_0"
                fill="#2a85d3"
                fill-opacity="1"
                fill-rule="nonzero"
                d="M315.08 563.36 C315.08,563.36 314.36,558.61 314.36,558.61 C314.19,557.46 314.25,556.55 314.55,555.9 C314.85,555.25 315.39,554.87 316.19,554.75 C316.96,554.63 317.6,554.84 318.11,555.37 C318.63,555.89 318.97,556.74 319.14,557.89 C319.14,557.89 319.86,562.64 319.86,562.64 C319.86,562.64 315.08,563.36 315.08,563.36z  M322.86 562.18 C322.86,562.18 322.06,556.86 322.06,556.86 C321.87,555.63 321.94,554.7 322.26,554.05 C322.59,553.41 323.18,553.03 324.05,552.9 C324.87,552.77 325.53,553 326.02,553.56 C326.51,554.13 326.85,555.03 327.04,556.26 C327.04,556.26 327.82,561.44 327.82,561.44 C327.82,561.44 322.86,562.18 322.86,562.18z  M330.28 555.4 C329.88,552.8 329.12,550.93 327.97,549.79 C326.83,548.66 325.4,548.22 323.68,548.48 C322.04,548.72 320.88,549.48 320.2,550.76 C319.51,552.03 319.34,553.84 319.7,556.18 C319.7,556.18 320.9,556.55 320.9,556.55 C320.59,554.48 319.9,552.88 318.83,551.76 C317.76,550.64 316.44,550.2 314.87,550.43 C313.28,550.67 312.15,551.53 311.48,553 C310.82,554.47 310.66,556.37 311.01,558.71 C311.01,558.71 312.43,568.16 312.43,568.16 C312.43,568.16 331.76,565.25 331.76,565.25 C331.76,565.25 330.28,555.4 330.28,555.4z"
            />
            <path
                id="_R_G_L_11_G_D_15_P_0"
                fill="#2a85d3"
                fill-opacity="1"
                fill-rule="nonzero"
                d="M332.43 572.66 C331.29,571.45 329.92,570.67 328.32,570.31 C328.32,570.31 327.22,574.22 327.22,574.22 C328.26,574.56 329.1,575.08 329.74,575.78 C330.38,576.48 330.82,577.31 331.06,578.25 C331.34,579.34 331.36,580.38 331.12,581.38 C330.87,582.37 330.37,583.23 329.61,583.96 C328.86,584.69 327.86,585.21 326.64,585.53 C325.41,585.85 324.29,585.87 323.27,585.61 C322.26,585.34 321.4,584.83 320.7,584.08 C320,583.33 319.51,582.41 319.23,581.33 C318.99,580.38 318.97,579.45 319.18,578.52 C319.4,577.6 319.88,576.73 320.63,575.93 C320.63,575.93 317.76,573.05 317.76,573.05 C316.51,574.15 315.7,575.51 315.32,577.11 C314.94,578.7 314.99,580.42 315.47,582.27 C315.98,584.25 316.85,585.91 318.08,587.24 C319.31,588.57 320.76,589.49 322.44,589.98 C324.12,590.48 325.91,590.48 327.8,589.99 C329.66,589.51 331.21,588.64 332.45,587.38 C333.69,586.13 334.53,584.62 334.96,582.86 C335.4,581.09 335.36,579.22 334.84,577.23 C334.36,575.39 333.56,573.87 332.43,572.66z"
            />
            <path
                id="_R_G_L_11_G_D_16_P_0"
                fill="#2a85d3"
                fill-opacity="1"
                fill-rule="nonzero"
                d="M346.72 612.71 C346.96,614.18 347.01,615.59 346.86,616.92 C346.86,616.92 343.22,617.07 343.22,617.07 C343.35,615.99 343.31,614.84 343.11,613.62 C342.91,612.41 342.58,611.25 342.12,610.15 C341.72,609.2 341.28,608.43 340.8,607.84 C340.33,607.25 339.82,606.85 339.28,606.64 C338.74,606.43 338.22,606.43 337.73,606.64 C337.01,606.94 336.6,607.48 336.49,608.26 C336.38,609.03 336.57,610 337.05,611.14 C337.05,611.14 338.52,614.61 338.52,614.61 C338.52,614.61 335.69,615.81 335.69,615.81 C335.69,615.81 334.36,612.68 334.36,612.68 C334.06,611.96 333.72,611.38 333.35,610.94 C332.98,610.5 332.58,610.21 332.15,610.08 C331.72,609.94 331.29,609.96 330.87,610.15 C330.44,610.33 330.13,610.65 329.94,611.11 C329.76,611.58 329.71,612.15 329.8,612.82 C329.88,613.5 330.11,614.27 330.47,615.12 C330.85,616.02 331.36,616.9 331.99,617.76 C332.62,618.62 333.35,619.45 334.2,620.26 C334.2,620.26 331.56,622.65 331.56,622.65 C330.55,621.73 329.68,620.78 328.94,619.81 C328.2,618.84 327.58,617.82 327.1,616.75 C326.34,615.14 325.89,613.6 325.75,612.15 C325.62,610.7 325.77,609.44 326.22,608.38 C326.67,607.31 327.41,606.56 328.45,606.12 C329.3,605.76 330.18,605.7 331.09,605.93 C332,606.17 332.84,606.67 333.6,607.41 C334.37,608.16 335,609.12 335.5,610.29 C335.5,610.29 334.53,610.54 334.53,610.54 C333.68,608.54 333.42,606.8 333.73,605.31 C334.04,603.83 334.88,602.8 336.25,602.22 C337.35,601.75 338.48,601.71 339.64,602.09 C340.79,602.48 341.88,603.22 342.9,604.31 C343.92,605.4 344.78,606.78 345.49,608.44 C346.07,609.81 346.48,611.23 346.72,612.71z"
            />
            <path
                id="_R_G_L_11_G_D_17_P_0"
                fill="#2a85d3"
                fill-opacity="1"
                fill-rule="nonzero"
                d="M351.24 622.85 C350.12,621.95 348.9,621.36 347.58,621.08 C347.58,621.08 346.29,624.59 346.29,624.59 C347.26,624.83 348.1,625.26 348.83,625.86 C349.55,626.47 350.17,627.25 350.7,628.22 C351.31,629.33 351.64,630.43 351.68,631.52 C351.72,632.61 351.48,633.61 350.94,634.51 C350.41,635.42 349.63,636.15 348.6,636.72 C348.6,636.72 347.96,637.07 347.96,637.07 C346.94,637.63 345.93,637.91 344.94,637.91 C343.95,637.91 343.04,637.66 342.21,637.16 C341.38,636.66 340.69,635.91 340.15,634.93 C339.62,633.97 339.37,633 339.39,632.03 C339.41,631.05 339.68,630.15 340.2,629.31 C340.71,628.47 341.46,627.79 342.46,627.27 C342.46,627.27 340.76,626.16 340.76,626.16 C340.76,626.16 347.44,638.32 347.44,638.32 C347.44,638.32 350.1,636.86 350.1,636.86 C350.1,636.86 342.26,622.58 342.26,622.58 C342.06,622.66 341.85,622.76 341.63,622.87 C341.41,622.97 341.21,623.07 341.04,623.17 C339.24,624.15 337.89,625.38 336.97,626.86 C336.06,628.34 335.59,629.93 335.58,631.63 C335.57,633.34 336.02,635.02 336.94,636.69 C337.88,638.4 339.09,639.72 340.57,640.65 C342.06,641.57 343.66,642.05 345.4,642.09 C347.13,642.13 348.85,641.67 350.56,640.74 C352.25,639.81 353.54,638.59 354.44,637.08 C355.34,635.57 355.78,633.9 355.76,632.06 C355.73,630.22 355.2,628.35 354.16,626.45 C353.33,624.95 352.36,623.75 351.24,622.85z"
            />
            <path
                id="_R_G_L_11_G_D_18_P_0"
                fill="#2a85d3"
                fill-opacity="1"
                fill-rule="nonzero"
                d="M364.89 651.58 C365,652.57 364.84,653.51 364.42,654.4 C364,655.29 363.38,656.03 362.54,656.62 C361.72,657.2 360.86,657.52 359.96,657.57 C359.06,657.62 358.18,657.42 357.32,656.97 C356.46,656.52 355.72,655.84 355.08,654.94 C354.42,654 354.04,653.06 353.93,652.1 C353.83,651.15 353.95,650.26 354.3,649.42 C354.66,648.59 355.25,647.88 356.09,647.29 C356.93,646.7 357.82,646.36 358.77,646.27 C359.72,646.18 360.64,646.34 361.51,646.75 C362.39,647.17 363.14,647.82 363.77,648.72 C364.42,649.64 364.79,650.59 364.89,651.58z  M362.79 642.98 C361.22,642.13 359.62,641.75 357.98,641.84 C356.33,641.92 354.77,642.48 353.3,643.52 C351.88,644.52 350.85,645.75 350.2,647.19 C349.54,648.64 349.32,650.16 349.51,651.75 C349.71,653.34 350.34,654.88 351.39,656.38 C352.18,657.5 353.1,658.39 354.16,659.06 C355.22,659.74 356.36,660.17 357.59,660.36 C358.81,660.56 360.08,660.5 361.37,660.18 C361.37,660.18 361.85,657.74 361.85,657.74 C361.45,658.02 361.16,658.25 360.97,658.43 C360.78,658.6 360.6,658.77 360.43,658.94 C360.27,659.1 359.99,659.32 359.61,659.58 C358.38,660.46 357.24,661.04 356.21,661.33 C355.18,661.63 354.23,661.73 353.38,661.63 C352.52,661.54 351.75,661.32 351.07,660.97 C350.4,660.63 349.8,660.25 349.28,659.82 C348.75,659.4 348.32,659.03 347.97,658.7 C347.97,658.7 341.85,652.95 341.85,652.95 C341.85,652.95 338.88,655.85 338.88,655.85 C338.88,655.85 345.7,662.15 345.7,662.15 C346.74,663.11 347.79,663.89 348.87,664.48 C349.94,665.07 351.04,665.46 352.17,665.67 C353.3,665.87 354.44,665.89 355.6,665.73 C356.75,665.57 357.94,665.23 359.15,664.7 C360.36,664.18 361.6,663.46 362.88,662.56 C364.64,661.33 366.01,660.06 367,658.76 C368,657.46 368.65,656.14 368.95,654.81 C369.25,653.48 369.23,652.16 368.9,650.84 C368.56,649.52 367.93,648.2 367,646.89 C365.77,645.13 364.36,643.83 362.79,642.98z"
            />
            <path
                id="_R_G_L_11_G_D_19_P_0"
                fill="#2a85d3"
                fill-opacity="1"
                fill-rule="nonzero"
                d="M383.04 668.52 C381.61,667.88 380.16,667.6 378.69,667.66 C378.69,667.66 378.69,671.33 378.69,671.33 C379.77,671.33 380.79,671.54 381.73,671.95 C382.67,672.36 383.53,672.97 384.32,673.78 C385.22,674.71 385.82,675.73 386.13,676.84 C386.44,677.94 386.45,679.04 386.16,680.12 C385.86,681.2 385.26,682.19 384.35,683.07 C383.44,683.95 382.44,684.52 381.35,684.78 C380.25,685.04 379.16,685 378.06,684.65 C376.96,684.31 375.96,683.67 375.06,682.74 C374.28,681.94 373.7,681.06 373.31,680.11 C372.92,679.17 372.74,678.15 372.77,677.06 C372.77,677.06 369.1,676.95 369.1,676.95 C368.99,678.42 369.23,679.88 369.82,681.33 C370.41,682.78 371.32,684.14 372.56,685.42 C374,686.91 375.61,687.93 377.37,688.49 C379.13,689.04 380.87,689.13 382.59,688.75 C384.31,688.37 385.88,687.5 387.3,686.12 C388.71,684.76 389.63,683.22 390.08,681.49 C390.53,679.77 390.5,678.02 389.98,676.26 C389.47,674.5 388.49,672.88 387.05,671.39 C385.81,670.11 384.47,669.15 383.04,668.52z  M384.24 685.17 C384.24,685.17 386.6,682.87 386.6,682.87 C386.6,682.87 379.22,675.25 379.22,675.25 C379.22,675.25 376.85,677.54 376.85,677.54 C376.85,677.54 384.24,685.17 384.24,685.17z"
            />
            <path
                id="_R_G_L_11_G_D_20_P_0"
                fill="#2a85d3"
                fill-opacity="1"
                fill-rule="nonzero"
                d="M403.63 693.06 C403.98,694 404.06,694.97 403.88,695.98 C403.69,696.99 403.21,697.99 402.41,698.98 C401.62,699.97 400.75,700.67 399.8,701.08 C398.85,701.49 397.88,701.62 396.91,701.47 C395.94,701.32 395.03,700.91 394.2,700.24 C393.36,699.57 392.76,698.78 392.41,697.87 C392.05,696.96 391.97,696 392.16,694.98 C392.35,693.96 392.84,692.96 393.64,691.96 C394.43,690.97 395.3,690.28 396.24,689.88 C397.19,689.48 398.15,689.34 399.13,689.46 C400.1,689.59 401.02,690 401.88,690.68 C402.7,691.33 403.28,692.13 403.63,693.06z  M399.4 685.37 C397.67,685.09 395.99,685.27 394.35,685.91 C392.72,686.55 391.3,687.63 390.09,689.13 C388.87,690.66 388.14,692.28 387.88,694.01 C387.62,695.74 387.82,697.41 388.49,699.02 C389.15,700.63 390.26,702.06 391.8,703.29 C393.33,704.51 394.95,705.26 396.66,705.56 C398.38,705.85 400.05,705.68 401.69,705.05 C403.32,704.42 404.74,703.34 405.96,701.81 C407.16,700.31 407.89,698.69 408.15,696.96 C408.41,695.23 408.21,693.55 407.56,691.92 C406.91,690.29 405.83,688.87 404.3,687.65 C402.76,686.42 401.12,685.66 399.4,685.37z  M414.52 696.14 C414.52,696.14 409.63,702.26 409.63,702.26 C409.63,702.26 405.08,698.63 405.08,698.63 C405.08,698.63 402.5,701.86 402.5,701.86 C402.5,701.86 407.05,705.49 407.05,705.49 C407.05,705.49 402.32,711.41 402.32,711.41 C402.32,711.41 405.89,714.27 405.89,714.27 C405.89,714.27 418.09,699 418.09,699 C418.09,699 414.52,696.14 414.52,696.14z"
            />
            <path
                id="_R_G_L_11_G_D_21_P_0"
                fill="#2a85d3"
                fill-opacity="1"
                fill-rule="nonzero"
                d="M423.74 697.51 C423.74,697.51 419.53,704.59 419.53,704.59 C419.53,704.59 426.01,708.44 426.01,708.44 C426.01,708.44 428,705.11 428,705.11 C428,705.11 424.29,702.9 424.29,702.9 C424.29,702.9 425.14,703.54 425.14,703.54 C425.14,703.54 427.42,699.7 427.42,699.7 C427.42,699.7 423.74,697.51 423.74,697.51z  M424.07 702.77 C424.07,702.77 414.07,719.57 414.07,719.57 C414.07,719.57 418,721.91 418,721.91 C418,721.91 426.01,708.44 426.01,708.44 C426.01,708.44 434.03,713.22 434.03,713.22 C434.03,713.22 426.02,726.68 426.02,726.68 C426.02,726.68 429.95,729.02 429.95,729.02 C429.95,729.02 439.95,712.22 439.95,712.22 C439.95,712.22 424.07,702.77 424.07,702.77z"
            />
            <path
                id="_R_G_L_11_G_D_22_P_0"
                fill="#2a85d3"
                fill-opacity="1"
                fill-rule="nonzero"
                d="M450.36 717.96 C449.07,718.07 447.98,718.56 447.11,719.42 C447.11,719.42 446.68,722.24 446.68,722.24 C447.45,721.49 448.35,721.06 449.37,720.96 C450.39,720.86 451.41,721.04 452.44,721.5 C453.5,721.99 454.24,722.58 454.64,723.3 C455.04,724.02 455.06,724.75 454.72,725.51 C454.42,726.18 453.92,726.63 453.23,726.86 C452.53,727.1 451.47,726.89 450.05,726.25 C450.05,726.25 445.18,724.05 445.18,724.05 C445.18,724.05 443.93,726.82 443.93,726.82 C443.93,726.82 449.1,729.15 449.1,729.15 C450.9,729.97 452.45,730.39 453.75,730.41 C455.06,730.44 456.13,730.16 456.96,729.57 C457.8,728.99 458.45,728.2 458.9,727.19 C459.36,726.17 459.51,725.13 459.33,724.07 C459.15,723.02 458.66,722.03 457.87,721.13 C457.07,720.22 456.01,719.46 454.67,718.86 C453.09,718.15 451.66,717.85 450.36,717.96z  M445.03 714.79 C445.03,714.79 440.31,725.23 440.31,725.23 C439.15,727.81 438.99,730.03 439.85,731.9 C440.7,733.78 442.42,735.29 445,736.46 C446.42,737.1 447.88,737.54 449.37,737.77 C450.86,738 452.25,737.96 453.53,737.66 C453.53,737.66 453.27,733.89 453.27,733.89 C452.35,734.14 451.34,734.21 450.23,734.08 C449.12,733.96 448.07,733.67 447.07,733.22 C445.58,732.54 444.62,731.7 444.19,730.69 C443.76,729.68 443.83,728.57 444.38,727.34 C444.38,727.34 447.22,721.04 447.22,721.04 C447.22,721.04 447.34,720.17 447.34,720.17 C447.34,720.17 448.96,716.56 448.96,716.56 C448.96,716.56 445.03,714.79 445.03,714.79z"
            />
            <path
                id="_R_G_L_11_G_D_23_P_0"
                fill="#2a85d3"
                fill-opacity="1"
                fill-rule="nonzero"
                d="M475.11 731.47 C475.79,732.2 476.24,733.09 476.44,734.13 C476.64,735.17 476.55,736.28 476.17,737.47 C475.78,738.67 475.2,739.63 474.43,740.35 C473.66,741.06 472.78,741.51 471.79,741.71 C470.81,741.9 469.79,741.83 468.75,741.49 C467.7,741.15 466.85,740.62 466.17,739.89 C465.5,739.15 465.06,738.27 464.85,737.25 C464.65,736.22 464.74,735.1 465.13,733.89 C465.51,732.71 466.09,731.75 466.86,731.03 C467.64,730.31 468.51,729.85 469.48,729.65 C470.46,729.45 471.47,729.52 472.51,729.86 C473.56,730.2 474.42,730.73 475.11,731.47z  M481.29 721.39 C481.29,721.39 477.71,732.46 477.71,732.46 C477.71,732.46 476.46,737.52 476.46,737.52 C476.46,737.52 474.72,742.42 474.72,742.42 C474.72,742.42 473.3,746.81 473.3,746.81 C473.3,746.81 477.44,748.15 477.44,748.15 C477.44,748.15 485.65,722.8 485.65,722.8 C485.65,722.8 481.29,721.39 481.29,721.39z  M467.99 725.59 C466.33,725.92 464.86,726.67 463.57,727.83 C462.29,728.99 461.33,730.53 460.71,732.46 C460.08,734.39 459.96,736.19 460.32,737.88 C460.69,739.56 461.44,741.02 462.59,742.27 C463.74,743.51 465.23,744.43 467.07,745.02 C468.65,745.53 470.16,745.65 471.61,745.36 C473.06,745.07 474.37,744.35 475.53,743.18 C476.69,742.02 477.62,740.35 478.33,738.17 C479.03,736.01 479.24,734.11 478.96,732.46 C478.68,730.82 478.04,729.45 477.02,728.36 C476,727.26 474.74,726.46 473.23,725.98 C471.4,725.38 469.65,725.25 467.99,725.59z"
            />
            <path
                id="_R_G_L_11_G_D_24_P_0"
                fill="#2a85d3"
                fill-opacity="1"
                fill-rule="nonzero"
                d="M507.62 734.57 C507.62,734.57 503.49,756.96 503.49,756.96 C503.49,756.96 504.79,756.01 504.79,756.01 C504.79,756.01 489.56,753.2 489.56,753.2 C489.56,753.2 490.43,754.55 490.43,754.55 C490.43,754.55 494.56,732.16 494.56,732.16 C494.56,732.16 489.95,731.31 489.95,731.31 C489.95,731.31 485.3,756.51 485.3,756.51 C485.3,756.51 507.58,760.62 507.58,760.62 C507.58,760.62 512.23,735.42 512.23,735.42 C512.23,735.42 507.62,734.57 507.62,734.57z"
            />
            <path
                id="_R_G_L_11_G_D_25_P_0"
                fill="#2a85d3"
                fill-opacity="1"
                fill-rule="nonzero"
                d="M540.6 742.08 C539.69,742.62 538.97,743.36 538.44,744.29 C537.91,745.23 537.65,746.27 537.67,747.42 C537.69,748.59 537.98,749.62 538.55,750.52 C539.11,751.41 539.85,752.1 540.78,752.6 C541.7,753.1 542.72,753.34 543.85,753.32 C544.97,753.3 545.98,753.03 546.87,752.5 C547.76,751.97 548.47,751.25 548.99,750.34 C549.52,749.43 549.77,748.39 549.75,747.21 C549.73,746.07 549.44,745.04 548.89,744.12 C548.34,743.2 547.6,742.49 546.69,741.98 C545.78,741.47 544.76,741.22 543.64,741.24 C542.52,741.26 541.51,741.54 540.6,742.08z"
            />
            <path
                id="_R_G_L_11_G_D_26_P_0"
                fill="#2a85d3"
                fill-opacity="1"
                fill-rule="nonzero"
                d="M588.31 731.36 C588.31,731.36 589.91,738.91 589.91,738.91 C589.91,738.91 580.27,740.95 580.27,740.95 C580.27,740.95 578.68,733.39 578.68,733.39 C578.68,733.39 574.2,734.34 574.2,734.34 C574.2,734.34 578.24,753.46 578.24,753.46 C578.24,753.46 582.72,752.51 582.72,752.51 C582.72,752.51 581.08,744.74 581.08,744.74 C581.08,744.74 590.71,742.71 590.71,742.71 C590.71,742.71 592.35,750.48 592.35,750.48 C592.35,750.48 596.83,749.53 596.83,749.53 C596.83,749.53 592.79,730.41 592.79,730.41 C592.79,730.41 588.31,731.36 588.31,731.36z"
            />
            <path
                id="_R_G_L_11_G_D_27_P_0"
                fill="#2a85d3"
                fill-opacity="1"
                fill-rule="nonzero"
                d="M613.25 723.83 C613.25,723.83 607.23,739.5 607.23,739.5 C607.23,739.5 603.07,727.31 603.07,727.31 C603.07,727.31 598.74,728.79 598.74,728.79 C598.74,728.79 605.06,747.28 605.06,747.28 C605.06,747.28 609.01,745.93 609.01,745.93 C609.01,745.93 615.06,730.25 615.06,730.25 C615.06,730.25 619.22,742.44 619.22,742.44 C619.22,742.44 623.55,740.96 623.55,740.96 C623.55,740.96 617.23,722.47 617.23,722.47 C617.23,722.47 613.25,723.83 613.25,723.83z"
            />
            <path
                id="_R_G_L_11_G_D_28_P_0"
                fill="#2a85d3"
                fill-opacity="1"
                fill-rule="nonzero"
                d="M636.63 708.66 C636.63,708.66 638.52,712.58 638.52,712.58 C638.52,712.58 624.94,719.13 624.94,719.13 C624.94,719.13 623.05,715.21 623.05,715.21 C623.05,715.21 619.19,717.07 619.19,717.07 C619.19,717.07 622.77,724.49 622.77,724.49 C622.77,724.49 644.03,714.23 644.03,714.23 C644.03,714.23 640.45,706.81 640.45,706.81 C640.45,706.81 636.63,708.66 636.63,708.66z  M624.61 721.65 C624.61,721.65 632.18,737.34 632.18,737.34 C632.18,737.34 646.68,730.34 646.68,730.34 C646.68,730.34 644,724.2 644,724.2 C643.54,723.12 643.13,722.07 642.76,721.04 C642.4,720.01 642.15,719.06 642.02,718.19 C641.88,717.32 641.92,716.57 642.12,715.95 C642.32,715.32 642.75,714.85 643.41,714.53 C643.41,714.53 639.02,715.88 639.02,715.88 C638.47,716.33 638.14,716.9 638.01,717.58 C637.88,718.27 637.9,719.05 638.08,719.93 C638.26,720.8 638.53,721.73 638.89,722.7 C639.26,723.68 639.66,724.68 640.1,725.72 C640.1,725.72 641.37,728.6 641.37,728.6 C641.37,728.6 634.61,731.86 634.61,731.86 C634.61,731.86 628.73,719.66 628.73,719.66 C628.73,719.66 624.61,721.65 624.61,721.65z"
            />
            <path
                id="_R_G_L_11_G_D_29_P_0"
                fill="#2a85d3"
                fill-opacity="1"
                fill-rule="nonzero"
                d="M657.32 706.47 C658.31,706.42 659.27,706.65 660.2,707.16 C661.13,707.67 661.93,708.45 662.59,709.5 C663.27,710.57 663.63,711.63 663.69,712.68 C663.74,713.73 663.53,714.69 663.06,715.57 C662.59,716.44 661.88,717.18 660.93,717.78 C660,718.36 659.04,718.68 658.03,718.74 C657.03,718.8 656.07,718.57 655.16,718.06 C654.25,717.56 653.46,716.77 652.78,715.69 C652.11,714.64 651.75,713.59 651.67,712.54 C651.6,711.49 651.81,710.52 652.29,709.64 C652.77,708.76 653.49,708.02 654.44,707.42 C655.37,706.83 656.33,706.51 657.32,706.47z  M648.47 708.09 C647.61,709.66 647.2,711.32 647.25,713.08 C647.31,714.83 647.85,716.53 648.88,718.16 C649.93,719.83 651.24,721.05 652.78,721.84 C654.33,722.62 656,722.95 657.78,722.84 C659.57,722.72 661.32,722.12 663.03,721.04 C664.72,719.97 666,718.66 666.87,717.1 C667.73,715.55 668.15,713.89 668.11,712.14 C668.07,710.39 667.53,708.69 666.49,707.04 C665.46,705.41 664.16,704.2 662.59,703.4 C661.02,702.6 659.34,702.25 657.56,702.35 C655.78,702.46 654.04,703.04 652.35,704.11 C650.63,705.19 649.34,706.52 648.47,708.09z"
            />
            <path
                id="_R_G_L_11_G_D_30_P_0"
                fill="#2a85d3"
                fill-opacity="1"
                fill-rule="nonzero"
                d="M670.16 691.87 C670.16,691.87 680.36,705.08 680.36,705.08 C680.36,705.08 680.57,703.62 680.57,703.62 C680.57,703.62 671.48,710.64 671.48,710.64 C671.48,710.64 673.85,713.71 673.85,713.71 C673.85,713.71 685.73,704.54 685.73,704.54 C685.73,704.54 673.78,689.07 673.78,689.07 C673.78,689.07 670.16,691.87 670.16,691.87z"
            />
            <path
                id="_R_G_L_11_G_D_31_P_0"
                fill="#2a85d3"
                fill-opacity="1"
                fill-rule="nonzero"
                d="M687.33 677.03 C687.33,677.03 698.16,687.41 698.16,687.41 C698.16,687.41 701.25,684.19 701.25,684.19 C701.25,684.19 697.52,680.62 697.52,680.62 C697.52,680.62 694.72,677.73 694.72,677.73 C694.72,677.73 690.52,673.7 690.52,673.7 C690.52,673.7 687.33,677.03 687.33,677.03z  M688.39 684.33 C688.39,684.33 691.29,687.12 691.29,687.12 C691.29,687.12 705.35,672.45 705.35,672.45 C705.35,672.45 703.17,673.66 703.17,673.66 C703.17,673.66 706.48,694.07 706.48,694.07 C706.48,694.07 710,690.39 710,690.39 C710,690.39 706.82,669.86 706.82,669.86 C706.82,669.86 704.44,667.58 704.44,667.58 C704.44,667.58 688.39,684.33 688.39,684.33z"
            />
            <path
                id="_R_G_L_11_G_D_32_P_0"
                fill="#2a85d3"
                fill-opacity="1"
                fill-rule="nonzero"
                d="M701.38 662.09 C701.38,662.09 704.56,664.56 704.56,664.56 C704.56,664.56 713.72,652.71 713.72,652.71 C713.72,652.71 711.69,652.4 711.69,652.4 C711.69,652.4 712.92,664.4 712.92,664.4 C713.09,666.01 713.35,667.33 713.69,668.37 C714.03,669.4 714.46,670.26 714.97,670.93 C715.48,671.6 716.07,672.19 716.72,672.7 C717.92,673.63 719.18,674.13 720.51,674.21 C721.83,674.29 723.15,673.97 724.47,673.25 C725.78,672.52 727.01,671.42 728.14,669.96 C729.42,668.3 730.29,666.57 730.74,664.77 C731.18,662.97 731.18,661.27 730.73,659.66 C730.73,659.66 726.67,660.73 726.67,660.73 C726.94,661.86 726.93,662.96 726.66,664.03 C726.39,665.1 725.87,666.13 725.11,667.11 C724.16,668.35 723.18,669.09 722.18,669.33 C721.17,669.57 720.21,669.33 719.28,668.62 C718.91,668.33 718.56,667.98 718.23,667.55 C717.9,667.12 717.61,666.56 717.39,665.86 C717.16,665.16 716.98,664.22 716.87,663.05 C716.87,663.05 715.44,649.1 715.44,649.1 C715.44,649.1 712.92,647.15 712.92,647.15 C712.92,647.15 701.38,662.09 701.38,662.09z"
            />
            <path
                id="_R_G_L_11_G_D_33_P_0"
                fill="#2a85d3"
                fill-opacity="1"
                fill-rule="nonzero"
                d="M730.33 626.86 C731.18,626.34 732.13,626.07 733.19,626.07 C734.25,626.07 735.32,626.37 736.41,626.97 C737.52,627.58 738.36,628.33 738.91,629.22 C739.46,630.11 739.75,631.05 739.76,632.05 C739.77,633.04 739.5,634.03 738.96,635.02 C738.43,635.98 737.74,636.73 736.89,637.26 C736.04,637.79 735.09,638.06 734.05,638.06 C733.01,638.05 731.93,637.75 730.82,637.13 C729.73,636.53 728.9,635.79 728.33,634.91 C727.75,634.02 727.47,633.08 727.46,632.07 C727.46,631.07 727.73,630.07 728.27,629.09 C728.8,628.13 729.49,627.38 730.33,626.86z  M723.37 632.55 C723.37,634.35 723.82,636 724.72,637.51 C725.61,639.02 726.9,640.24 728.59,641.17 C730.32,642.13 732.06,642.57 733.79,642.51 C735.52,642.45 737.14,641.93 738.65,640.97 C740.16,640 741.4,638.63 742.38,636.86 C743.34,635.1 743.83,633.34 743.83,631.56 C743.84,629.78 743.4,628.13 742.52,626.62 C741.64,625.1 740.35,623.87 738.64,622.93 C736.95,622 735.22,621.57 733.46,621.63 C731.7,621.69 730.07,622.19 728.55,623.15 C727.04,624.1 725.8,625.45 724.84,627.2 C723.86,628.97 723.37,630.76 723.37,632.55z"
            />
            <path
                id="_R_G_L_11_G_D_34_P_0"
                fill="#2a85d3"
                fill-opacity="1"
                fill-rule="nonzero"
                d="M734.47 596.47 C734.47,596.47 738.5,598.12 738.5,598.12 C738.5,598.12 732.8,612.08 732.8,612.08 C732.8,612.08 728.77,610.43 728.77,610.43 C728.77,610.43 727.15,614.4 727.15,614.4 C727.15,614.4 734.77,617.51 734.77,617.51 C734.77,617.51 743.7,595.65 743.7,595.65 C743.7,595.65 736.07,592.54 736.07,592.54 C736.07,592.54 734.47,596.47 734.47,596.47z  M734.24 614.17 C734.24,614.17 750.37,620.75 750.37,620.75 C750.37,620.75 756.46,605.84 756.46,605.84 C756.46,605.84 750.35,603.07 750.35,603.07 C749.29,602.59 748.27,602.08 747.31,601.56 C746.35,601.03 745.53,600.49 744.85,599.94 C744.17,599.38 743.69,598.81 743.42,598.21 C743.15,597.61 743.16,596.97 743.43,596.3 C743.43,596.3 741.07,600.24 741.07,600.24 C740.97,600.93 741.1,601.58 741.47,602.17 C741.83,602.77 742.37,603.33 743.09,603.87 C743.81,604.4 744.63,604.9 745.55,605.39 C746.48,605.87 747.45,606.34 748.47,606.81 C748.47,606.81 751.34,608.1 751.34,608.1 C751.34,608.1 748.51,615.05 748.51,615.05 C748.51,615.05 735.97,609.93 735.97,609.93 C735.97,609.93 734.24,614.17 734.24,614.17z"
            />
            <path
                id="_R_G_L_11_G_D_35_P_0"
                fill="#2a85d3"
                fill-opacity="1"
                fill-rule="nonzero"
                d="M748 565.9 C748.42,567.13 749.15,568.06 750.2,568.7 C750.2,568.7 753.04,568.44 753.04,568.44 C752.13,567.87 751.5,567.11 751.15,566.14 C750.81,565.17 750.74,564.13 750.94,563.03 C751.15,561.88 751.56,561.02 752.15,560.46 C752.75,559.9 753.46,559.7 754.28,559.84 C755,559.98 755.55,560.35 755.95,560.97 C756.34,561.58 756.4,562.66 756.12,564.2 C756.12,564.2 755.16,569.46 755.16,569.46 C755.16,569.46 758.15,570 758.15,570 C758.15,570 759.17,564.42 759.17,564.42 C759.52,562.48 759.56,560.87 759.27,559.6 C758.98,558.33 758.45,557.36 757.68,556.69 C756.91,556.02 755.98,555.58 754.9,555.38 C753.8,555.18 752.76,555.29 751.77,555.72 C750.79,556.15 749.95,556.86 749.26,557.85 C748.57,558.84 748.1,560.05 747.84,561.5 C747.52,563.2 747.58,564.67 748,565.9z  M746.21 571.84 C746.21,571.84 757.48,573.9 757.48,573.9 C760.26,574.4 762.46,574.02 764.07,572.74 C765.68,571.46 766.74,569.42 767.25,566.64 C767.53,565.1 767.6,563.59 767.47,562.09 C767.33,560.58 766.96,559.25 766.36,558.07 C766.36,558.07 762.76,559.24 762.76,559.24 C763.23,560.07 763.53,561.03 763.68,562.14 C763.82,563.24 763.8,564.34 763.6,565.42 C763.31,567.02 762.72,568.16 761.85,568.82 C760.97,569.47 759.87,569.68 758.55,569.44 C758.55,569.44 751.75,568.2 751.75,568.2 C751.75,568.2 750.87,568.3 750.87,568.3 C750.87,568.3 746.98,567.59 746.98,567.59 C746.98,567.59 746.21,571.84 746.21,571.84z"
            />
            <path
                id="_R_G_L_11_G_D_36_P_0"
                fill="#2a85d3"
                fill-opacity="1"
                fill-rule="nonzero"
                d="M751.11 530.62 C751.01,531.04 750.94,531.43 750.92,531.8 C750.83,532.94 751.07,533.91 751.62,534.69 C752.17,535.48 752.98,536.13 754.04,536.64 C755.11,537.14 756.37,537.55 757.82,537.87 C759.28,538.19 760.87,538.44 762.59,538.65 C762.59,538.65 767.72,539.28 767.72,539.28 C767.72,539.28 766.52,538.2 766.52,538.2 C766.52,538.2 765.83,547.47 765.83,547.47 C765.83,547.47 767.15,546.51 767.15,546.51 C767.15,546.51 750.28,545.26 750.28,545.26 C750.28,545.26 749.95,549.82 749.95,549.82 C749.95,549.82 769.44,551.27 769.44,551.27 C769.44,551.27 770.61,535.5 770.61,535.5 C770.61,535.5 763.11,534.61 763.11,534.61 C762.12,534.49 761.13,534.35 760.15,534.19 C759.17,534.03 758.3,533.82 757.52,533.55 C756.74,533.29 756.14,532.93 755.71,532.48 C755.28,532.04 755.09,531.43 755.15,530.68 C755.16,530.56 755.18,530.42 755.21,530.28 C755.25,530.14 755.28,529.98 755.32,529.81 C755.32,529.81 751.5,529.31 751.5,529.31 C751.35,529.76 751.22,530.2 751.11,530.62z"
            />
            <path
                id="_R_G_L_11_G_D_37_P_0"
                fill="#2a85d3"
                fill-opacity="1"
                fill-rule="nonzero"
                d="M751.19 523.29 C751.19,523.29 767.95,522.96 767.95,522.96 C767.95,522.96 766.83,521.92 766.83,521.92 C766.83,521.92 766.99,529.82 766.99,529.82 C766.99,529.82 770.87,529.74 770.87,529.74 C770.87,529.74 770.51,511.45 770.51,511.45 C770.51,511.45 766.63,511.52 766.63,511.52 C766.63,511.52 766.79,519.46 766.79,519.46 C766.79,519.46 767.86,518.38 767.86,518.38 C767.86,518.38 751.1,518.71 751.1,518.71 C751.1,518.71 751.19,523.29 751.19,523.29z"
            />
         


        <path
            id="_R_G_L_11_G_D_38_P_0"
            fill="#2a85d3"
            fill-opacity="1"
            fill-rule="nonzero"
            d="M774.02 506.22 C774.62,506.71 775.32,506.91 776.12,506.84
               C776.87,506.77 777.47,506.44 777.92,505.85
               C778.37,505.26 778.56,504.54 778.48,503.69
               C778.4,502.84 778.08,502.16 777.51,501.66
               C776.94,501.16 776.26,500.95 775.48,501.02
               C774.73,501.09 774.11,501.42 773.63,502.01
               C773.14,502.61 772.94,503.33 773.01,504.18
               C773.09,505.05 773.43,505.73 774.02,506.22z"
        />
        <path
            id="_R_G_L_11_G_D_39_P_0"
            fill="#2a85d3"
            fill-opacity="1"
            fill-rule="nonzero"
            d="M763.51 483.08
               C763.51,483.08 764.32,487.81 764.32,487.81
               C764.51,488.96 764.47,489.87 764.19,490.52
               C763.9,491.18 763.36,491.57 762.57,491.71
               C761.8,491.84 761.15,491.65 760.63,491.13
               C760.11,490.61 759.75,489.78 759.55,488.62
               C759.55,488.62 758.75,483.9 758.75,483.9
               C758.75,483.9 763.51,483.08 763.51,483.08z

               M755.75 484.41
               C755.75,484.41 756.66,489.71 756.66,489.71
               C756.87,490.94 756.82,491.88 756.51,492.52
               C756.2,493.17 755.61,493.57 754.74,493.71
               C753.92,493.85 753.26,493.65 752.76,493.09
               C752.26,492.53 751.9,491.64 751.69,490.41
               C751.69,490.41 750.81,485.25 750.81,485.25
               C750.81,485.25 755.75,484.41 755.75,484.41z

               M748.47 491.33
               C748.91,493.93 749.72,495.79 750.89,496.9
               C752.06,498.01 753.49,498.42 755.2,498.13
               C756.84,497.85 757.98,497.07 758.64,495.78
               C759.3,494.49 759.43,492.68 759.03,490.35
               C759.03,490.35 757.82,490 757.82,490
               C758.17,492.06 758.9,493.65 759.99,494.75
               C761.08,495.85 762.41,496.27 763.97,496
               C765.56,495.73 766.67,494.85 767.31,493.37
               C767.95,491.89 768.07,489.98 767.67,487.64
               C767.67,487.64 766.06,478.23 766.06,478.23
               C766.06,478.23 746.79,481.52 746.79,481.52
               C746.79,481.52 748.47,491.33 748.47,491.33z"
        />
        <path
            id="_R_G_L_11_G_D_40_P_0"
            fill="#2a85d3"
            fill-opacity="1"
            fill-rule="nonzero"
            d="M745.98 474.12
               C747.14,475.3 748.52,476.06 750.14,476.39
               C750.14,476.39 751.16,472.46 751.16,472.46
               C750.11,472.14 749.26,471.64 748.61,470.95
               C747.96,470.26 747.5,469.44 747.23,468.5
               C746.93,467.42 746.89,466.38 747.12,465.38
               C747.34,464.38 747.83,463.51 748.57,462.77
               C749.31,462.03 750.29,461.49 751.52,461.14
               C752.74,460.8 753.86,460.75 754.88,461
               C755.9,461.24 756.76,461.73 757.48,462.47
               C758.19,463.21 758.7,464.12 759,465.2
               C759.27,466.14 759.3,467.07 759.11,468
               C758.91,468.93 758.45,469.8 757.71,470.62
               C757.71,470.62 760.64,473.44 760.64,473.44
               C761.86,472.31 762.65,470.94 763,469.34
               C763.35,467.73 763.26,466.02 762.75,464.18
               C762.19,462.21 761.29,460.57 760.03,459.26
               C758.78,457.95 757.31,457.07 755.62,456.61
               C753.93,456.14 752.15,456.17 750.27,456.7
               C748.41,457.22 746.88,458.12 745.67,459.4
               C744.45,460.68 743.65,462.21 743.25,463.98
               C742.84,465.75 742.92,467.62 743.47,469.6
               C743.99,471.43 744.82,472.94 745.98,474.12z"
        />
        <path
            id="_R_G_L_11_G_D_41_P_0"
            fill="#2a85d3"
            fill-opacity="1"
            fill-rule="nonzero"
            d="M730.9 434.36
               C730.63,432.89 730.56,431.49 730.68,430.15
               C730.68,430.15 734.31,429.93 734.31,429.93
               C734.21,431.02 734.27,432.17 734.49,433.38
               C734.71,434.59 735.07,435.74 735.55,436.83
               C735.97,437.77 736.43,438.53 736.91,439.11
               C737.4,439.7 737.92,440.09 738.46,440.28
               C739,440.48 739.52,440.47 740.01,440.25
               C740.72,439.93 741.13,439.39 741.22,438.61
               C741.31,437.83 741.11,436.88 740.6,435.74
               C740.6,435.74 739.06,432.3 739.06,432.3
               C739.06,432.3 741.87,431.04 741.87,431.04
               C741.87,431.04 743.26,434.15 743.26,434.15
               C743.58,434.86 743.92,435.44 744.3,435.87
               C744.68,436.3 745.09,436.58 745.52,436.71
               C745.95,436.83 746.38,436.8 746.8,436.61
               C747.23,436.42 747.53,436.1 747.71,435.63
               C747.88,435.16 747.92,434.59 747.82,433.91
               C747.72,433.24 747.48,432.48 747.1,431.63
               C746.7,430.74 746.18,429.87 745.53,429.02
               C744.89,428.18 744.13,427.36 743.27,426.57
               C743.27,426.57 745.87,424.12 745.87,424.12
               C746.89,425.03 747.78,425.96 748.54,426.92
               C749.3,427.87 749.93,428.88 750.43,429.94
               C751.23,431.54 751.71,433.06 751.87,434.51
               C752.04,435.96 751.91,437.22 751.48,438.29
               C751.05,439.37 750.33,440.13 749.3,440.59
               C748.45,440.97 747.57,441.05 746.66,440.83
               C745.75,440.61 744.9,440.13 744.12,439.4
               C743.34,438.67 742.69,437.72 742.17,436.56
               C742.17,436.56 743.13,436.29 743.13,436.29
               C744.02,438.27 744.32,440.01 744.04,441.5
               C743.75,442.99 742.93,444.04 741.57,444.65
               C740.48,445.13 739.35,445.2 738.19,444.84
               C737.03,444.47 735.92,443.76 734.88,442.69
               C733.84,441.61 732.95,440.25 732.22,438.61
               C731.61,437.25 731.17,435.83 730.9,434.36z"
        />
        <path
            id="_R_G_L_11_G_D_42_P_0"
            fill="#2a85d3"
            fill-opacity="1"
            fill-rule="nonzero"
            d="M726.18 424.31
               C727.32,425.19 728.55,425.76 729.88,426.01
               C729.88,426.01 731.1,422.48 731.1,422.48
               C730.13,422.25 729.27,421.84 728.54,421.25
               C727.8,420.66 727.16,419.89 726.62,418.93
               C725.99,417.83 725.64,416.74 725.57,415.65
               C725.51,414.56 725.74,413.56 726.25,412.64
               C726.77,411.73 727.53,410.98 728.55,410.4
               C728.55,410.4 729.18,410.03 729.18,410.03
               C730.2,409.45 731.2,409.15 732.19,409.13
               C733.18,409.11 734.09,409.34 734.93,409.83
               C735.78,410.32 736.48,411.04 737.04,412.02
               C737.58,412.97 737.86,413.93 737.85,414.91
               C737.85,415.88 737.6,416.79 737.1,417.64
               C736.6,418.49 735.86,419.18 734.88,419.72
               C734.88,419.72 736.6,420.8 736.6,420.8
               C736.6,420.8 729.68,408.77 729.68,408.77
               C729.68,408.77 727.05,410.29 727.05,410.29
               C727.05,410.29 735.17,424.41 735.17,424.41
               C735.37,424.32 735.58,424.22 735.8,424.11
               C736.01,424 736.21,423.89 736.38,423.8
               C738.15,422.77 739.48,421.52 740.37,420.02
               C741.26,418.53 741.69,416.93 741.67,415.23
               C741.64,413.52 741.16,411.84 740.21,410.19
               C739.24,408.5 738,407.21 736.5,406.31
               C735,405.41 733.38,404.96 731.65,404.96
               C729.92,404.96 728.21,405.44 726.51,406.41
               C724.84,407.38 723.57,408.62 722.71,410.14
               C721.84,411.67 721.43,413.35 721.49,415.19
               C721.55,417.03 722.12,418.89 723.2,420.77
               C724.05,422.25 725.04,423.43 726.18,424.31z"
        />
        <path
            id="_R_G_L_11_G_D_43_P_0"
            fill="#2a85d3"
            fill-opacity="1"
            fill-rule="nonzero"
            d="M711.97 395.85
               C711.85,394.87 711.99,393.92 712.39,393.02
               C712.79,392.13 713.4,391.37 714.23,390.77
               C715.03,390.17 715.89,389.84 716.79,389.77
               C717.69,389.7 718.57,389.88 719.44,390.32
               C720.31,390.75 721.07,391.42 721.72,392.3
               C722.4,393.23 722.8,394.16 722.92,395.12
               C723.05,396.07 722.94,396.96 722.6,397.8
               C722.27,398.64 721.69,399.36 720.86,399.97
               C720.03,400.58 719.15,400.94 718.2,401.04
               C717.25,401.15 716.33,401.01 715.45,400.61
               C714.57,400.22 713.8,399.58 713.15,398.69
               C712.48,397.79 712.09,396.84 711.97,395.85z

               M714.24 404.41
               C715.83,405.23 717.44,405.58 719.08,405.46
               C720.72,405.34 722.27,404.75 723.72,403.68
               C725.12,402.66 726.13,401.41 726.75,399.96
               C727.38,398.5 727.57,396.97 727.35,395.39
               C727.12,393.8 726.46,392.27 725.38,390.79
               C724.57,389.69 723.63,388.81 722.56,388.16
               C721.49,387.51 720.34,387.1 719.11,386.93
               C717.88,386.76 716.62,386.84 715.32,387.19
               C715.32,387.19 714.9,389.64 714.9,389.64
               C715.29,389.35 715.58,389.11 715.76,388.93
               C715.95,388.75 716.12,388.58 716.29,388.41
               C716.45,388.24 716.72,388.02 717.1,387.75
               C718.32,386.85 719.44,386.25 720.46,385.93
               C721.49,385.62 722.43,385.5 723.29,385.58
               C724.15,385.66 724.92,385.86 725.61,386.19
               C726.29,386.52 726.9,386.9 727.43,387.31
               C727.96,387.72 728.4,388.08 728.75,388.4
               C728.75,388.4 734.99,394.04 734.99,394.04
               C734.99,394.04 737.9,391.08 737.9,391.08
               C737.9,391.08 730.96,384.92 730.96,384.92
               C729.9,383.97 728.83,383.21 727.75,382.64
               C726.66,382.08 725.56,381.7 724.42,381.52
               C723.29,381.34 722.15,381.34 720.99,381.52
               C719.84,381.7 718.66,382.07 717.46,382.62
               C716.26,383.17 715.03,383.91 713.77,384.83
               C712.04,386.1 710.69,387.4 709.72,388.72
               C708.75,390.03 708.13,391.36 707.86,392.7
               C707.59,394.04 707.63,395.36 707.99,396.67
               C708.34,397.98 709,399.29 709.95,400.59
               C711.23,402.32 712.65,403.59 714.24,404.41z"
        />
        <path
            id="_R_G_L_11_G_D_44_P_0"
            fill="#2a85d3"
            fill-opacity="1"
            fill-rule="nonzero"
            d="M693.5 379.27
               C694.94,379.88 696.4,380.14 697.86,380.05
               C697.86,380.05 697.8,376.37 697.8,376.37
               C696.71,376.39 695.69,376.21 694.74,375.81
               C693.79,375.42 692.92,374.83 692.12,374.04
               C691.21,373.13 690.58,372.12 690.25,371.02
               C689.92,369.91 689.89,368.82 690.16,367.73
               C690.43,366.64 691.01,365.65 691.91,364.75
               C692.8,363.85 693.79,363.26 694.88,362.98
               C695.96,362.7 697.06,362.72 698.17,363.04
               C699.27,363.37 700.28,363.98 701.2,364.89
               C702,365.68 702.6,366.55 703.01,367.49
               C703.42,368.43 703.61,369.44 703.6,370.53
               C703.6,370.53 707.28,370.57 707.28,370.57
               C707.36,369.1 707.09,367.65 706.47,366.21
               C705.85,364.77 704.91,363.42 703.65,362.17
               C702.18,360.71 700.56,359.72 698.79,359.2
               C697.01,358.68 695.27,358.62 693.56,359.03
               C691.84,359.45 690.29,360.35 688.9,361.76
               C687.52,363.14 686.62,364.7 686.21,366.44
               C685.79,368.17 685.86,369.92 686.41,371.66
               C686.96,373.41 687.97,375.02 689.44,376.48
               C690.7,377.73 692.06,378.67 693.5,379.27z

               M691.98 362.65
               C691.98,362.65 689.66,364.99 689.66,364.99
               C689.66,364.99 697.19,372.47 697.19,372.47
               C697.19,372.47 699.51,370.13 699.51,370.13
               C699.51,370.13 691.98,362.65 691.98,362.65z"
        />
        <path
            id="_R_G_L_11_G_D_45_P_0"
            fill="#2a85d3"
            fill-opacity="1"
            fill-rule="nonzero"
            d="M672.44 355.13
               C672.07,354.21 671.97,353.23 672.13,352.22
               C672.3,351.21 672.76,350.2 673.54,349.19
               C674.31,348.19 675.17,347.47 676.11,347.04
               C677.06,346.61 678.01,346.46 678.99,346.6
               C679.96,346.73 680.88,347.12 681.73,347.78
               C682.58,348.43 683.19,349.21 683.56,350.11
               C683.93,351.01 684.03,351.97 683.86,352.99
               C683.69,354.01 683.22,355.03 682.45,356.03
               C681.68,357.04 680.82,357.75 679.88,358.17
               C678.95,358.59 677.99,358.75 677.01,358.64
               C676.03,358.54 675.1,358.15 674.23,357.48
               C673.4,356.84 672.8,356.06 672.44,355.13z

               M676.82 362.74
               C678.55,362.99 680.22,362.78 681.85,362.1
               C683.47,361.43 684.87,360.33 686.05,358.8
               C687.24,357.25 687.94,355.61 688.17,353.87
               C688.39,352.14 688.16,350.47 687.46,348.88
               C686.76,347.28 685.63,345.88 684.06,344.68
               C682.51,343.49 680.88,342.76 679.16,342.5
               C677.43,342.24 675.76,342.44 674.15,343.11
               C672.53,343.77 671.12,344.88 669.94,346.43
               C668.76,347.96 668.06,349.59 667.84,351.33
               C667.61,353.06 667.84,354.73 668.53,356.35
               C669.21,357.97 670.32,359.37 671.87,360.56
               C673.44,361.76 675.09,362.49 676.82,362.74z

               M661.49 352.26
               C661.49,352.26 666.26,346.05 666.26,346.05
               C666.26,346.05 670.87,349.59 670.87,349.59
               C670.87,349.59 673.39,346.31 673.39,346.31
               C673.39,346.31 668.78,342.77 668.78,342.77
               C668.78,342.77 673.39,336.76 673.39,336.76
               C673.39,336.76 669.76,333.98 669.76,333.98
               C669.76,333.98 657.86,349.48 657.86,349.48
               C657.86,349.48 661.49,352.26 661.49,352.26z"
        />
        <path
            id="_R_G_L_11_G_D_46_P_0"
            fill="#2a85d3"
            fill-opacity="1"
            fill-rule="nonzero"
            d="M652.24 351.08
               C652.24,351.08 656.31,343.92 656.31,343.92
               C656.31,343.92 649.76,340.19 649.76,340.19
               C649.76,340.19 647.84,343.56 647.84,343.56
               C647.84,343.56 651.59,345.7 651.59,345.7
               C651.59,345.7 650.72,345.08 650.72,345.08
               C650.72,345.08 648.52,348.96 648.52,348.96
               C648.52,348.96 652.24,351.08 652.24,351.08z

               M651.81 345.83
               C651.81,345.83 661.48,328.84 661.48,328.84
               C661.48,328.84 657.5,326.58 657.5,326.58
               C657.5,326.58 649.76,340.19 649.76,340.19
               C649.76,340.19 641.64,335.58 641.64,335.58
               C641.64,335.58 649.39,321.96 649.39,321.96
               C649.39,321.96 645.41,319.7 645.41,319.7
               C645.41,319.7 635.75,336.69 635.75,336.69
               C635.75,336.69 651.81,345.83 651.81,345.83z"
        />
        <path
            id="_R_G_L_11_G_D_47_P_0"
            fill="#2a85d3"
            fill-opacity="1"
            fill-rule="nonzero"
            d="M625.22 331.16
               C626.52,331.02 627.59,330.52 628.44,329.63
               C628.44,329.63 628.82,326.81 628.82,326.81
               C628.06,327.57 627.18,328.02 626.16,328.14
               C625.14,328.26 624.11,328.1 623.08,327.65
               C622,327.19 621.26,326.61 620.84,325.9
               C620.43,325.19 620.39,324.46 620.71,323.7
               C621,323.02 621.49,322.56 622.18,322.31
               C622.87,322.07 623.93,322.25 625.37,322.86
               C625.37,322.86 630.28,324.96 630.28,324.96
               C630.28,324.96 631.48,322.17 631.48,322.17
               C631.48,322.17 626.26,319.94 626.26,319.94
               C624.44,319.16 622.89,318.77 621.59,318.77
               C620.28,318.78 619.22,319.08 618.39,319.68
               C617.56,320.28 616.94,321.08 616.5,322.09
               C616.06,323.13 615.94,324.17 616.14,325.22
               C616.34,326.28 616.84,327.25 617.66,328.14
               C618.47,329.03 619.55,329.77 620.89,330.34
               C622.49,331.03 623.93,331.3 625.22,331.16z

               M630.62 334.23
               C630.62,334.23 635.13,323.69 635.13,323.69
               C636.24,321.09 636.35,318.86 635.46,317.01
               C634.57,315.15 632.82,313.67 630.22,312.56
               C628.78,311.94 627.32,311.53 625.83,311.33
               C624.33,311.13 622.94,311.2 621.66,311.52
               C621.66,311.52 622,315.29 622,315.29
               C622.92,315.02 623.93,314.93 625.04,315.04
               C626.15,315.14 627.21,315.41 628.22,315.84
               C629.72,316.48 630.69,317.31 631.14,318.31
               C631.59,319.31 631.55,320.43 631.02,321.66
               C631.02,321.66 628.3,328.02 628.3,328.02
               C628.3,328.02 628.2,328.89 628.2,328.89
               C628.2,328.89 626.65,332.53 626.65,332.53
               C626.65,332.53 630.62,334.23 630.62,334.23z"
        />
        <path
            id="_R_G_L_11_G_D_48_P_0"
            fill="#2a85d3"
            fill-opacity="1"
            fill-rule="nonzero"
            d="M600.22 318.14
               C599.52,317.42 599.05,316.54 598.83,315.51
               C598.61,314.47 598.68,313.35 599.04,312.16
               C599.41,310.95 599.97,309.98 600.72,309.25
               C601.48,308.52 602.35,308.05 603.33,307.84
               C604.31,307.63 605.32,307.68 606.38,308
               C607.43,308.31 608.3,308.83 608.99,309.55
               C609.67,310.27 610.13,311.14 610.36,312.16
               C610.58,313.19 610.51,314.31 610.15,315.52
               C609.79,316.71 609.23,317.68 608.47,318.42
               C607.71,319.16 606.84,319.63 605.87,319.85
               C604.9,320.07 603.89,320.02 602.84,319.7
               C601.79,319.38 600.92,318.86 600.22,318.14z

               M594.23 328.34
               C594.23,328.34 597.6,317.2 597.6,317.2
               C597.6,317.2 598.75,312.12 598.75,312.12
               C598.75,312.12 600.39,307.18 600.39,307.18
               C600.39,307.18 601.72,302.77 601.72,302.77
               C601.72,302.77 597.55,301.51 597.55,301.51
               C597.55,301.51 589.85,327.01 589.85,327.01
               C589.85,327.01 594.23,328.34 594.23,328.34z

               M607.45 323.88
               C609.1,323.51 610.56,322.74 611.82,321.55
               C613.08,320.36 614.01,318.8 614.59,316.86
               C615.18,314.92 615.27,313.12 614.88,311.44
               C614.48,309.77 613.69,308.32 612.52,307.1
               C611.34,305.88 609.83,304.99 607.99,304.43
               C606.4,303.95 604.88,303.87 603.44,304.18
               C601.99,304.5 600.7,305.25 599.56,306.44
               C598.43,307.62 597.53,309.31 596.87,311.51
               C596.21,313.68 596.04,315.58 596.35,317.22
               C596.65,318.86 597.33,320.21 598.37,321.29
               C599.4,322.37 600.68,323.14 602.2,323.6
               C604.05,324.15 605.79,324.25 607.45,323.88z"
        />
        <path
            id="_R_G_L_11_G_D_49_P_0"
            fill="#2a85d3"
            fill-opacity="1"
            fill-rule="nonzero"
            d="M567.65 315.67
               C567.65,315.67 571.34,293.21 571.34,293.21
               C571.34,293.21 570.07,294.19 570.07,294.19
               C570.07,294.19 585.34,296.7 585.34,296.7
               C585.34,296.7 584.45,295.37 584.45,295.37
               C584.45,295.37 580.76,317.83 580.76,317.83
               C580.76,317.83 585.38,318.59 585.38,318.59
               C585.38,318.59 589.54,293.31 589.54,293.31
               C589.54,293.31 567.18,289.63 567.18,289.63
               C567.18,289.63 563.02,314.92 563.02,314.92
               C563.02,314.92 567.65,315.67 567.65,315.67z"
        />
    </g>
    <g
        id="_R_G_L_10_G"
        transform="translate(256, 256) translate(-539.685, -521.112)"
    >
        <path
            id="_R_G_L_10_G_D_0_P_0"
            fill="#4d4d4d"
            fill-opacity="1"
            fill-rule="nonzero"
            d="M582.73 409.15
               C582.73,409.15 567.87,409.15 567.87,409.15
               C567.87,409.15 567.87,408.7 567.87,408.7
               C567.87,405.14 563.43,402.29 557.92,402.29
               C557.92,402.29 519.01,402.29 519.01,402.29
               C513.53,402.29 509.07,405.14 509.07,408.7
               C509.07,408.7 509.07,409.15 509.07,409.15
               C509.07,409.15 496.66,409.15 496.66,409.15
               C484.51,409.15 474.66,418.98 474.66,431.12
               C474.66,431.12 474.66,617.94 474.66,617.94
               C474.66,630.09 484.5,639.93 496.65,639.93
               C496.65,639.93 582.73,639.93 582.73,639.93
               C594.88,639.93 604.71,630.09 604.71,617.94
               C604.71,617.94 604.71,431.12 604.71,431.12
               C604.71,418.98 594.88,409.15 582.73,409.15z

               M599.56 613.27
               C599.56,624.71 590.49,633.99 579.32,633.99
               C579.32,633.99 500.05,633.99 500.05,633.99
               C488.87,633.99 479.82,624.71 479.82,613.27
               C479.82,613.27 479.82,437.19 479.82,437.19
               C479.82,425.76 488.87,416.45 500.05,416.45
               C500.05,416.45 579.32,416.45 579.32,416.45
               C590.49,416.45 599.56,425.76 599.56,437.19
               C599.56,437.19 599.56,613.27 599.56,613.27z"
        />
    </g>
    <g
        id="_R_G_L_9_G"
        transform="translate(256.012, 178.125)"
    >
        <path
            id="_R_G_L_9_G_D_0_P_0"
            fill="#e5f1ff"
            fill-opacity="1"
            fill-rule="nonzero"
            d="M583.57 460.77
               C583.57,460.77 495.82,460.77 495.82,460.77
               C491,460.77 487.1,456.86 487.1,452.04
               C487.1,452.04 487.1,434.43 487.1,434.43
               C487.1,429.62 491,425.71 495.82,425.71
               C495.82,425.71 583.57,425.71 583.57,425.71
               C588.39,425.71 592.3,429.62 592.3,434.43
               C592.3,434.43 592.3,452.04 592.3,452.04
               C592.3,456.86 588.39,460.77 583.57,460.77z"
        />
    </g>
    <g
        id="_R_G_L_8_G"
        transform="translate(256.012, 219.02)"
    >
        <path
            id="_R_G_L_8_G_D_0_P_0"
            fill="#e5f1ff"
            fill-opacity="1"
            fill-rule="nonzero"
            d="M583.57 501.66
               C583.57,501.66 495.82,501.66 495.82,501.66
               C491,501.66 487.1,497.76 487.1,492.94
               C487.1,492.94 487.1,475.33 487.1,475.33
               C487.1,470.51 491,466.6 495.82,466.6
               C495.82,466.6 583.57,466.6 583.57,466.6
               C588.39,466.6 592.3,470.51 592.3,475.33
               C592.3,475.33 592.3,492.94 592.3,492.94
               C592.3,497.76 588.39,501.66 583.57,501.66z"
        />
    </g>
    <g
        id="_R_G_L_7_G"
        transform="translate(256.012, 260.301)"
    >
        <path
            id="_R_G_L_7_G_D_0_P_0"
            fill="#e5f1ff"
            fill-opacity="1"
            fill-rule="nonzero"
            d="M583.57 542.94
               C583.57,542.94 495.82,542.94 495.82,542.94
               C491,542.94 487.1,539.04 487.1,534.22
               C487.1,534.22 487.1,516.61 487.1,516.61
               C487.1,511.79 491,507.88 495.82,507.88
               C495.82,507.88 583.57,507.88 583.57,507.88
               C588.39,507.88 592.3,511.79 592.3,516.61
               C592.3,516.61 592.3,534.22 592.3,534.22
               C592.3,539.04 588.39,542.94 583.57,542.94z"
        />
    </g>
    <g
        id="_R_G_L_6_G"
        transform="translate(256.012, 301.196)"
    >
        <path
            id="_R_G_L_6_G_D_0_P_0"
            fill="#e5f1ff"
            fill-opacity="1"
            fill-rule="nonzero"
            d="M583.57 583.84
               C583.57,583.84 495.82,583.84 495.82,583.84
               C491,583.84 487.1,579.93 487.1,575.11
               C487.1,575.11 487.1,557.5 487.1,557.5
               C487.1,552.68 491,548.78 495.82,548.78
               C495.82,548.78 583.57,548.78 583.57,548.78
               C588.39,548.78 592.3,552.68 592.3,557.5
               C592.3,557.5 592.3,575.11 592.3,575.11
               C592.3,579.93 588.39,583.84 583.57,583.84z"
        />
    </g>
    <g
        id="_R_G_L_5_G"
        transform="translate(256.012, 342.09)"
    >
        <path
            id="_R_G_L_5_G_D_0_P_0"
            fill="#e5f1ff"
            fill-opacity="1"
            fill-rule="nonzero"
            d="M583.57 624.73
               C583.57,624.73 495.82,624.73 495.82,624.73
               C491,624.73 487.1,620.83 487.1,616.01
               C487.1,616.01 487.1,598.4 487.1,598.4
               C487.1,593.58 491,589.67 495.82,589.67
               C495.82,589.67 583.57,589.67 583.57,589.67
               C588.39,589.67 592.3,593.58 592.3,598.4
               C592.3,598.4 592.3,616.01 592.3,616.01
               C592.3,620.83 588.39,624.73 583.57,624.73z"
        />
    </g>

    <!-- Анимированный слой, просто группа без фигур -->
    <g id="time_group" />
</svg>