<svg xmlns="http://www.w3.org/2000/svg" xmlns:xlink="http://www.w3.org/1999/xlink" preserveAspectRatio="xMidYMid meet" width="512" height="512" viewBox="0 0 512 512" style="width:100%;height:100%"><defs><animateTransform repeatCount="indefinite" dur="5s" begin="0s" xlink:href="#_R_G_L_9_G" fill="freeze" attributeName="transform" from="1 1" to="1 1" type="scale" additive="sum" keyTimes="0;0.3;0.35;0.4;1" values="1 1;1 1;1.1 1.1;1 1;1 1" keySplines="0.333 0 0.667 1;0.333 0 0.667 1;0.333 0 0.667 1;0 0 0 0" calcMode="spline"/><animateTransform repeatCount="indefinite" dur="5s" begin="0s" xlink:href="#_R_G_L_9_G" fill="freeze" attributeName="transform" from="-539.697 -443.238" to="-539.697 -443.238" type="translate" additive="sum" keyTimes="0;1" values="-539.697 -443.238;-539.697 -443.238" keySplines="0 0 1 1" calcMode="spline"/><animateTransform repeatCount="indefinite" dur="5s" begin="0s" xlink:href="#_R_G_L_8_G" fill="freeze" attributeName="transform" from="1 1" to="1 1" type="scale" additive="sum" keyTimes="0;0.23;0.28;0.33;1" values="1 1;1 1;1.1 1.1;1 1;1 1" keySplines="0.333 0 0.667 1;0.333 0 0.667 1;0.333 0 0.667 1;0 0 0 0" calcMode="spline"/><animateTransform repeatCount="indefinite" dur="5s" begin="0s" xlink:href="#_R_G_L_8_G" fill="freeze" attributeName="transform" from="-539.697 -484.133" to="-539.697 -484.133" type="translate" additive="sum" keyTimes="0;1" values="-539.697 -484.133;-539.697 -484.133" keySplines="0 0 1 1" calcMode="spline"/><animateTransform repeatCount="indefinite" dur="5s" begin="0s" xlink:href="#_R_G_L_7_G" fill="freeze" attributeName="transform" from="1 1" to="1 1" type="scale" additive="sum" keyTimes="0;0.16;0.21;0.26;1" values="1 1;1 1;1.1 1.1;1 1;1 1" keySplines="0.333 0 0.667 1;0.333 0 0.667 1;0.333 0 0.667 1;0 0 0 0" calcMode="spline"/><animateTransform repeatCount="indefinite" dur="5s" begin="0s" xlink:href="#_R_G_L_7_G" fill="freeze" attributeName="transform" from="-539.697 -525.413" to="-539.697 -525.413" type="translate" additive="sum" keyTimes="0;1" values="-539.697 -525.413;-539.697 -525.413" keySplines="0 0 1 1" calcMode="spline"/><animateTransform repeatCount="indefinite" dur="5s" begin="0s" xlink:href="#_R_G_L_6_G" fill="freeze" attributeName="transform" from="1 1" to="1 1" type="scale" additive="sum" keyTimes="0;0.09;0.14;0.19;1" values="1 1;1 1;1.1 1.1;1 1;1 1" keySplines="0.333 0 0.667 1;0.333 0 0.667 1;0.333 0 0.667 1;0 0 0 0" calcMode="spline"/><animateTransform repeatCount="indefinite" dur="5s" begin="0s" xlink:href="#_R_G_L_6_G" fill="freeze" attributeName="transform" from="-539.697 -566.308" to="-539.697 -566.308" type="translate" additive="sum" keyTimes="0;1" values="-539.697 -566.308;-539.697 -566.308" keySplines="0 0 1 1" calcMode="spline"/><animateTransform repeatCount="indefinite" dur="5s" begin="0s" xlink:href="#_R_G_L_5_G" fill="freeze" attributeName="transform" from="1 1" to="1 1" type="scale" additive="sum" keyTimes="0;0.02;0.07;0.12;1" values="1 1;1 1;1.1 1.1;1 1;1 1" keySplines="0.333 0 0.667 1;0.333 0 0.667 1;0.333 0 0.667 1;0 0 0 0" calcMode="spline"/><animateTransform repeatCount="indefinite" dur="5s" begin="0s" xlink:href="#_R_G_L_5_G" fill="freeze" attributeName="transform" from="-539.697 -607.202" to="-539.697 -607.202" type="translate" additive="sum" keyTimes="0;1" values="-539.697 -607.202;-539.697 -607.202" keySplines="0 0 1 1" calcMode="spline"/><animate repeatCount="indefinite" dur="5s" begin="0s" xlink:href="#_R_G_L_4_G_D_1_P_0" fill="freeze" attributeName="fill" from="#79ce3a" to="#79ce3a" keyTimes="0;0.28;0.29;0.3;0.31;0.32;0.33;0.34;0.35;0.36;0.37;0.38;0.39;0.4;0.41;0.42;0.43;0.44;0.45;0.46;0.47;0.48;0.49;0.5;0.51;0.52;0.53;0.54;0.55;0.56;0.57;0.58;0.59;0.6;0.61;0.62;0.63;0.64;0.65;0.66;0.67;0.68;0.69;0.7;0.71;0.72;0.73;0.74;0.75;0.76;0.77;0.78;0.79;0.8;0.81;0.82;0.83;0.84;0.85;0.86;0.87;0.88;0.89;0.9;0.91;0.92;0.93;0.94;0.95;0.96;0.97;0.98;0.99;1" values="#79ce3a;#79ce3a;#73ce3a;#6dce3a;#67ce3a;#61ce3a;#61ce3a;#61ce3a;#61ce3a;#61ce3a;#61ce3a;#61ce3a;#61ce3a;#61ce3a;#61ce3a;#61ce3a;#61ce3a;#61ce3a;#61ce3a;#61ce3a;#61ce3a;#61ce3a;#61ce3a;#61ce3a;#61ce3a;#61ce3a;#61ce3a;#61ce3a;#61ce3a;#61ce3a;#61ce3a;#61ce3a;#61ce3a;#61ce3a;#61ce3a;#61ce3a;#61ce3a;#61ce3a;#61ce3a;#61ce3a;#61ce3a;#61ce3a;#61ce3a;#61ce3a;#61ce3a;#61ce3a;#61ce3a;#61ce3a;#61ce3a;#61ce3a;#61ce3a;#61ce3a;#61ce3a;#61ce3a;#61ce3a;#61ce3a;#61ce3a;#61ce3a;#61ce3a;#61ce3a;#61ce3a;#61ce3a;#61ce3a;#61ce3a;#61ce3a;#61ce3a;#61ce3a;#61ce3a;#61ce3a;#61ce3a;#61ce3a;#61ce3a;#61ce3a;#61ce3a" keySplines="0.167 0 0.833 1;0.167 0 0.833 1;0.167 0 0.833 1;0.167 0 0.833 1;0.167 0 0.833 1;0.167 0.503 0.833 1;0.167 0 0.833 1;0.167 0 0.833 1;0.167 0 0.833 1;0.167 0 0.833 1;0.167 0 0.833 1;0.167 0 0.833 1;0.167 0 0.833 1;0.167 0 0.833 1;0.167 0 0.833 1;0.167 0 0.833 1;0.167 0 0.833 1;0.167 0 0.833 1;0.167 0 0.833 1;0.167 0 0.833 1;0.167 0 0.833 1;0.167 0 0.833 1;0.167 0 0.833 1;0.167 0 0.833 1;0.167 0 0.833 1;0.167 0 0.833 1;0.167 0 0.833 1;0.167 0 0.833 1;0.167 0 0.833 1;0.167 0 0.833 1;0.167 0 0.833 1;0.167 0 0.833 1;0.167 0 0.833 1;0.167 0 0.833 1;0.167 0 0.833 1;0.167 0 0.833 1;0.167 0 0.833 1;0.167 0 0.833 1;0.167 0 0.833 1;0.167 0 0.833 1;0.167 0 0.833 1;0.167 0 0.833 1;0.167 0 0.833 1;0.167 0 0.833 1;0.167 0 0.833 1;0.167 0 0.833 1;0.167 0 0.833 1;0.167 0 0.833 1;0.167 0 0.833 1;0.167 0 0.833 1;0.167 0 0.833 1;0.167 0 0.833 1;0.167 0 0.833 1;0.167 0 0.833 1;0.167 0 0.833 1;0.167 0 0.833 1;0.167 0 0.833 1;0.167 0 0.833 1;0.167 0 0.833 1;0.167 0 0.833 1;0.167 0 0.833 1;0.167 0 0.833 1;0.167 0 0.833 1;0.167 0 0.833 1;0.167 0 0.833 1;0.167 0 0.833 1;0.167 0 0.833 1;0.167 0 0.833 1;0.167 0 0.833 1;0.167 0 0.833 1;0.167 0 0.833 1;0.167 0 0.833 1;0.167 0 0.833 1" calcMode="spline"/><animateTransform repeatCount="indefinite" dur="5s" begin="0s" xlink:href="#_R_G_L_4_G" fill="freeze" attributeName="transform" from="1 0" to="1 1" type="scale" additive="sum" keyTimes="0;0.28;0.35;1" values="1 0;1 0;1 1;1 1" keySplines="0.333 0 0.667 1;0.333 0 0.667 1;0 0 0 0" calcMode="spline"/><animateTransform repeatCount="indefinite" dur="5s" begin="0s" xlink:href="#_R_G_L_4_G" fill="freeze" attributeName="transform" from="-539.697 -460.766" to="-539.697 -460.766" type="translate" additive="sum" keyTimes="0;1" values="-539.697 -460.766;-539.697 -460.766" keySplines="0 0 1 1" calcMode="spline"/><animateTransform repeatCount="indefinite" dur="5s" begin="0s" xlink:href="#_R_G_L_4_G_N_10_T_0" fill="freeze" attributeName="transform" from="1 1" to="1 1" type="scale" additive="sum" keyTimes="0;0.3;0.35;0.4;1" values="1 1;1 1;1.1 1.1;1 1;1 1" keySplines="0.333 0 0.667 1;0.333 0 0.667 1;0.333 0 0.667 1;0 0 0 0" calcMode="spline"/><animateTransform repeatCount="indefinite" dur="5s" begin="0s" xlink:href="#_R_G_L_4_G_N_10_T_0" fill="freeze" attributeName="transform" from="-539.697 -443.238" to="-539.697 -443.238" type="translate" additive="sum" keyTimes="0;1" values="-539.697 -443.238;-539.697 -443.238" keySplines="0 0 1 1" calcMode="spline"/><animate repeatCount="indefinite" dur="5s" begin="0s" xlink:href="#_R_G_L_4_G_N_10_T_0_M" fill="freeze" attributeName="opacity" from="0" to="1" keyTimes="0;0.28;0.280001;1" values="0;0;1;1" keySplines="0 0 0 0;0 0 0 0;0 0 0 0" calcMode="spline"/><animate repeatCount="indefinite" dur="5s" begin="0s" xlink:href="#_R_G_L_3_G_D_1_P_0" fill="freeze" attributeName="fill" from="#a3ce3a" to="#a3ce3a" keyTimes="0;0.21;0.22;0.23;0.24;0.25;0.26;0.27;0.28;0.29;0.3;0.31;0.32;0.33;0.34;0.35;0.36;0.37;0.38;0.39;0.4;0.41;0.42;0.43;0.44;0.45;0.46;0.47;0.48;0.49;0.5;0.51;0.52;0.53;0.54;0.55;0.56;0.57;0.58;0.59;0.6;0.61;0.62;0.63;0.64;0.65;0.66;0.67;0.68;0.69;0.7;0.71;0.72;0.73;0.74;0.75;0.76;0.77;0.78;0.79;0.8;0.81;0.82;0.83;0.84;0.85;0.86;0.87;0.88;0.89;0.9;0.91;0.92;0.93;0.94;0.95;0.96;0.97;0.98;0.99;1" values="#a3ce3a;#a3ce3a;#9dce3a;#97ce3a;#91ce3a;#8bce3a;#85ce3a;#7fce3a;#79ce3a;#73ce3a;#6dce3a;#67ce3a;#61ce3a;#61ce3a;#61ce3a;#61ce3a;#61ce3a;#61ce3a;#61ce3a;#61ce3a;#61ce3a;#61ce3a;#61ce3a;#61ce3a;#61ce3a;#61ce3a;#61ce3a;#61ce3a;#61ce3a;#61ce3a;#61ce3a;#61ce3a;#61ce3a;#61ce3a;#61ce3a;#61ce3a;#61ce3a;#61ce3a;#61ce3a;#61ce3a;#61ce3a;#61ce3a;#61ce3a;#61ce3a;#61ce3a;#61ce3a;#61ce3a;#61ce3a;#61ce3a;#61ce3a;#61ce3a;#61ce3a;#61ce3a;#61ce3a;#61ce3a;#61ce3a;#61ce3a;#61ce3a;#61ce3a;#61ce3a;#61ce3a;#61ce3a;#61ce3a;#61ce3a;#61ce3a;#61ce3a;#61ce3a;#61ce3a;#61ce3a;#61ce3a;#61ce3a;#61ce3a;#61ce3a;#61ce3a;#61ce3a;#61ce3a;#61ce3a;#61ce3a;#61ce3a;#61ce3a;#61ce3a" keySplines="0.167 0 0.833 1;0.167 0 0.833 1;0.167 0 0.833 1;0.167 0 0.833 1;0.167 0 0.833 1;0.167 0 0.833 1;0.167 0 0.833 1;0.167 0 0.833 1;0.167 0 0.833 1;0.167 0 0.833 1;0.167 0 0.833 1;0.167 0 0.833 1;0.167 0.503 0.833 1;0.167 0 0.833 1;0.167 0 0.833 1;0.167 0 0.833 1;0.167 0 0.833 1;0.167 0 0.833 1;0.167 0 0.833 1;0.167 0 0.833 1;0.167 0 0.833 1;0.167 0 0.833 1;0.167 0 0.833 1;0.167 0 0.833 1;0.167 0 0.833 1;0.167 0 0.833 1;0.167 0 0.833 1;0.167 0 0.833 1;0.167 0 0.833 1;0.167 0 0.833 1;0.167 0 0.833 1;0.167 0 0.833 1;0.167 0 0.833 1;0.167 0 0.833 1;0.167 0 0.833 1;0.167 0 0.833 1;0.167 0 0.833 1;0.167 0 0.833 1;0.167 0 0.833 1;0.167 0 0.833 1;0.167 0 0.833 1;0.167 0 0.833 1;0.167 0 0.833 1;0.167 0 0.833 1;0.167 0 0.833 1;0.167 0 0.833 1;0.167 0 0.833 1;0.167 0 0.833 1;0.167 0 0.833 1;0.167 0 0.833 1;0.167 0 0.833 1;0.167 0 0.833 1;0.167 0 0.833 1;0.167 0 0.833 1;0.167 0 0.833 1;0.167 0 0.833 1;0.167 0 0.833 1;0.167 0 0.833 1;0.167 0 0.833 1;0.167 0 0.833 1;0.167 0 0.833 1;0.167 0 0.833 1;0.167 0 0.833 1;0.167 0 0.833 1;0.167 0 0.833 1;0.167 0 0.833 1;0.167 0 0.833 1;0.167 0 0.833 1;0.167 0 0.833 1;0.167 0 0.833 1;0.167 0 0.833 1;0.167 0 0.833 1;0.167 0 0.833 1;0.167 0 0.833 1;0.167 0 0.833 1;0.167 0 0.833 1;0.167 0 0.833 1;0.167 0 0.833 1;0.167 0 0.833 1;0.167 0 0.833 1" calcMode="spline"/><animateTransform repeatCount="indefinite" dur="5s" begin="0s" xlink:href="#_R_G_L_3_G" fill="freeze" attributeName="transform" from="1 0" to="1 1" type="scale" additive="sum" keyTimes="0;0.21;0.28;1" values="1 0;1 0;1 1;1 1" keySplines="0.333 0 0.667 1;0.333 0 0.667 1;0 0 0 0" calcMode="spline"/><animateTransform repeatCount="indefinite" dur="5s" begin="0s" xlink:href="#_R_G_L_3_G" fill="freeze" attributeName="transform" from="-539.697 -501.661" to="-539.697 -501.661" type="translate" additive="sum" keyTimes="0;1" values="-539.697 -501.661;-539.697 -501.661" keySplines="0 0 1 1" calcMode="spline"/><animateTransform repeatCount="indefinite" dur="5s" begin="0s" xlink:href="#_R_G_L_3_G_N_9_T_0" fill="freeze" attributeName="transform" from="1 1" to="1 1" type="scale" additive="sum" keyTimes="0;0.23;0.28;0.33;1" values="1 1;1 1;1.1 1.1;1 1;1 1" keySplines="0.333 0 0.667 1;0.333 0 0.667 1;0.333 0 0.667 1;0 0 0 0" calcMode="spline"/><animateTransform repeatCount="indefinite" dur="5s" begin="0s" xlink:href="#_R_G_L_3_G_N_9_T_0" fill="freeze" attributeName="transform" from="-539.697 -484.133" to="-539.697 -484.133" type="translate" additive="sum" keyTimes="0;1" values="-539.697 -484.133;-539.697 -484.133" keySplines="0 0 1 1" calcMode="spline"/><animate repeatCount="indefinite" dur="5s" begin="0s" xlink:href="#_R_G_L_3_G_N_9_T_0_M" fill="freeze" attributeName="opacity" from="0" to="1" keyTimes="0;0.21;0.210001;1" values="0;0;1;1" keySplines="0 0 0 0;0 0 0 0;0 0 0 0" calcMode="spline"/><animate repeatCount="indefinite" dur="5s" begin="0s" xlink:href="#_R_G_L_2_G_D_1_P_0" fill="freeze" attributeName="fill" from="#cece3a" to="#cece3a" keyTimes="0;0.14;0.15;0.16;0.17;0.18;0.19;0.2;0.21;0.22;0.23;0.24;0.25;0.26;0.27;0.28;0.29;0.3;0.31;0.32;0.33;0.34;0.35;0.36;0.37;0.38;0.39;0.4;0.41;0.42;0.43;0.44;0.45;0.46;0.47;0.48;0.49;0.5;0.51;0.52;0.53;0.54;0.55;0.56;0.57;0.58;0.59;0.6;0.61;0.62;0.63;0.64;0.65;0.66;0.67;0.68;0.69;0.7;0.71;0.72;0.73;0.74;0.75;0.76;0.77;0.78;0.79;0.8;0.81;0.82;0.83;0.84;0.85;0.86;0.87;0.88;0.89;0.9;0.91;0.92;0.93;0.94;0.95;0.96;0.97;0.98;0.99;1" values="#cece3a;#cece3a;#c8ce3a;#c2ce3a;#bcce3a;#b6ce3a;#afce3a;#a9ce3a;#a3ce3a;#9dce3a;#97ce3a;#91ce3a;#8bce3a;#85ce3a;#7fce3a;#79ce3a;#73ce3a;#6dce3a;#67ce3a;#61ce3a;#61ce3a;#61ce3a;#61ce3a;#61ce3a;#61ce3a;#61ce3a;#61ce3a;#61ce3a;#61ce3a;#61ce3a;#61ce3a;#61ce3a;#61ce3a;#61ce3a;#61ce3a;#61ce3a;#61ce3a;#61ce3a;#61ce3a;#61ce3a;#61ce3a;#61ce3a;#61ce3a;#61ce3a;#61ce3a;#61ce3a;#61ce3a;#61ce3a;#61ce3a;#61ce3a;#61ce3a;#61ce3a;#61ce3a;#61ce3a;#61ce3a;#61ce3a;#61ce3a;#61ce3a;#61ce3a;#61ce3a;#61ce3a;#61ce3a;#61ce3a;#61ce3a;#61ce3a;#61ce3a;#61ce3a;#61ce3a;#61ce3a;#61ce3a;#61ce3a;#61ce3a;#61ce3a;#61ce3a;#61ce3a;#61ce3a;#61ce3a;#61ce3a;#61ce3a;#61ce3a;#61ce3a;#61ce3a;#61ce3a;#61ce3a;#61ce3a;#61ce3a;#61ce3a;#61ce3a" keySplines="0.167 0 0.833 1;0.167 0 0.833 1;0.167 0 0.833 1;0.167 0 0.833 1;0.167 0 0.833 1;0.167 0 0.833 1;0.167 0 0.833 1;0.167 0 0.833 1;0.167 0 0.833 1;0.167 0 0.833 1;0.167 0 0.833 1;0.167 0 0.833 1;0.167 0 0.833 1;0.167 0 0.833 1;0.167 0 0.833 1;0.167 0 0.833 1;0.167 0 0.833 1;0.167 0 0.833 1;0.167 0 0.833 1;0.167 0.503 0.833 1;0.167 0 0.833 1;0.167 0 0.833 1;0.167 0 0.833 1;0.167 0 0.833 1;0.167 0 0.833 1;0.167 0 0.833 1;0.167 0 0.833 1;0.167 0 0.833 1;0.167 0 0.833 1;0.167 0 0.833 1;0.167 0 0.833 1;0.167 0 0.833 1;0.167 0 0.833 1;0.167 0 0.833 1;0.167 0 0.833 1;0.167 0 0.833 1;0.167 0 0.833 1;0.167 0 0.833 1;0.167 0 0.833 1;0.167 0 0.833 1;0.167 0 0.833 1;0.167 0 0.833 1;0.167 0 0.833 1;0.167 0 0.833 1;0.167 0 0.833 1;0.167 0 0.833 1;0.167 0 0.833 1;0.167 0 0.833 1;0.167 0 0.833 1;0.167 0 0.833 1;0.167 0 0.833 1;0.167 0 0.833 1;0.167 0 0.833 1;0.167 0 0.833 1;0.167 0 0.833 1;0.167 0 0.833 1;0.167 0 0.833 1;0.167 0 0.833 1;0.167 0 0.833 1;0.167 0 0.833 1;0.167 0 0.833 1;0.167 0 0.833 1;0.167 0 0.833 1;0.167 0 0.833 1;0.167 0 0.833 1;0.167 0 0.833 1;0.167 0 0.833 1;0.167 0 0.833 1;0.167 0 0.833 1;0.167 0 0.833 1;0.167 0 0.833 1;0.167 0 0.833 1;0.167 0 0.833 1;0.167 0 0.833 1;0.167 0 0.833 1;0.167 0 0.833 1;0.167 0 0.833 1;0.167 0 0.833 1;0.167 0 0.833 1;0.167 0 0.833 1;0.167 0 0.833 1;0.167 0 0.833 1;0.167 0 0.833 1;0.167 0 0.833 1;0.167 0 0.833 1;0.167 0 0.833 1;0.167 0 0.833 1" calcMode="spline"/><animateTransform repeatCount="indefinite" dur="5s" begin="0s" xlink:href="#_R_G_L_2_G" fill="freeze" attributeName="transform" from="1 0" to="1 1" type="scale" additive="sum" keyTimes="0;0.14;0.21;1" values="1 0;1 0;1 1;1 1" keySplines="0.333 0 0.667 1;0.333 0 0.667 1;0 0 0 0" calcMode="spline"/><animateTransform repeatCount="indefinite" dur="5s" begin="0s" xlink:href="#_R_G_L_2_G" fill="freeze" attributeName="transform" from="-539.697 -542.942" to="-539.697 -542.942" type="translate" additive="sum" keyTimes="0;1" values="-539.697 -542.942;-539.697 -542.942" keySplines="0 0 1 1" calcMode="spline"/><animateTransform repeatCount="indefinite" dur="5s" begin="0s" xlink:href="#_R_G_L_2_G_N_8_T_0" fill="freeze" attributeName="transform" from="1 1" to="1 1" type="scale" additive="sum" keyTimes="0;0.16;0.21;0.26;1" values="1 1;1 1;1.1 1.1;1 1;1 1" keySplines="0.333 0 0.667 1;0.333 0 0.667 1;0.333 0 0.667 1;0 0 0 0" calcMode="spline"/><animateTransform repeatCount="indefinite" dur="5s" begin="0s" xlink:href="#_R_G_L_2_G_N_8_T_0" fill="freeze" attributeName="transform" from="-539.697 -525.413" to="-539.697 -525.413" type="translate" additive="sum" keyTimes="0;1" values="-539.697 -525.413;-539.697 -525.413" keySplines="0 0 1 1" calcMode="spline"/><animate repeatCount="indefinite" dur="5s" begin="0s" xlink:href="#_R_G_L_2_G_N_8_T_0_M" fill="freeze" attributeName="opacity" from="0" to="1" keyTimes="0;0.14;0.140001;1" values="0;0;1;1" keySplines="0 0 0 0;0 0 0 0;0 0 0 0" calcMode="spline"/><animate repeatCount="indefinite" dur="5s" begin="0s" xlink:href="#_R_G_L_1_G_D_1_P_0" fill="freeze" attributeName="fill" from="#ce843a" to="#ce843a" keyTimes="0;0.07;0.08;0.09;0.1;0.11;0.12;0.13;0.14;0.15;0.16;0.17;0.18;0.19;0.2;0.21;0.22;0.23;0.24;0.25;0.26;0.27;0.28;0.29;0.3;0.31;0.32;0.33;0.34;0.35;0.36;0.37;0.38;0.39;0.4;0.41;0.42;0.43;0.44;0.45;0.46;0.47;0.48;0.49;0.5;0.51;0.52;0.53;0.54;0.55;0.56;0.57;0.58;0.59;0.6;0.61;0.62;0.63;0.64;0.65;0.66;0.67;0.68;0.69;0.7;0.71;0.72;0.73;0.74;0.75;0.76;0.77;0.78;0.79;0.8;0.81;0.82;0.83;0.84;0.85;0.86;0.87;0.88;0.89;0.9;0.91;0.92;0.93;0.94;0.95;0.96;0.97;0.98;0.99;1" values="#ce843a;#ce843a;#ce8f3a;#ce993a;#cea43a;#ceae3a;#ceb93a;#cec33a;#cece3a;#c8ce3a;#c2ce3a;#bcce3a;#b6ce3a;#afce3a;#a9ce3a;#a3ce3a;#9dce3a;#97ce3a;#91ce3a;#8bce3a;#85ce3a;#7fce3a;#79ce3a;#73ce3a;#6dce3a;#67ce3a;#61ce3a;#61ce3a;#61ce3a;#61ce3a;#61ce3a;#61ce3a;#61ce3a;#61ce3a;#61ce3a;#61ce3a;#61ce3a;#61ce3a;#61ce3a;#61ce3a;#61ce3a;#61ce3a;#61ce3a;#61ce3a;#61ce3a;#61ce3a;#61ce3a;#61ce3a;#61ce3a;#61ce3a;#61ce3a;#61ce3a;#61ce3a;#61ce3a;#61ce3a;#61ce3a;#61ce3a;#61ce3a;#61ce3a;#61ce3a;#61ce3a;#61ce3a;#61ce3a;#61ce3a;#61ce3a;#61ce3a;#61ce3a;#61ce3a;#61ce3a;#61ce3a;#61ce3a;#61ce3a;#61ce3a;#61ce3a;#61ce3a;#61ce3a;#61ce3a;#61ce3a;#61ce3a;#61ce3a;#61ce3a;#61ce3a;#61ce3a;#61ce3a;#61ce3a;#61ce3a;#61ce3a;#61ce3a;#61ce3a;#61ce3a;#61ce3a;#61ce3a;#61ce3a;#61ce3a;#61ce3a" keySplines="0.167 0 0.833 1;0.167 0 0.833 1;0.167 0 0.833 1;0.167 0 0.833 1;0.167 0 0.833 1;0.167 0 0.833 1;0.167 0 0.833 1;0.167 0 0.833 1;0.167 0 0.833 1;0.167 0 0.833 1;0.167 0 0.833 1;0.167 0 0.833 1;0.167 0 0.833 1;0.167 0 0.833 1;0.167 0 0.833 1;0.167 0 0.833 1;0.167 0 0.833 1;0.167 0 0.833 1;0.167 0 0.833 1;0.167 0 0.833 1;0.167 0 0.833 1;0.167 0 0.833 1;0.167 0 0.833 1;0.167 0 0.833 1;0.167 0 0.833 1;0.167 0 0.833 1;0.167 0.503 0.833 1;0.167 0 0.833 1;0.167 0 0.833 1;0.167 0 0.833 1;0.167 0 0.833 1;0.167 0 0.833 1;0.167 0 0.833 1;0.167 0 0.833 1;0.167 0 0.833 1;0.167 0 0.833 1;0.167 0 0.833 1;0.167 0 0.833 1;0.167 0 0.833 1;0.167 0 0.833 1;0.167 0 0.833 1;0.167 0 0.833 1;0.167 0 0.833 1;0.167 0 0.833 1;0.167 0 0.833 1;0.167 0 0.833 1;0.167 0 0.833 1;0.167 0 0.833 1;0.167 0 0.833 1;0.167 0 0.833 1;0.167 0 0.833 1;0.167 0 0.833 1;0.167 0 0.833 1;0.167 0 0.833 1;0.167 0 0.833 1;0.167 0 0.833 1;0.167 0 0.833 1;0.167 0 0.833 1;0.167 0 0.833 1;0.167 0 0.833 1;0.167 0 0.833 1;0.167 0 0.833 1;0.167 0 0.833 1;0.167 0 0.833 1;0.167 0 0.833 1;0.167 0 0.833 1;0.167 0 0.833 1;0.167 0 0.833 1;0.167 0 0.833 1;0.167 0 0.833 1;0.167 0 0.833 1;0.167 0 0.833 1;0.167 0 0.833 1;0.167 0 0.833 1;0.167 0 0.833 1;0.167 0 0.833 1;0.167 0 0.833 1;0.167 0 0.833 1;0.167 0 0.833 1;0.167 0 0.833 1;0.167 0 0.833 1;0.167 0 0.833 1;0.167 0 0.833 1;0.167 0 0.833 1;0.167 0 0.833 1;0.167 0 0.833 1;0.167 0 0.833 1;0.167 0 0.833 1;0.167 0 0.833 1;0.167 0 0.833 1;0.167 0 0.833 1;0.167 0 0.833 1;0.167 0 0.833 1;0.167 0 0.833 1" calcMode="spline"/><animateTransform repeatCount="indefinite" dur="5s" begin="0s" xlink:href="#_R_G_L_1_G" fill="freeze" attributeName="transform" from="1 0" to="1 1" type="scale" additive="sum" keyTimes="0;0.07;0.14;1" values="1 0;1 0;1 1;1 1" keySplines="0.333 0 0.667 1;0.333 0 0.667 1;0 0 0 0" calcMode="spline"/><animateTransform repeatCount="indefinite" dur="5s" begin="0s" xlink:href="#_R_G_L_1_G" fill="freeze" attributeName="transform" from="-539.697 -583.837" to="-539.697 -583.837" type="translate" additive="sum" keyTimes="0;1" values="-539.697 -583.837;-539.697 -583.837" keySplines="0 0 1 1" calcMode="spline"/><animateTransform repeatCount="indefinite" dur="5s" begin="0s" xlink:href="#_R_G_L_1_G_N_7_T_0" fill="freeze" attributeName="transform" from="1 1" to="1 1" type="scale" additive="sum" keyTimes="0;0.09;0.14;0.19;1" values="1 1;1 1;1.1 1.1;1 1;1 1" keySplines="0.333 0 0.667 1;0.333 0 0.667 1;0.333 0 0.667 1;0 0 0 0" calcMode="spline"/><animateTransform repeatCount="indefinite" dur="5s" begin="0s" xlink:href="#_R_G_L_1_G_N_7_T_0" fill="freeze" attributeName="transform" from="-539.697 -566.308" to="-539.697 -566.308" type="translate" additive="sum" keyTimes="0;1" values="-539.697 -566.308;-539.697 -566.308" keySplines="0 0 1 1" calcMode="spline"/><animate repeatCount="indefinite" dur="5s" begin="0s" xlink:href="#_R_G_L_1_G_N_7_T_0_M" fill="freeze" attributeName="opacity" from="0" to="1" keyTimes="0;0.07;0.070001;1" values="0;0;1;1" keySplines="0 0 0 0;0 0 0 0;0 0 0 0" calcMode="spline"/><animate repeatCount="indefinite" dur="5s" begin="0s" xlink:href="#_R_G_L_0_G_D_0_P_0" fill="freeze" attributeName="fill" from="#ce3a3a" to="#ce3a3a" keyTimes="0;0.01;0.02;0.03;0.04;0.05;0.06;0.07;0.08;0.09;0.1;0.11;0.12;0.13;0.14;0.15;0.16;0.17;0.18;0.19;0.2;0.21;0.22;0.23;0.24;0.25;0.26;0.27;0.28;0.29;0.3;0.31;0.32;0.33;0.34;0.35;0.36;0.37;0.38;0.39;0.4;0.41;0.42;0.43;0.44;0.45;0.46;0.47;0.48;0.49;0.5;0.51;0.52;0.53;0.54;0.55;0.56;0.57;0.58;0.59;0.6;0.61;0.62;0.63;0.64;0.65;0.66;0.67;0.68;0.69;0.7;0.71;0.72;0.73;0.74;0.75;0.76;0.77;0.78;0.79;0.8;0.81;0.82;0.83;0.84;0.85;0.86;0.87;0.88;0.89;0.9;0.91;0.92;0.93;0.94;0.95;0.96;0.97;0.98;0.99;1" values="#ce3a3a;#ce453a;#ce4f3a;#ce5a3a;#ce643a;#ce6f3a;#ce793a;#ce843a;#ce8f3a;#ce993a;#cea43a;#ceae3a;#ceb93a;#cec33a;#cece3a;#c8ce3a;#c2ce3a;#bcce3a;#b6ce3a;#afce3a;#a9ce3a;#a3ce3a;#9dce3a;#97ce3a;#91ce3a;#8bce3a;#85ce3a;#7fce3a;#79ce3a;#73ce3a;#6dce3a;#67ce3a;#61ce3a;#61ce3a;#61ce3a;#61ce3a;#61ce3a;#61ce3a;#61ce3a;#61ce3a;#61ce3a;#61ce3a;#61ce3a;#61ce3a;#61ce3a;#61ce3a;#61ce3a;#61ce3a;#61ce3a;#61ce3a;#61ce3a;#61ce3a;#61ce3a;#61ce3a;#61ce3a;#61ce3a;#61ce3a;#61ce3a;#61ce3a;#61ce3a;#61ce3a;#61ce3a;#61ce3a;#61ce3a;#61ce3a;#61ce3a;#61ce3a;#61ce3a;#61ce3a;#61ce3a;#61ce3a;#61ce3a;#61ce3a;#61ce3a;#61ce3a;#61ce3a;#61ce3a;#61ce3a;#61ce3a;#61ce3a;#61ce3a;#61ce3a;#61ce3a;#61ce3a;#61ce3a;#61ce3a;#61ce3a;#61ce3a;#61ce3a;#61ce3a;#61ce3a;#61ce3a;#61ce3a;#61ce3a;#61ce3a;#61ce3a;#61ce3a;#61ce3a;#61ce3a;#61ce3a;#61ce3a" keySplines="0.167 0 0.833 1;0.167 0 0.833 1;0.167 0 0.833 1;0.167 0 0.833 1;0.167 0 0.833 1;0.167 0 0.833 1;0.167 0 0.833 1;0.167 0 0.833 1;0.167 0 0.833 1;0.167 0 0.833 1;0.167 0 0.833 1;0.167 0 0.833 1;0.167 0 0.833 1;0.167 0 0.833 1;0.167 0 0.833 1;0.167 0 0.833 1;0.167 0 0.833 1;0.167 0 0.833 1;0.167 0 0.833 1;0.167 0 0.833 1;0.167 0 0.833 1;0.167 0 0.833 1;0.167 0 0.833 1;0.167 0 0.833 1;0.167 0 0.833 1;0.167 0 0.833 1;0.167 0 0.833 1;0.167 0 0.833 1;0.167 0 0.833 1;0.167 0 0.833 1;0.167 0 0.833 1;0.167 0 0.833 1;0.167 0.503 0.833 1;0.167 0 0.833 1;0.167 0 0.833 1;0.167 0 0.833 1;0.167 0 0.833 1;0.167 0 0.833 1;0.167 0 0.833 1;0.167 0 0.833 1;0.167 0 0.833 1;0.167 0 0.833 1;0.167 0 0.833 1;0.167 0 0.833 1;0.167 0 0.833 1;0.167 0 0.833 1;0.167 0 0.833 1;0.167 0 0.833 1;0.167 0 0.833 1;0.167 0 0.833 1;0.167 0 0.833 1;0.167 0 0.833 1;0.167 0 0.833 1;0.167 0 0.833 1;0.167 0 0.833 1;0.167 0 0.833 1;0.167 0 0.833 1;0.167 0 0.833 1;0.167 0 0.833 1;0.167 0 0.833 1;0.167 0 0.833 1;0.167 0 0.833 1;0.167 0 0.833 1;0.167 0 0.833 1;0.167 0 0.833 1;0.167 0 0.833 1;0.167 0 0.833 1;0.167 0 0.833 1;0.167 0 0.833 1;0.167 0 0.833 1;0.167 0 0.833 1;0.167 0 0.833 1;0.167 0 0.833 1;0.167 0 0.833 1;0.167 0 0.833 1;0.167 0 0.833 1;0.167 0 0.833 1;0.167 0 0.833 1;0.167 0 0.833 1;0.167 0 0.833 1;0.167 0 0.833 1;0.167 0 0.833 1;0.167 0 0.833 1;0.167 0 0.833 1;0.167 0 0.833 1;0.167 0 0.833 1;0.167 0 0.833 1;0.167 0 0.833 1;0.167 0 0.833 1;0.167 0 0.833 1;0.167 0 0.833 1;0.167 0 0.833 1;0.167 0 0.833 1;0.167 0 0.833 1;0.167 0 0.833 1;0.167 0 0.833 1;0.167 0 0.833 1;0.167 0 0.833 1;0.167 0 0.833 1;0.167 0 0.833 1" calcMode="spline"/><animateTransform repeatCount="indefinite" dur="5s" begin="0s" xlink:href="#_R_G_L_0_G" fill="freeze" attributeName="transform" from="1 0" to="1 1" type="scale" additive="sum" keyTimes="0;0.07;1" values="1 0;1 1;1 1" keySplines="0.333 0 0.667 1;0 0 0 0" calcMode="spline"/><animateTransform repeatCount="indefinite" dur="5s" begin="0s" xlink:href="#_R_G_L_0_G" fill="freeze" attributeName="transform" from="-539.697 -624.732" to="-539.697 -624.732" type="translate" additive="sum" keyTimes="0;1" values="-539.697 -624.732;-539.697 -624.732" keySplines="0 0 1 1" calcMode="spline"/><animateTransform repeatCount="indefinite" dur="5s" begin="0s" xlink:href="#_R_G_L_0_G_N_6_T_0" fill="freeze" attributeName="transform" from="1 1" to="1 1" type="scale" additive="sum" keyTimes="0;0.02;0.07;0.12;1" values="1 1;1 1;1.1 1.1;1 1;1 1" keySplines="0.333 0 0.667 1;0.333 0 0.667 1;0.333 0 0.667 1;0 0 0 0" calcMode="spline"/><animateTransform repeatCount="indefinite" dur="5s" begin="0s" xlink:href="#_R_G_L_0_G_N_6_T_0" fill="freeze" attributeName="transform" from="-539.697 -607.202" to="-539.697 -607.202" type="translate" additive="sum" keyTimes="0;1" values="-539.697 -607.202;-539.697 -607.202" keySplines="0 0 1 1" calcMode="spline"/><animate attributeType="XML" attributeName="opacity" dur="5s" from="0" to="1" xlink:href="#time_group"/></defs><g id="_R_G"><g id="_R_G_L_11_G" transform=" translate(256, 256) rotate(50.8) translate(-539.373, -526.858)"><path id="_R_G_L_11_G_D_0_P_0" fill="#cf1e1e" fill-opacity="1" fill-rule="nonzero" d=" M535.73 308.75 C536.64,308.2 537.35,307.44 537.87,306.49 C538.39,305.55 538.64,304.5 538.6,303.34 C538.57,302.16 538.26,301.13 537.68,300.24 C537.1,299.35 536.34,298.66 535.4,298.18 C534.47,297.69 533.44,297.46 532.31,297.5 C531.18,297.53 530.17,297.82 529.28,298.37 C528.39,298.91 527.69,299.64 527.17,300.57 C526.66,301.49 526.43,302.54 526.46,303.72 C526.5,304.87 526.8,305.9 527.37,306.82 C527.94,307.74 528.68,308.44 529.61,308.94 C530.53,309.44 531.56,309.67 532.68,309.64 C533.81,309.6 534.83,309.31 535.73,308.75z "/><path id="_R_G_L_11_G_D_1_P_0" fill="#cf1e1e" fill-opacity="1" fill-rule="nonzero" d=" M487.92 320.24 C487.92,320.24 486.2,312.67 486.2,312.67 C486.2,312.67 495.85,310.47 495.85,310.47 C495.85,310.47 497.58,318.04 497.58,318.04 C497.58,318.04 502.06,317.02 502.06,317.02 C502.06,317.02 497.7,297.86 497.7,297.86 C497.7,297.86 493.22,298.88 493.22,298.88 C493.22,298.88 494.99,306.67 494.99,306.67 C494.99,306.67 485.34,308.86 485.34,308.86 C485.34,308.86 483.57,301.08 483.57,301.08 C483.57,301.08 479.08,302.1 479.08,302.1 C479.08,302.1 483.44,321.26 483.44,321.26 C483.44,321.26 487.92,320.24 487.92,320.24z "/><path id="_R_G_L_11_G_D_2_P_0" fill="#cf1e1e" fill-opacity="1" fill-rule="nonzero" d=" M462.97 328.2 C462.97,328.2 468.77,312.35 468.77,312.35 C468.77,312.35 473.15,324.54 473.15,324.54 C473.15,324.54 477.48,322.98 477.48,322.98 C477.48,322.98 470.83,304.49 470.83,304.49 C470.83,304.49 466.88,305.91 466.88,305.91 C466.88,305.91 461.05,321.77 461.05,321.77 C461.05,321.77 456.67,309.58 456.67,309.58 C456.67,309.58 452.34,311.14 452.34,311.14 C452.34,311.14 458.99,329.63 458.99,329.63 C458.99,329.63 462.97,328.2 462.97,328.2z "/><path id="_R_G_L_11_G_D_3_P_0" fill="#cf1e1e" fill-opacity="1" fill-rule="nonzero" d=" M439.71 343.83 C439.71,343.83 437.75,339.92 437.75,339.92 C437.75,339.92 451.29,333.11 451.29,333.11 C451.29,333.11 453.26,337.02 453.26,337.02 C453.26,337.02 457.11,335.09 457.11,335.09 C457.11,335.09 453.39,327.69 453.39,327.69 C453.39,327.69 432.18,338.35 432.18,338.35 C432.18,338.35 435.9,345.75 435.9,345.75 C435.9,345.75 439.71,343.83 439.71,343.83z  M451.58 330.57 C451.58,330.57 443.71,314.92 443.71,314.92 C443.71,314.92 429.25,322.2 429.25,322.2 C429.25,322.2 432.04,328.33 432.04,328.33 C432.53,329.4 432.96,330.46 433.34,331.49 C433.72,332.52 433.99,333.47 434.14,334.34 C434.29,335.21 434.27,335.97 434.08,336.6 C433.89,337.23 433.46,337.71 432.8,338.04 C432.8,338.04 437.2,336.61 437.2,336.61 C437.73,336.15 438.06,335.58 438.18,334.88 C438.3,334.19 438.26,333.41 438.07,332.53 C437.87,331.65 437.59,330.73 437.21,329.75 C436.82,328.78 436.4,327.77 435.94,326.74 C435.94,326.74 434.62,323.87 434.62,323.87 C434.62,323.87 441.36,320.48 441.36,320.48 C441.36,320.48 447.47,332.64 447.47,332.64 C447.47,332.64 451.58,330.57 451.58,330.57z "/><path id="_R_G_L_11_G_D_4_P_0" fill="#cf1e1e" fill-opacity="1" fill-rule="nonzero" d=" M418.95 346.39 C417.96,346.46 416.99,346.24 416.04,345.74 C415.1,345.25 414.29,344.47 413.6,343.43 C412.9,342.36 412.52,341.3 412.44,340.25 C412.37,339.2 412.56,338.23 413.02,337.34 C413.48,336.45 414.18,335.7 415.13,335.08 C416.05,334.47 417.02,334.14 418.03,334.06 C419.03,333.99 420,334.2 420.92,334.69 C421.85,335.19 422.66,335.97 423.36,337.03 C424.05,338.08 424.43,339.13 424.52,340.19 C424.61,341.24 424.42,342.22 423.95,343.11 C423.48,344.01 422.78,344.76 421.83,345.38 C420.91,345.99 419.95,346.32 418.95,346.39z  M427.82 344.61 C428.66,343.01 429.04,341.33 428.96,339.57 C428.87,337.81 428.3,336.11 427.24,334.49 C426.15,332.83 424.82,331.62 423.25,330.86 C421.68,330.1 420,329.79 418.21,329.94 C416.41,330.09 414.66,330.72 412.96,331.84 C411.28,332.94 410.01,334.28 409.17,335.86 C408.33,337.44 407.94,339.11 408.01,340.87 C408.08,342.63 408.65,344.33 409.72,345.97 C410.79,347.59 412.11,348.79 413.71,349.56 C415.3,350.34 416.99,350.66 418.78,350.53 C420.57,350.39 422.31,349.78 423.99,348.67 C425.7,347.56 426.97,346.2 427.82,344.61z "/><path id="_R_G_L_11_G_D_5_P_0" fill="#cf1e1e" fill-opacity="1" fill-rule="nonzero" d=" M406.3 361.29 C406.3,361.29 395.81,348.19 395.81,348.19 C395.81,348.19 395.62,349.66 395.62,349.66 C395.62,349.66 404.64,342.44 404.64,342.44 C404.64,342.44 402.2,339.39 402.2,339.39 C402.2,339.39 390.42,348.82 390.42,348.82 C390.42,348.82 402.71,364.16 402.71,364.16 C402.71,364.16 406.3,361.29 406.3,361.29z "/><path id="_R_G_L_11_G_D_6_P_0" fill="#cf1e1e" fill-opacity="1" fill-rule="nonzero" d=" M391.97 373.76 C391.97,373.76 389.02,370.99 389.02,370.99 C389.02,370.99 378.71,381.96 378.71,381.96 C378.71,381.96 380.71,382.47 380.71,382.47 C380.71,382.47 380.64,370.34 380.64,370.34 C380.62,368.71 380.49,367.36 380.25,366.29 C380.01,365.22 379.66,364.33 379.22,363.6 C378.77,362.88 378.24,362.23 377.63,361.66 C376.52,360.62 375.31,359.99 373.99,359.78 C372.68,359.57 371.32,359.77 369.94,360.37 C368.55,360.96 367.22,361.94 365.94,363.3 C364.5,364.84 363.47,366.49 362.84,368.24 C362.22,370 362.06,371.7 362.35,373.36 C362.35,373.36 366.52,372.68 366.52,372.68 C366.37,371.52 366.47,370.42 366.85,369.38 C367.22,368.33 367.84,367.35 368.7,366.44 C369.77,365.3 370.82,364.65 371.85,364.51 C372.88,364.36 373.82,364.7 374.68,365.5 C375.02,365.82 375.34,366.21 375.63,366.67 C375.92,367.13 376.15,367.72 376.31,368.44 C376.47,369.17 376.55,370.12 376.56,371.3 C376.56,371.3 376.63,385.41 376.63,385.41 C376.63,385.41 378.97,387.6 378.97,387.6 C378.97,387.6 391.97,373.76 391.97,373.76z "/><path id="_R_G_L_11_G_D_7_P_0" fill="#cf1e1e" fill-opacity="1" fill-rule="nonzero" d=" M371.19 397.56 C371.19,397.56 359.3,375.93 359.3,375.93 C359.3,375.93 356.76,373.99 356.76,373.99 C356.76,373.99 344.63,389.91 344.63,389.91 C344.63,389.91 351.33,395.02 351.33,395.02 C351.33,395.02 354.03,391.48 354.03,391.48 C354.03,391.48 348.7,387.42 348.7,387.42 C348.7,387.42 349.16,390.64 349.16,390.64 C349.16,390.64 358.01,379.02 358.01,379.02 C358.01,379.02 355.56,378.72 355.56,378.72 C355.56,378.72 368.09,401.63 368.09,401.63 C368.09,401.63 371.19,397.56 371.19,397.56z "/><path id="_R_G_L_11_G_D_8_P_0" fill="#cf1e1e" fill-opacity="1" fill-rule="nonzero" d=" M348 425.9 C347.15,426.44 346.2,426.71 345.13,426.72 C344.07,426.73 342.98,426.44 341.88,425.85 C340.76,425.25 339.91,424.5 339.34,423.61 C338.78,422.72 338.48,421.78 338.47,420.78 C338.45,419.78 338.7,418.78 339.24,417.79 C339.76,416.82 340.45,416.06 341.3,415.51 C342.15,414.97 343.1,414.69 344.14,414.68 C345.19,414.67 346.28,414.97 347.4,415.58 C348.5,416.17 349.35,416.91 349.93,417.79 C350.51,418.68 350.81,419.62 350.83,420.63 C350.84,421.64 350.58,422.65 350.05,423.64 C349.52,424.61 348.84,425.37 348,425.9z  M354.93 420.1 C354.92,418.3 354.45,416.64 353.53,415.13 C352.62,413.62 351.3,412.41 349.6,411.49 C347.85,410.55 346.1,410.12 344.36,410.2 C342.62,410.28 340.99,410.82 339.49,411.8 C337.98,412.79 336.75,414.18 335.78,415.97 C334.83,417.75 334.36,419.53 334.37,421.32 C334.39,423.11 334.84,424.76 335.74,426.27 C336.64,427.79 337.96,429.01 339.69,429.94 C341.39,430.85 343.13,431.27 344.9,431.19 C346.67,431.11 348.31,430.59 349.82,429.62 C351.33,428.65 352.56,427.28 353.51,425.5 C354.48,423.71 354.95,421.91 354.93,420.1z "/><path id="_R_G_L_11_G_D_9_P_0" fill="#cf1e1e" fill-opacity="1" fill-rule="nonzero" d=" M344.16 456.5 C344.16,456.5 340.09,454.89 340.09,454.89 C340.09,454.89 345.67,440.79 345.67,440.79 C345.67,440.79 349.74,442.4 349.74,442.4 C349.74,442.4 351.32,438.4 351.32,438.4 C351.32,438.4 343.62,435.35 343.62,435.35 C343.62,435.35 334.89,457.42 334.89,457.42 C334.89,457.42 342.59,460.47 342.59,460.47 C342.59,460.47 344.16,456.5 344.16,456.5z  M344.2 438.7 C344.2,438.7 327.91,432.26 327.91,432.26 C327.91,432.26 321.95,447.32 321.95,447.32 C321.95,447.32 328.12,450.03 328.12,450.03 C329.2,450.51 330.22,451.01 331.19,451.52 C332.16,452.04 332.99,452.57 333.68,453.12 C334.38,453.68 334.86,454.25 335.14,454.85 C335.42,455.45 335.42,456.09 335.15,456.77 C335.15,456.77 337.48,452.79 337.48,452.79 C337.57,452.08 337.43,451.44 337.06,450.84 C336.69,450.24 336.14,449.68 335.41,449.16 C334.68,448.63 333.85,448.13 332.92,447.66 C331.98,447.18 331,446.71 329.97,446.25 C329.97,446.25 327.07,444.99 327.07,444.99 C327.07,444.99 329.84,437.97 329.84,437.97 C329.84,437.97 342.51,442.98 342.51,442.98 C342.51,442.98 344.2,438.7 344.2,438.7z "/><path id="_R_G_L_11_G_D_10_P_0" fill="#cf1e1e" fill-opacity="1" fill-rule="nonzero" d=" M332.96 477.41 C332.58,476.16 331.88,475.19 330.85,474.51 C330.85,474.51 327.99,474.68 327.99,474.68 C328.88,475.28 329.49,476.07 329.8,477.05 C330.11,478.04 330.14,479.08 329.9,480.18 C329.65,481.33 329.21,482.18 328.59,482.72 C327.97,483.26 327.25,483.44 326.44,483.27 C325.72,483.11 325.17,482.71 324.79,482.07 C324.42,481.44 324.4,480.36 324.74,478.82 C324.74,478.82 325.89,473.57 325.89,473.57 C325.89,473.57 322.91,472.92 322.91,472.92 C322.91,472.92 321.68,478.49 321.68,478.49 C321.26,480.43 321.16,482.04 321.41,483.33 C321.65,484.61 322.15,485.61 322.9,486.31 C323.65,487.02 324.56,487.49 325.64,487.73 C326.74,487.97 327.8,487.89 328.8,487.5 C329.8,487.1 330.67,486.42 331.4,485.45 C332.13,484.48 332.65,483.28 332.97,481.84 C333.34,480.14 333.34,478.66 332.96,477.41z  M334.98 471.51 C334.98,471.51 323.73,469.03 323.73,469.03 C320.95,468.42 318.73,468.72 317.06,469.95 C315.4,471.18 314.26,473.19 313.65,475.97 C313.31,477.5 313.18,479.02 313.26,480.54 C313.34,482.05 313.67,483.41 314.23,484.61 C314.23,484.61 317.89,483.57 317.89,483.57 C317.45,482.72 317.18,481.74 317.07,480.62 C316.96,479.5 317.03,478.41 317.27,477.33 C317.62,475.72 318.25,474.61 319.15,473.98 C320.06,473.35 321.17,473.17 322.49,473.47 C322.49,473.47 329.28,474.96 329.28,474.96 C329.28,474.96 330.16,474.89 330.16,474.89 C330.16,474.89 334.04,475.75 334.04,475.75 C334.04,475.75 334.98,471.51 334.98,471.51z "/><path id="_R_G_L_11_G_D_11_P_0" fill="#cf1e1e" fill-opacity="1" fill-rule="nonzero" d=" M328.58 512.75 C328.7,512.33 328.78,511.94 328.82,511.57 C328.94,510.42 328.74,509.45 328.21,508.64 C327.69,507.83 326.9,507.15 325.85,506.6 C324.79,506.05 323.54,505.6 322.09,505.23 C320.64,504.86 319.05,504.54 317.33,504.28 C317.33,504.28 312.2,503.46 312.2,503.46 C312.2,503.46 313.37,504.59 313.37,504.59 C313.37,504.59 314.38,495.29 314.38,495.29 C314.38,495.29 313.02,496.22 313.02,496.22 C313.02,496.22 329.93,498.07 329.93,498.07 C329.93,498.07 330.43,493.5 330.43,493.5 C330.43,493.5 310.89,491.36 310.89,491.36 C310.89,491.36 309.16,507.16 309.16,507.16 C309.16,507.16 316.66,508.32 316.66,508.32 C317.66,508.47 318.64,508.65 319.62,508.84 C320.6,509.04 321.47,509.28 322.24,509.57 C323.01,509.87 323.61,510.25 324.03,510.71 C324.44,511.18 324.61,511.79 324.53,512.54 C324.52,512.67 324.49,512.8 324.45,512.94 C324.41,513.09 324.37,513.24 324.32,513.41 C324.32,513.41 328.14,514.05 328.14,514.05 C328.31,513.6 328.46,513.17 328.58,512.75z "/><path id="_R_G_L_11_G_D_12_P_0" fill="#cf1e1e" fill-opacity="1" fill-rule="nonzero" d=" M328.24 520.11 C328.24,520.11 311.39,519.86 311.39,519.86 C311.39,519.86 312.48,520.94 312.48,520.94 C312.48,520.94 312.6,512.99 312.6,512.99 C312.6,512.99 308.7,512.93 308.7,512.93 C308.7,512.93 308.42,531.33 308.42,531.33 C308.42,531.33 312.32,531.39 312.32,531.39 C312.32,531.39 312.44,523.41 312.44,523.41 C312.44,523.41 311.32,524.46 311.32,524.46 C311.32,524.46 328.17,524.71 328.17,524.71 C328.17,524.71 328.24,520.11 328.24,520.11z "/><path id="_R_G_L_11_G_D_13_P_0" fill="#cf1e1e" fill-opacity="1" fill-rule="nonzero" d=" M304.7 536.46 C304.12,535.96 303.43,535.72 302.62,535.77 C301.86,535.81 301.24,536.12 300.77,536.7 C300.3,537.28 300.09,538 300.13,538.85 C300.18,539.71 300.48,540.4 301.04,540.92 C301.6,541.44 302.27,541.68 303.05,541.64 C303.81,541.6 304.45,541.29 304.95,540.71 C305.46,540.13 305.69,539.41 305.65,538.55 C305.6,537.67 305.28,536.97 304.7,536.46z  M328.38 535.02 C328.38,535.02 308.75,536.09 308.75,536.09 C308.75,536.09 309.01,540.69 309.01,540.69 C309.01,540.69 328.63,539.61 328.63,539.61 C328.63,539.61 328.38,535.02 328.38,535.02z "/><path id="_R_G_L_11_G_D_14_P_0" fill="#cf1e1e" fill-opacity="1" fill-rule="nonzero" d=" M314.46 560.09 C314.46,560.09 313.82,555.31 313.82,555.31 C313.66,554.14 313.73,553.23 314.04,552.59 C314.35,551.94 314.9,551.56 315.71,551.45 C316.48,551.34 317.13,551.56 317.63,552.1 C318.14,552.64 318.47,553.49 318.63,554.66 C318.63,554.66 319.28,559.43 319.28,559.43 C319.28,559.43 314.46,560.09 314.46,560.09z  M322.3 559.02 C322.3,559.02 321.58,553.66 321.58,553.66 C321.41,552.42 321.49,551.48 321.83,550.84 C322.16,550.2 322.76,549.83 323.64,549.71 C324.47,549.59 325.12,549.83 325.61,550.4 C326.1,550.98 326.42,551.89 326.59,553.13 C326.59,553.13 327.3,558.35 327.3,558.35 C327.3,558.35 322.3,559.02 322.3,559.02z  M329.86 552.32 C329.51,549.69 328.76,547.8 327.63,546.64 C326.49,545.48 325.06,545.02 323.33,545.25 C321.68,545.48 320.5,546.23 319.79,547.5 C319.09,548.77 318.89,550.59 319.21,552.94 C319.21,552.94 320.42,553.34 320.42,553.34 C320.14,551.25 319.46,549.63 318.4,548.48 C317.35,547.34 316.03,546.88 314.45,547.09 C312.84,547.31 311.69,548.15 311,549.62 C310.31,551.09 310.12,553 310.44,555.36 C310.44,555.36 311.73,564.88 311.73,564.88 C311.73,564.88 331.21,562.24 331.21,562.24 C331.21,562.24 329.86,552.32 329.86,552.32z "/><path id="_R_G_L_11_G_D_15_P_0" fill="#cf1e1e" fill-opacity="1" fill-rule="nonzero" d=" M331.77 569.7 C330.65,568.47 329.28,567.66 327.67,567.27 C327.67,567.27 326.51,571.19 326.51,571.19 C327.55,571.54 328.39,572.08 329.02,572.8 C329.65,573.51 330.08,574.35 330.32,575.3 C330.58,576.4 330.59,577.44 330.33,578.44 C330.07,579.44 329.55,580.3 328.78,581.02 C328.01,581.74 327,582.25 325.76,582.55 C324.52,582.86 323.4,582.87 322.38,582.59 C321.36,582.3 320.51,581.78 319.82,581.01 C319.13,580.25 318.65,579.32 318.38,578.22 C318.14,577.27 318.14,576.33 318.37,575.4 C318.6,574.48 319.09,573.61 319.86,572.82 C319.86,572.82 317.02,569.88 317.02,569.88 C315.75,570.97 314.91,572.32 314.5,573.92 C314.1,575.53 314.12,577.25 314.58,579.11 C315.07,581.12 315.92,582.79 317.14,584.15 C318.35,585.51 319.8,586.45 321.48,586.97 C323.16,587.49 324.96,587.52 326.87,587.06 C328.75,586.6 330.32,585.74 331.58,584.5 C332.84,583.26 333.71,581.75 334.17,579.98 C334.63,578.22 334.62,576.33 334.13,574.33 C333.68,572.47 332.89,570.93 331.77,569.7z "/><path id="_R_G_L_11_G_D_16_P_0" fill="#cf1e1e" fill-opacity="1" fill-rule="nonzero" d=" M345.58 610.16 C345.81,611.65 345.83,613.06 345.66,614.4 C345.66,614.4 342.01,614.5 342.01,614.5 C342.15,613.41 342.12,612.25 341.94,611.03 C341.76,609.8 341.44,608.64 340.99,607.52 C340.6,606.57 340.17,605.79 339.7,605.19 C339.23,604.59 338.72,604.17 338.18,603.96 C337.64,603.74 337.12,603.73 336.62,603.94 C335.9,604.24 335.47,604.77 335.35,605.55 C335.23,606.33 335.41,607.3 335.88,608.45 C335.88,608.45 337.32,611.96 337.32,611.96 C337.32,611.96 334.45,613.13 334.45,613.13 C334.45,613.13 333.16,609.96 333.16,609.96 C332.86,609.24 332.53,608.65 332.16,608.2 C331.8,607.76 331.4,607.46 330.97,607.32 C330.54,607.18 330.11,607.19 329.68,607.37 C329.25,607.55 328.93,607.86 328.74,608.33 C328.54,608.79 328.49,609.37 328.57,610.05 C328.65,610.73 328.86,611.51 329.21,612.37 C329.58,613.28 330.08,614.17 330.7,615.04 C331.32,615.91 332.05,616.76 332.89,617.58 C332.89,617.58 330.2,619.95 330.2,619.95 C329.21,619.01 328.34,618.04 327.61,617.06 C326.88,616.07 326.28,615.04 325.81,613.96 C325.06,612.33 324.63,610.78 324.51,609.32 C324.39,607.86 324.57,606.59 325.03,605.53 C325.5,604.46 326.25,603.72 327.3,603.29 C328.16,602.94 329.05,602.89 329.96,603.14 C330.87,603.39 331.71,603.9 332.47,604.66 C333.23,605.42 333.85,606.4 334.33,607.58 C334.33,607.58 333.36,607.82 333.36,607.82 C332.53,605.79 332.29,604.04 332.62,602.55 C332.95,601.06 333.81,600.04 335.2,599.47 C336.31,599.02 337.45,598.99 338.61,599.39 C339.76,599.8 340.85,600.55 341.86,601.66 C342.87,602.78 343.71,604.17 344.4,605.85 C344.97,607.24 345.36,608.67 345.58,610.16z "/><path id="_R_G_L_11_G_D_17_P_0" fill="#cf1e1e" fill-opacity="1" fill-rule="nonzero" d=" M349.99 620.41 C348.88,619.49 347.66,618.89 346.33,618.59 C346.33,618.59 344.99,622.1 344.99,622.1 C345.97,622.36 346.81,622.8 347.53,623.42 C348.25,624.03 348.87,624.83 349.38,625.8 C349.98,626.93 350.3,628.04 350.33,629.14 C350.35,630.24 350.1,631.24 349.55,632.14 C349,633.04 348.21,633.77 347.17,634.32 C347.17,634.32 346.52,634.67 346.52,634.67 C345.48,635.22 344.46,635.49 343.47,635.48 C342.47,635.47 341.56,635.2 340.73,634.69 C339.9,634.17 339.22,633.41 338.69,632.42 C338.17,631.44 337.93,630.47 337.96,629.49 C338,628.51 338.28,627.6 338.81,626.77 C339.33,625.93 340.1,625.26 341.11,624.75 C341.11,624.75 339.42,623.61 339.42,623.61 C339.42,623.61 345.97,635.92 345.97,635.92 C345.97,635.92 348.67,634.48 348.67,634.48 C348.67,634.48 340.97,620.03 340.97,620.03 C340.77,620.11 340.55,620.2 340.33,620.31 C340.11,620.41 339.91,620.51 339.74,620.6 C337.92,621.57 336.54,622.79 335.6,624.27 C334.66,625.74 334.17,627.33 334.14,629.04 C334.11,630.76 334.54,632.46 335.44,634.15 C336.36,635.88 337.56,637.22 339.04,638.17 C340.52,639.12 342.13,639.63 343.87,639.68 C345.61,639.74 347.35,639.31 349.08,638.39 C350.79,637.48 352.11,636.27 353.03,634.77 C353.95,633.26 354.41,631.58 354.42,629.73 C354.42,627.88 353.91,626 352.88,624.07 C352.07,622.55 351.11,621.33 349.99,620.41z "/><path id="_R_G_L_11_G_D_18_P_0" fill="#cf1e1e" fill-opacity="1" fill-rule="nonzero" d=" M363.36 649.47 C363.45,650.47 363.28,651.41 362.85,652.3 C362.42,653.19 361.78,653.93 360.94,654.51 C360.11,655.08 359.24,655.39 358.33,655.43 C357.42,655.48 356.54,655.27 355.68,654.8 C354.83,654.33 354.08,653.64 353.46,652.73 C352.8,651.78 352.43,650.83 352.33,649.87 C352.24,648.9 352.37,648.01 352.74,647.17 C353.11,646.34 353.71,645.64 354.56,645.05 C355.41,644.47 356.32,644.14 357.27,644.06 C358.23,643.98 359.15,644.15 360.02,644.58 C360.9,645.01 361.64,645.67 362.27,646.58 C362.91,647.51 363.27,648.48 363.36,649.47z  M361.36 640.8 C359.79,639.93 358.18,639.53 356.53,639.59 C354.87,639.66 353.3,640.2 351.8,641.23 C350.37,642.22 349.31,643.43 348.64,644.88 C347.97,646.33 347.72,647.85 347.9,649.45 C348.08,651.06 348.69,652.62 349.73,654.13 C350.51,655.27 351.43,656.18 352.48,656.87 C353.54,657.55 354.68,658 355.91,658.21 C357.14,658.42 358.41,658.38 359.72,658.07 C359.72,658.07 360.23,655.63 360.23,655.63 C359.82,655.9 359.52,656.13 359.33,656.31 C359.14,656.48 358.96,656.65 358.79,656.82 C358.62,656.98 358.34,657.19 357.96,657.46 C356.7,658.32 355.56,658.89 354.52,659.17 C353.48,659.46 352.52,659.55 351.66,659.44 C350.8,659.33 350.03,659.1 349.35,658.75 C348.68,658.39 348.08,658 347.56,657.57 C347.04,657.14 346.61,656.76 346.26,656.43 C346.26,656.43 340.18,650.57 340.18,650.57 C340.18,650.57 337.16,653.45 337.16,653.45 C337.16,653.45 343.93,659.86 343.93,659.86 C344.97,660.85 346.02,661.64 347.09,662.25 C348.16,662.85 349.26,663.26 350.4,663.48 C351.53,663.7 352.68,663.73 353.84,663.59 C355.01,663.44 356.2,663.11 357.43,662.6 C358.65,662.08 359.91,661.38 361.2,660.49 C362.98,659.27 364.38,658.01 365.4,656.72 C366.41,655.42 367.08,654.11 367.4,652.77 C367.71,651.44 367.71,650.1 367.4,648.78 C367.08,647.45 366.46,646.11 365.54,644.78 C364.32,643 362.92,641.68 361.36,640.8z "/><path id="_R_G_L_11_G_D_19_P_0" fill="#cf1e1e" fill-opacity="1" fill-rule="nonzero" d=" M381.41 666.72 C379.98,666.06 378.52,665.76 377.05,665.8 C377.05,665.8 377,669.5 377,669.5 C378.09,669.51 379.11,669.73 380.05,670.15 C381,670.58 381.85,671.2 382.63,672.02 C383.53,672.96 384.12,673.99 384.42,675.11 C384.72,676.23 384.72,677.33 384.41,678.42 C384.1,679.5 383.49,680.49 382.56,681.36 C381.63,682.24 380.62,682.8 379.52,683.05 C378.42,683.3 377.32,683.24 376.22,682.88 C375.12,682.52 374.12,681.87 373.23,680.93 C372.45,680.11 371.87,679.22 371.49,678.26 C371.11,677.31 370.94,676.28 370.99,675.19 C370.99,675.19 367.3,675.04 367.3,675.04 C367.17,676.51 367.39,677.98 367.97,679.44 C368.55,680.91 369.45,682.29 370.68,683.59 C372.12,685.11 373.71,686.15 375.48,686.73 C377.24,687.31 378.99,687.41 380.73,687.05 C382.46,686.69 384.05,685.83 385.5,684.46 C386.92,683.11 387.87,681.57 388.34,679.84 C388.81,678.11 388.8,676.36 388.3,674.58 C387.8,672.81 386.84,671.16 385.4,669.65 C384.17,668.35 382.84,667.37 381.41,666.72z  M382.43 683.47 C382.43,683.47 384.83,681.19 384.83,681.19 C384.83,681.19 377.49,673.44 377.49,673.44 C377.49,673.44 375.09,675.72 375.09,675.72 C375.09,675.72 382.43,683.47 382.43,683.47z "/><path id="_R_G_L_11_G_D_20_P_0" fill="#cf1e1e" fill-opacity="1" fill-rule="nonzero" d=" M401.84 691.62 C402.18,692.57 402.25,693.54 402.06,694.56 C401.86,695.57 401.36,696.57 400.55,697.56 C399.75,698.55 398.86,699.24 397.9,699.64 C396.94,700.05 395.97,700.17 394.99,700 C394.02,699.84 393.11,699.42 392.28,698.73 C391.44,698.05 390.85,697.25 390.51,696.34 C390.16,695.42 390.09,694.45 390.29,693.43 C390.49,692.41 391,691.4 391.8,690.41 C392.61,689.42 393.49,688.73 394.45,688.34 C395.4,687.95 396.37,687.82 397.35,687.96 C398.33,688.09 399.25,688.51 400.1,689.21 C400.92,689.88 401.5,690.68 401.84,691.62z  M397.67 683.84 C395.94,683.54 394.24,683.7 392.59,684.33 C390.94,684.96 389.5,686.03 388.27,687.53 C387.03,689.05 386.27,690.67 385.99,692.41 C385.71,694.15 385.9,695.83 386.55,697.45 C387.2,699.08 388.3,700.52 389.84,701.78 C391.36,703.02 392.98,703.8 394.7,704.11 C396.43,704.43 398.11,704.27 399.76,703.65 C401.4,703.03 402.85,701.97 404.09,700.45 C405.31,698.94 406.07,697.33 406.34,695.59 C406.62,693.85 406.44,692.16 405.81,690.52 C405.17,688.87 404.09,687.43 402.57,686.19 C401.03,684.93 399.4,684.15 397.67,683.84z  M412.76 694.84 C412.76,694.84 407.77,700.94 407.77,700.94 C407.77,700.94 403.24,697.24 403.24,697.24 C403.24,697.24 400.61,700.46 400.61,700.46 C400.61,700.46 405.14,704.16 405.14,704.16 C405.14,704.16 400.32,710.06 400.32,710.06 C400.32,710.06 403.89,712.97 403.89,712.97 C403.89,712.97 416.32,697.75 416.32,697.75 C416.32,697.75 412.76,694.84 412.76,694.84z "/><path id="_R_G_L_11_G_D_21_P_0" fill="#cf1e1e" fill-opacity="1" fill-rule="nonzero" d=" M422.02 696.31 C422.02,696.31 417.71,703.38 417.71,703.38 C417.71,703.38 424.19,707.32 424.19,707.32 C424.19,707.32 426.21,703.99 426.21,703.99 C426.21,703.99 422.5,701.73 422.5,701.73 C422.5,701.73 423.36,702.38 423.36,702.38 C423.36,702.38 425.69,698.55 425.69,698.55 C425.69,698.55 422.02,696.31 422.02,696.31z  M422.28 701.6 C422.28,701.6 412.07,718.38 412.07,718.38 C412.07,718.38 416,720.78 416,720.78 C416,720.78 424.19,707.32 424.19,707.32 C424.19,707.32 432.2,712.2 432.2,712.2 C432.2,712.2 424.01,725.65 424.01,725.65 C424.01,725.65 427.94,728.05 427.94,728.05 C427.94,728.05 438.16,711.26 438.16,711.26 C438.16,711.26 422.28,701.6 422.28,701.6z "/><path id="_R_G_L_11_G_D_22_P_0" fill="#cf1e1e" fill-opacity="1" fill-rule="nonzero" d=" M448.58 717.12 C447.27,717.22 446.18,717.7 445.29,718.56 C445.29,718.56 444.84,721.39 444.84,721.39 C445.62,720.65 446.52,720.23 447.55,720.13 C448.58,720.04 449.6,720.23 450.63,720.71 C451.7,721.2 452.43,721.81 452.82,722.54 C453.22,723.26 453.24,724 452.89,724.76 C452.58,725.42 452.08,725.87 451.38,726.1 C450.67,726.33 449.61,726.12 448.19,725.46 C448.19,725.46 443.31,723.2 443.31,723.2 C443.31,723.2 442.03,725.97 442.03,725.97 C442.03,725.97 447.2,728.37 447.2,728.37 C449.01,729.2 450.56,729.64 451.87,729.68 C453.18,729.71 454.26,729.44 455.11,728.86 C455.96,728.28 456.61,727.49 457.08,726.49 C457.55,725.47 457.7,724.42 457.53,723.36 C457.36,722.29 456.88,721.3 456.09,720.38 C455.3,719.46 454.24,718.69 452.9,718.07 C451.32,717.34 449.88,717.02 448.58,717.12z  M443.24 713.88 C443.24,713.88 438.41,724.34 438.41,724.34 C437.21,726.92 437.03,729.16 437.88,731.05 C438.72,732.94 440.43,734.48 443.01,735.67 C444.44,736.33 445.9,736.79 447.39,737.03 C448.89,737.28 450.28,737.26 451.58,736.96 C451.58,736.96 451.35,733.17 451.35,733.17 C450.43,733.41 449.41,733.47 448.29,733.33 C447.18,733.2 446.12,732.9 445.12,732.43 C443.63,731.74 442.67,730.89 442.25,729.87 C441.83,728.85 441.9,727.73 442.47,726.5 C442.47,726.5 445.39,720.19 445.39,720.19 C445.39,720.19 445.51,719.32 445.51,719.32 C445.51,719.32 447.18,715.71 447.18,715.71 C447.18,715.71 443.24,713.88 443.24,713.88z "/><path id="_R_G_L_11_G_D_23_P_0" fill="#cf1e1e" fill-opacity="1" fill-rule="nonzero" d=" M473.34 730.93 C474.02,731.68 474.46,732.57 474.65,733.62 C474.84,734.67 474.74,735.78 474.35,736.97 C473.95,738.18 473.35,739.14 472.57,739.85 C471.79,740.56 470.91,741.01 469.91,741.2 C468.92,741.38 467.9,741.3 466.85,740.95 C465.81,740.6 464.95,740.06 464.28,739.32 C463.61,738.58 463.17,737.69 462.97,736.65 C462.77,735.62 462.88,734.49 463.28,733.28 C463.68,732.1 464.27,731.14 465.05,730.42 C465.83,729.7 466.72,729.24 467.7,729.05 C468.68,728.86 469.69,728.94 470.74,729.29 C471.79,729.64 472.65,730.19 473.34,730.93z  M479.64 720.85 C479.64,720.85 475.94,731.96 475.94,731.96 C475.94,731.96 474.64,737.03 474.64,737.03 C474.64,737.03 472.85,741.94 472.85,741.94 C472.85,741.94 471.38,746.34 471.38,746.34 C471.38,746.34 475.54,747.72 475.54,747.72 C475.54,747.72 484.01,722.31 484.01,722.31 C484.01,722.31 479.64,720.85 479.64,720.85z  M466.23 724.96 C464.56,725.28 463.07,726.02 461.77,727.17 C460.47,728.33 459.49,729.87 458.85,731.8 C458.2,733.74 458.06,735.55 458.41,737.25 C458.76,738.94 459.51,740.42 460.66,741.68 C461.8,742.94 463.29,743.88 465.13,744.49 C466.71,745.02 468.24,745.14 469.7,744.87 C471.16,744.59 472.48,743.87 473.66,742.71 C474.83,741.55 475.78,739.88 476.51,737.69 C477.23,735.53 477.46,733.62 477.2,731.97 C476.94,730.31 476.3,728.93 475.28,727.82 C474.27,726.71 473.01,725.9 471.5,725.39 C469.66,724.78 467.9,724.63 466.23,724.96z "/><path id="_R_G_L_11_G_D_24_P_0" fill="#cf1e1e" fill-opacity="1" fill-rule="nonzero" d=" M506 734.32 C506,734.32 501.67,756.8 501.67,756.8 C501.67,756.8 502.98,755.85 502.98,755.85 C502.98,755.85 487.7,752.9 487.7,752.9 C487.7,752.9 488.56,754.27 488.56,754.27 C488.56,754.27 492.89,731.79 492.89,731.79 C492.89,731.79 488.26,730.9 488.26,730.9 C488.26,730.9 483.39,756.2 483.39,756.2 C483.39,756.2 505.76,760.5 505.76,760.5 C505.76,760.5 510.63,735.21 510.63,735.21 C510.63,735.21 506,734.32 506,734.32z "/><path id="_R_G_L_11_G_D_25_P_0" fill="#cf1e1e" fill-opacity="1" fill-rule="nonzero" d=" M539.11 742.11 C538.19,742.64 537.46,743.38 536.92,744.32 C536.38,745.26 536.11,746.3 536.12,747.46 C536.14,748.63 536.42,749.67 536.98,750.58 C537.55,751.48 538.29,752.18 539.21,752.69 C540.14,753.19 541.17,753.44 542.29,753.43 C543.42,753.42 544.44,753.15 545.34,752.63 C546.24,752.1 546.96,751.38 547.49,750.47 C548.02,749.56 548.28,748.51 548.27,747.33 C548.26,746.18 547.98,745.14 547.43,744.21 C546.88,743.29 546.15,742.56 545.23,742.05 C544.32,741.53 543.3,741.27 542.17,741.29 C541.04,741.3 540.02,741.57 539.11,742.11z "/><path id="_R_G_L_11_G_D_26_P_0" fill="#cf1e1e" fill-opacity="1" fill-rule="nonzero" d=" M587.15 731.63 C587.15,731.63 588.71,739.23 588.71,739.23 C588.71,739.23 579.01,741.22 579.01,741.22 C579.01,741.22 577.45,733.62 577.45,733.62 C577.45,733.62 572.94,734.54 572.94,734.54 C572.94,734.54 576.9,753.79 576.9,753.79 C576.9,753.79 581.4,752.87 581.4,752.87 C581.4,752.87 579.79,745.05 579.79,745.05 C579.79,745.05 589.49,743.06 589.49,743.06 C589.49,743.06 591.1,750.88 591.1,750.88 C591.1,750.88 595.6,749.95 595.6,749.95 C595.6,749.95 591.65,730.7 591.65,730.7 C591.65,730.7 587.15,731.63 587.15,731.63z "/><path id="_R_G_L_11_G_D_27_P_0" fill="#cf1e1e" fill-opacity="1" fill-rule="nonzero" d=" M612.26 724.19 C612.26,724.19 606.13,739.92 606.13,739.92 C606.13,739.92 602.01,727.64 602.01,727.64 C602.01,727.64 597.65,729.1 597.65,729.1 C597.65,729.1 603.91,747.73 603.91,747.73 C603.91,747.73 607.88,746.4 607.88,746.4 C607.88,746.4 614.05,730.66 614.05,730.66 C614.05,730.66 618.17,742.94 618.17,742.94 C618.17,742.94 622.53,741.47 622.53,741.47 C622.53,741.47 616.27,722.84 616.27,722.84 C616.27,722.84 612.26,724.19 612.26,724.19z "/><path id="_R_G_L_11_G_D_28_P_0" fill="#cf1e1e" fill-opacity="1" fill-rule="nonzero" d=" M635.84 709.05 C635.84,709.05 637.72,713 637.72,713 C637.72,713 624.04,719.53 624.04,719.53 C624.04,719.53 622.15,715.58 622.15,715.58 C622.15,715.58 618.27,717.43 618.27,717.43 C618.27,717.43 621.83,724.9 621.83,724.9 C621.83,724.9 643.26,714.69 643.26,714.69 C643.26,714.69 639.69,707.21 639.69,707.21 C639.69,707.21 635.84,709.05 635.84,709.05z  M623.7 722.06 C623.7,722.06 631.24,737.87 631.24,737.87 C631.24,737.87 645.85,730.9 645.85,730.9 C645.85,730.9 643.18,724.71 643.18,724.71 C642.72,723.63 642.31,722.56 641.95,721.53 C641.59,720.49 641.35,719.53 641.22,718.66 C641.08,717.78 641.12,717.03 641.32,716.4 C641.53,715.78 641.96,715.3 642.63,714.99 C642.63,714.99 638.21,716.32 638.21,716.32 C637.66,716.77 637.32,717.34 637.19,718.03 C637.05,718.72 637.07,719.5 637.25,720.39 C637.42,721.27 637.69,722.2 638.05,723.18 C638.41,724.17 638.81,725.18 639.26,726.22 C639.26,726.22 640.52,729.12 640.52,729.12 C640.52,729.12 633.71,732.37 633.71,732.37 C633.71,732.37 627.85,720.08 627.85,720.08 C627.85,720.08 623.7,722.06 623.7,722.06z "/><path id="_R_G_L_11_G_D_29_P_0" fill="#cf1e1e" fill-opacity="1" fill-rule="nonzero" d=" M656.65 706.93 C657.65,706.88 658.61,707.12 659.54,707.63 C660.47,708.15 661.27,708.94 661.94,710 C662.61,711.08 662.98,712.15 663.03,713.2 C663.08,714.26 662.87,715.22 662.39,716.1 C661.91,716.98 661.19,717.71 660.24,718.31 C659.3,718.9 658.33,719.22 657.32,719.27 C656.31,719.32 655.35,719.09 654.43,718.58 C653.52,718.07 652.73,717.27 652.05,716.19 C651.38,715.13 651.02,714.07 650.95,713.01 C650.88,711.96 651.09,710.99 651.58,710.1 C652.07,709.22 652.79,708.48 653.75,707.88 C654.68,707.29 655.65,706.97 656.65,706.93z  M647.75 708.53 C646.87,710.1 646.46,711.77 646.5,713.54 C646.55,715.3 647.09,717.01 648.12,718.65 C649.17,720.33 650.48,721.57 652.03,722.37 C653.58,723.16 655.26,723.5 657.05,723.39 C658.85,723.28 660.61,722.68 662.34,721.6 C664.04,720.53 665.33,719.22 666.21,717.66 C667.08,716.1 667.51,714.44 667.48,712.68 C667.44,710.92 666.91,709.21 665.87,707.54 C664.84,705.9 663.54,704.67 661.96,703.87 C660.38,703.06 658.7,702.7 656.91,702.8 C655.11,702.89 653.36,703.47 651.66,704.54 C649.93,705.62 648.63,706.95 647.75,708.53z "/><path id="_R_G_L_11_G_D_30_P_0" fill="#cf1e1e" fill-opacity="1" fill-rule="nonzero" d=" M669.61 692.3 C669.61,692.3 679.83,705.61 679.83,705.61 C679.83,705.61 680.04,704.14 680.04,704.14 C680.04,704.14 670.88,711.18 670.88,711.18 C670.88,711.18 673.25,714.27 673.25,714.27 C673.25,714.27 685.22,705.09 685.22,705.09 C685.22,705.09 673.26,689.5 673.26,689.5 C673.26,689.5 669.61,692.3 669.61,692.3z "/><path id="_R_G_L_11_G_D_31_P_0" fill="#cf1e1e" fill-opacity="1" fill-rule="nonzero" d=" M684.2 680.13 C684.2,680.13 687.09,682.96 687.09,682.96 C687.09,682.96 697.62,672.2 697.62,672.2 C697.62,672.2 695.64,671.65 695.64,671.65 C695.64,671.65 695.45,683.78 695.45,683.78 C695.44,685.41 695.54,686.76 695.76,687.84 C695.98,688.91 696.3,689.81 696.73,690.55 C697.17,691.28 697.68,691.94 698.28,692.52 C699.36,693.58 700.56,694.23 701.88,694.47 C703.19,694.71 704.55,694.54 705.94,693.97 C707.34,693.4 708.7,692.45 710,691.12 C711.48,689.61 712.54,687.99 713.2,686.25 C713.86,684.51 714.06,682.8 713.8,681.14 C713.8,681.14 709.61,681.73 709.61,681.73 C709.75,682.89 709.62,683.99 709.22,685.03 C708.82,686.06 708.19,687.03 707.31,687.92 C706.21,689.04 705.15,689.67 704.12,689.79 C703.09,689.92 702.15,689.56 701.31,688.74 C700.98,688.41 700.67,688.02 700.39,687.55 C700.1,687.09 699.89,686.49 699.74,685.76 C699.6,685.04 699.53,684.08 699.56,682.9 C699.56,682.9 699.77,668.8 699.77,668.8 C699.77,668.8 697.48,666.56 697.48,666.56 C697.48,666.56 684.2,680.13 684.2,680.13z "/><path id="_R_G_L_11_G_D_32_P_0" fill="#cf1e1e" fill-opacity="1" fill-rule="nonzero" d=" M705.47 656.77 C705.47,656.77 716.9,678.64 716.9,678.64 C716.9,678.64 719.41,680.63 719.41,680.63 C719.41,680.63 731.86,664.96 731.86,664.96 C731.86,664.96 725.27,659.72 725.27,659.72 C725.27,659.72 722.5,663.2 722.5,663.2 C722.5,663.2 727.74,667.37 727.74,667.37 C727.74,667.37 727.34,664.14 727.34,664.14 C727.34,664.14 718.25,675.58 718.25,675.58 C718.25,675.58 720.7,675.93 720.7,675.93 C720.7,675.93 708.65,652.76 708.65,652.76 C708.65,652.76 705.47,656.77 705.47,656.77z "/><path id="_R_G_L_11_G_D_33_P_0" fill="#cf1e1e" fill-opacity="1" fill-rule="nonzero" d=" M729.25 628.91 C730.11,628.4 731.07,628.14 732.13,628.15 C733.2,628.16 734.27,628.48 735.36,629.09 C736.47,629.72 737.3,630.48 737.85,631.39 C738.4,632.29 738.67,633.24 738.67,634.24 C738.67,635.24 738.39,636.23 737.84,637.21 C737.29,638.17 736.59,638.91 735.73,639.44 C734.87,639.97 733.91,640.23 732.86,640.21 C731.82,640.2 730.74,639.88 729.63,639.25 C728.54,638.63 727.71,637.88 727.15,636.98 C726.58,636.08 726.3,635.13 726.31,634.12 C726.32,633.11 726.6,632.11 727.15,631.13 C727.7,630.17 728.39,629.43 729.25,628.91z  M722.19 634.56 C722.17,636.37 722.6,638.04 723.49,639.57 C724.37,641.09 725.66,642.33 727.35,643.29 C729.08,644.26 730.81,644.73 732.56,644.69 C734.3,644.64 735.93,644.14 737.46,643.19 C738.98,642.23 740.25,640.87 741.25,639.1 C742.24,637.34 742.75,635.57 742.77,633.78 C742.8,631.99 742.38,630.33 741.51,628.8 C740.64,627.27 739.35,626.02 737.64,625.05 C735.96,624.1 734.23,623.65 732.46,623.69 C730.69,623.73 729.03,624.22 727.5,625.16 C725.97,626.1 724.71,627.44 723.72,629.2 C722.72,630.97 722.21,632.76 722.19,634.56z "/><path id="_R_G_L_11_G_D_34_P_0" fill="#cf1e1e" fill-opacity="1" fill-rule="nonzero" d=" M733.73 598.4 C733.73,598.4 737.77,600.1 737.77,600.1 C737.77,600.1 731.89,614.08 731.89,614.08 C731.89,614.08 727.85,612.38 727.85,612.38 C727.85,612.38 726.19,616.35 726.19,616.35 C726.19,616.35 733.82,619.56 733.82,619.56 C733.82,619.56 743.02,597.68 743.02,597.68 C743.02,597.68 735.38,594.47 735.38,594.47 C735.38,594.47 733.73,598.4 733.73,598.4z  M733.32 616.19 C733.32,616.19 749.47,622.98 749.47,622.98 C749.47,622.98 755.74,608.05 755.74,608.05 C755.74,608.05 749.63,605.21 749.63,605.21 C748.56,604.7 747.55,604.19 746.59,603.65 C745.63,603.11 744.81,602.56 744.13,602 C743.45,601.43 742.98,600.85 742.71,600.24 C742.45,599.64 742.46,599 742.74,598.32 C742.74,598.32 740.33,602.26 740.33,602.26 C740.22,602.96 740.35,603.61 740.71,604.21 C741.07,604.81 741.6,605.39 742.32,605.93 C743.04,606.47 743.86,606.99 744.78,607.48 C745.71,607.97 746.68,608.46 747.7,608.95 C747.7,608.95 750.58,610.27 750.58,610.27 C750.58,610.27 747.65,617.23 747.65,617.23 C747.65,617.23 735.1,611.95 735.1,611.95 C735.1,611.95 733.32,616.19 733.32,616.19z "/><path id="_R_G_L_11_G_D_35_P_0" fill="#cf1e1e" fill-opacity="1" fill-rule="nonzero" d=" M747.63 567.8 C748.04,569.04 748.77,569.98 749.82,570.63 C749.82,570.63 752.67,570.4 752.67,570.4 C751.76,569.82 751.13,569.04 750.8,568.07 C750.46,567.09 750.4,566.05 750.61,564.94 C750.83,563.79 751.25,562.93 751.85,562.37 C752.46,561.81 753.17,561.61 753.99,561.77 C754.72,561.91 755.27,562.29 755.67,562.91 C756.06,563.54 756.11,564.62 755.81,566.16 C755.81,566.16 754.8,571.44 754.8,571.44 C754.8,571.44 757.8,572.02 757.8,572.02 C757.8,572.02 758.87,566.41 758.87,566.41 C759.25,564.46 759.29,562.85 759.01,561.57 C758.74,560.29 758.21,559.31 757.44,558.63 C756.68,557.94 755.75,557.5 754.67,557.29 C753.56,557.08 752.51,557.18 751.51,557.6 C750.52,558.02 749.67,558.73 748.97,559.72 C748.27,560.71 747.78,561.92 747.5,563.37 C747.17,565.08 747.21,566.56 747.63,567.8z  M745.77 573.75 C745.77,573.75 757.08,575.93 757.08,575.93 C759.88,576.46 762.09,576.09 763.72,574.82 C765.35,573.55 766.44,571.51 766.97,568.72 C767.27,567.18 767.35,565.65 767.23,564.14 C767.11,562.63 766.75,561.28 766.16,560.09 C766.16,560.09 762.53,561.23 762.53,561.23 C762.99,562.07 763.29,563.05 763.43,564.16 C763.56,565.27 763.53,566.37 763.32,567.46 C763.01,569.07 762.41,570.2 761.52,570.86 C760.63,571.51 759.53,571.71 758.2,571.46 C758.2,571.46 751.37,570.15 751.37,570.15 C751.37,570.15 750.49,570.24 750.49,570.24 C750.49,570.24 746.59,569.49 746.59,569.49 C746.59,569.49 745.77,573.75 745.77,573.75z "/><path id="_R_G_L_11_G_D_36_P_0" fill="#cf1e1e" fill-opacity="1" fill-rule="nonzero" d=" M751.06 532.36 C750.95,532.78 750.88,533.17 750.85,533.54 C750.76,534.69 750.99,535.66 751.54,536.46 C752.08,537.25 752.89,537.91 753.96,538.43 C755.02,538.95 756.29,539.37 757.75,539.7 C759.21,540.03 760.81,540.3 762.54,540.52 C762.54,540.52 767.69,541.21 767.69,541.21 C767.69,541.21 766.49,540.11 766.49,540.11 C766.49,540.11 765.72,549.42 765.72,549.42 C765.72,549.42 767.05,548.46 767.05,548.46 C767.05,548.46 750.11,547.06 750.11,547.06 C750.11,547.06 749.73,551.65 749.73,551.65 C749.73,551.65 769.31,553.27 769.31,553.27 C769.31,553.27 770.62,537.42 770.62,537.42 C770.62,537.42 763.09,536.47 763.09,536.47 C762.09,536.34 761.1,536.19 760.12,536.02 C759.14,535.85 758.26,535.63 757.48,535.36 C756.7,535.09 756.1,534.72 755.67,534.27 C755.24,533.81 755.05,533.21 755.12,532.45 C755.13,532.33 755.15,532.19 755.19,532.05 C755.22,531.9 755.26,531.75 755.3,531.58 C755.3,531.58 751.47,531.04 751.47,531.04 C751.31,531.49 751.17,531.93 751.06,532.36z "/><path id="_R_G_L_11_G_D_37_P_0" fill="#cf1e1e" fill-opacity="1" fill-rule="nonzero" d=" M751.2 524.98 C751.2,524.98 768.05,524.78 768.05,524.78 C768.05,524.78 766.94,523.73 766.94,523.73 C766.94,523.73 767.03,531.68 767.03,531.68 C767.03,531.68 770.93,531.63 770.93,531.63 C770.93,531.63 770.72,513.23 770.72,513.23 C770.72,513.23 766.81,513.28 766.81,513.28 C766.81,513.28 766.91,521.26 766.91,521.26 C766.91,521.26 768,520.18 768,520.18 C768,520.18 751.15,520.38 751.15,520.38 C751.15,520.38 751.2,524.98 751.2,524.98z "/><path id="_R_G_L_11_G_D_38_P_0" fill="#cf1e1e" fill-opacity="1" fill-rule="nonzero" d=" M774.29 508 C774.88,508.49 775.58,508.7 776.39,508.64 C777.15,508.58 777.76,508.25 778.21,507.66 C778.67,507.07 778.86,506.34 778.79,505.49 C778.72,504.63 778.4,503.95 777.83,503.44 C777.26,502.94 776.58,502.71 775.8,502.78 C775.04,502.84 774.41,503.17 773.92,503.76 C773.43,504.36 773.22,505.08 773.29,505.94 C773.36,506.82 773.7,507.51 774.29,508z  M750.66 510.09 C750.66,510.09 770.25,508.48 770.25,508.48 C770.25,508.48 769.87,503.89 769.87,503.89 C769.87,503.89 750.29,505.51 750.29,505.51 C750.29,505.51 750.66,510.09 750.66,510.09z "/><path id="_R_G_L_11_G_D_39_P_0" fill="#cf1e1e" fill-opacity="1" fill-rule="nonzero" d=" M763.89 484.65 C763.89,484.65 764.67,489.41 764.67,489.41 C764.86,490.57 764.81,491.48 764.52,492.13 C764.22,492.79 763.68,493.18 762.88,493.32 C762.11,493.44 761.46,493.24 760.94,492.72 C760.42,492.2 760.06,491.35 759.87,490.19 C759.87,490.19 759.09,485.43 759.09,485.43 C759.09,485.43 763.89,484.65 763.89,484.65z  M756.08 485.93 C756.08,485.93 756.95,491.26 756.95,491.26 C757.16,492.5 757.1,493.44 756.78,494.09 C756.46,494.74 755.87,495.13 755,495.28 C754.18,495.41 753.51,495.19 753.01,494.63 C752.51,494.07 752.16,493.17 751.95,491.93 C751.95,491.93 751.1,486.74 751.1,486.74 C751.1,486.74 756.08,485.93 756.08,485.93z  M748.71 492.84 C749.14,495.45 749.93,497.32 751.1,498.45 C752.26,499.58 753.71,500 755.43,499.72 C757.07,499.45 758.23,498.67 758.9,497.38 C759.57,496.09 759.72,494.27 759.33,491.92 C759.33,491.92 758.12,491.56 758.12,491.56 C758.46,493.64 759.17,495.24 760.26,496.35 C761.35,497.47 762.69,497.9 764.26,497.64 C765.86,497.38 766.98,496.5 767.63,495.02 C768.29,493.53 768.42,491.61 768.04,489.27 C768.04,489.27 766.49,479.79 766.49,479.79 C766.49,479.79 747.09,482.96 747.09,482.96 C747.09,482.96 748.71,492.84 748.71,492.84z "/><path id="_R_G_L_11_G_D_40_P_0" fill="#cf1e1e" fill-opacity="1" fill-rule="nonzero" d=" M746.33 475.51 C747.48,476.71 748.87,477.48 750.49,477.82 C750.49,477.82 751.54,473.87 751.54,473.87 C750.49,473.55 749.64,473.04 748.99,472.34 C748.34,471.64 747.88,470.82 747.63,469.87 C747.33,468.78 747.29,467.74 747.53,466.73 C747.76,465.73 748.26,464.85 749.01,464.11 C749.76,463.37 750.75,462.84 751.98,462.5 C753.21,462.16 754.34,462.12 755.36,462.37 C756.38,462.63 757.25,463.13 757.96,463.87 C758.68,464.62 759.18,465.54 759.48,466.63 C759.74,467.57 759.77,468.51 759.57,469.44 C759.36,470.38 758.89,471.25 758.15,472.07 C758.15,472.07 761.07,474.93 761.07,474.93 C762.31,473.8 763.11,472.43 763.47,470.82 C763.83,469.21 763.76,467.48 763.25,465.63 C762.71,463.64 761.81,461.99 760.56,460.67 C759.3,459.34 757.83,458.44 756.14,457.96 C754.44,457.49 752.65,457.51 750.75,458.03 C748.88,458.54 747.34,459.43 746.11,460.71 C744.88,461.99 744.06,463.52 743.64,465.3 C743.23,467.08 743.29,468.96 743.84,470.95 C744.34,472.79 745.17,474.31 746.33,475.51z "/><path id="_R_G_L_11_G_D_41_P_0" fill="#cf1e1e" fill-opacity="1" fill-rule="nonzero" d=" M731.42 435.44 C731.15,433.96 731.09,432.55 731.22,431.21 C731.22,431.21 734.87,431.01 734.87,431.01 C734.76,432.1 734.82,433.26 735.03,434.47 C735.25,435.69 735.59,436.85 736.08,437.95 C736.49,438.9 736.95,439.66 737.43,440.25 C737.92,440.84 738.44,441.24 738.98,441.44 C739.53,441.64 740.05,441.63 740.54,441.42 C741.26,441.1 741.67,440.55 741.77,439.77 C741.86,438.99 741.66,438.03 741.16,436.88 C741.16,436.88 739.63,433.41 739.63,433.41 C739.63,433.41 742.46,432.17 742.46,432.17 C742.46,432.17 743.84,435.3 743.84,435.3 C744.15,436.02 744.5,436.6 744.88,437.03 C745.26,437.47 745.67,437.75 746.1,437.88 C746.53,438.02 746.96,437.99 747.39,437.8 C747.82,437.61 748.12,437.28 748.3,436.81 C748.49,436.35 748.53,435.77 748.43,435.09 C748.33,434.41 748.09,433.64 747.72,432.79 C747.32,431.89 746.8,431.01 746.16,430.16 C745.51,429.3 744.76,428.48 743.9,427.68 C743.9,427.68 746.52,425.23 746.52,425.23 C747.54,426.15 748.43,427.09 749.19,428.06 C749.95,429.02 750.58,430.04 751.08,431.11 C751.87,432.72 752.34,434.25 752.5,435.71 C752.66,437.17 752.52,438.44 752.08,439.51 C751.65,440.59 750.91,441.36 749.88,441.81 C749.03,442.19 748.14,442.26 747.22,442.03 C746.31,441.81 745.46,441.32 744.68,440.58 C743.89,439.84 743.25,438.89 742.73,437.72 C742.73,437.72 743.7,437.45 743.7,437.45 C744.58,439.45 744.87,441.2 744.58,442.7 C744.29,444.19 743.45,445.24 742.09,445.84 C740.99,446.33 739.85,446.38 738.68,446.01 C737.51,445.64 736.41,444.92 735.37,443.83 C734.33,442.75 733.44,441.38 732.71,439.72 C732.11,438.35 731.68,436.92 731.42,435.44z "/><path id="_R_G_L_11_G_D_42_P_0" fill="#cf1e1e" fill-opacity="1" fill-rule="nonzero" d=" M726.73 425.31 C727.87,426.2 729.1,426.78 730.44,427.04 C730.44,427.04 731.68,423.49 731.68,423.49 C730.7,423.26 729.85,422.84 729.11,422.24 C728.38,421.65 727.74,420.87 727.19,419.91 C726.56,418.8 726.22,417.69 726.16,416.6 C726.1,415.5 726.33,414.5 726.86,413.58 C727.38,412.66 728.15,411.91 729.18,411.33 C729.18,411.33 729.82,410.97 729.82,410.97 C730.84,410.39 731.85,410.09 732.84,410.07 C733.84,410.06 734.76,410.3 735.6,410.79 C736.45,411.29 737.15,412.02 737.7,413.01 C738.25,413.97 738.52,414.94 738.51,415.91 C738.5,416.89 738.24,417.81 737.74,418.66 C737.23,419.51 736.48,420.2 735.49,420.74 C735.49,420.74 737.21,421.83 737.21,421.83 C737.21,421.83 730.33,409.7 730.33,409.7 C730.33,409.7 727.67,411.21 727.67,411.21 C727.67,411.21 735.76,425.45 735.76,425.45 C735.96,425.36 736.17,425.27 736.39,425.16 C736.61,425.04 736.81,424.94 736.98,424.84 C738.77,423.83 740.12,422.57 741.01,421.07 C741.91,419.57 742.35,417.97 742.34,416.26 C742.33,414.54 741.85,412.85 740.9,411.19 C739.94,409.48 738.7,408.17 737.2,407.27 C735.69,406.36 734.07,405.89 732.33,405.88 C730.58,405.87 728.86,406.35 727.15,407.32 C725.47,408.27 724.18,409.52 723.3,411.05 C722.42,412.58 722.01,414.27 722.06,416.12 C722.1,417.96 722.67,419.84 723.74,421.74 C724.59,423.23 725.59,424.42 726.73,425.31z "/><path id="_R_G_L_11_G_D_43_P_0" fill="#cf1e1e" fill-opacity="1" fill-rule="nonzero" d=" M712.58 396.63 C712.46,395.63 712.61,394.69 713.01,393.78 C713.42,392.88 714.04,392.13 714.87,391.52 C715.68,390.93 716.54,390.6 717.45,390.53 C718.35,390.46 719.24,390.65 720.11,391.09 C720.98,391.54 721.74,392.21 722.39,393.1 C723.07,394.03 723.47,394.98 723.59,395.93 C723.71,396.89 723.6,397.79 723.26,398.64 C722.92,399.48 722.33,400.2 721.5,400.81 C720.66,401.41 719.77,401.77 718.81,401.87 C717.86,401.98 716.94,401.83 716.05,401.43 C715.17,401.02 714.4,400.38 713.75,399.48 C713.09,398.57 712.69,397.62 712.58,396.63z  M714.82 405.24 C716.41,406.07 718.03,406.43 719.68,406.32 C721.33,406.21 722.89,405.62 724.36,404.55 C725.77,403.53 726.79,402.28 727.42,400.82 C728.06,399.35 728.26,397.82 728.04,396.23 C727.82,394.63 727.16,393.08 726.08,391.6 C725.27,390.49 724.33,389.6 723.26,388.94 C722.18,388.28 721.03,387.86 719.79,387.69 C718.56,387.51 717.29,387.59 715.99,387.93 C715.99,387.93 715.55,390.39 715.55,390.39 C715.95,390.1 716.24,389.86 716.42,389.68 C716.61,389.5 716.79,389.33 716.95,389.16 C717.12,388.99 717.39,388.77 717.77,388.5 C719,387.6 720.13,387 721.16,386.69 C722.19,386.38 723.14,386.26 724.01,386.35 C724.87,386.43 725.65,386.64 726.33,386.98 C727.02,387.31 727.62,387.69 728.16,388.11 C728.69,388.52 729.13,388.89 729.48,389.21 C729.48,389.21 735.73,394.91 735.73,394.91 C735.73,394.91 738.67,391.95 738.67,391.95 C738.67,391.95 731.72,385.72 731.72,385.72 C730.66,384.76 729.59,383.99 728.5,383.42 C727.41,382.84 726.3,382.46 725.16,382.27 C724.02,382.09 722.87,382.08 721.71,382.26 C720.55,382.43 719.37,382.8 718.16,383.34 C716.95,383.89 715.71,384.63 714.44,385.55 C712.69,386.82 711.33,388.12 710.35,389.44 C709.37,390.76 708.74,392.09 708.46,393.44 C708.18,394.78 708.21,396.11 708.57,397.43 C708.92,398.75 709.57,400.06 710.53,401.37 C711.8,403.12 713.23,404.41 714.82,405.24z "/><path id="_R_G_L_11_G_D_44_P_0" fill="#cf1e1e" fill-opacity="1" fill-rule="nonzero" d=" M694.08 379.87 C695.52,380.49 696.99,380.75 698.46,380.67 C698.46,380.67 698.41,376.97 698.41,376.97 C697.32,376.99 696.29,376.8 695.34,376.4 C694.38,376 693.51,375.4 692.71,374.61 C691.79,373.69 691.17,372.67 690.84,371.56 C690.51,370.45 690.48,369.35 690.76,368.26 C691.04,367.16 691.63,366.17 692.53,365.26 C693.43,364.36 694.43,363.77 695.52,363.49 C696.61,363.22 697.72,363.24 698.83,363.57 C699.94,363.9 700.95,364.53 701.87,365.45 C702.67,366.24 703.27,367.12 703.68,368.06 C704.09,369.01 704.28,370.03 704.26,371.12 C704.26,371.12 707.96,371.17 707.96,371.17 C708.05,369.7 707.78,368.23 707.17,366.79 C706.55,365.34 705.61,363.98 704.34,362.71 C702.87,361.24 701.24,360.24 699.46,359.71 C697.69,359.18 695.93,359.12 694.21,359.53 C692.48,359.93 690.92,360.84 689.51,362.24 C688.12,363.63 687.22,365.2 686.79,366.94 C686.37,368.68 686.43,370.44 686.97,372.2 C687.52,373.96 688.53,375.58 690,377.05 C691.27,378.32 692.63,379.26 694.08,379.87z  M692.61 363.16 C692.61,363.16 690.27,365.5 690.27,365.5 C690.27,365.5 697.81,373.04 697.81,373.04 C697.81,373.04 700.15,370.7 700.15,370.7 C700.15,370.7 692.61,363.16 692.61,363.16z "/><path id="_R_G_L_11_G_D_45_P_0" fill="#cf1e1e" fill-opacity="1" fill-rule="nonzero" d=" M672.98 355.53 C672.62,354.59 672.52,353.62 672.68,352.6 C672.85,351.58 673.32,350.57 674.1,349.56 C674.88,348.55 675.75,347.83 676.7,347.4 C677.65,346.97 678.61,346.83 679.59,346.97 C680.57,347.1 681.49,347.5 682.35,348.16 C683.2,348.82 683.81,349.6 684.18,350.51 C684.55,351.41 684.65,352.38 684.47,353.41 C684.3,354.44 683.82,355.46 683.04,356.47 C682.26,357.48 681.4,358.19 680.46,358.61 C679.51,359.03 678.55,359.18 677.57,359.07 C676.58,358.96 675.65,358.57 674.78,357.89 C673.94,357.25 673.34,356.46 672.98,355.53z  M677.36 363.19 C679.1,363.45 680.79,363.24 682.42,362.57 C684.06,361.89 685.47,360.79 686.65,359.26 C687.85,357.7 688.57,356.05 688.8,354.31 C689.03,352.57 688.8,350.89 688.1,349.28 C687.41,347.68 686.27,346.27 684.7,345.05 C683.15,343.85 681.51,343.12 679.77,342.85 C678.04,342.58 676.36,342.78 674.74,343.44 C673.11,344.11 671.69,345.22 670.49,346.77 C669.31,348.3 668.6,349.94 668.37,351.69 C668.14,353.43 668.36,355.11 669.04,356.74 C669.72,358.37 670.84,359.78 672.39,360.98 C673.97,362.2 675.62,362.93 677.36,363.19z  M661.98 352.61 C661.98,352.61 666.8,346.38 666.8,346.38 C666.8,346.38 671.43,349.95 671.43,349.95 C671.43,349.95 673.97,346.66 673.97,346.66 C673.97,346.66 669.34,343.09 669.34,343.09 C669.34,343.09 673.99,337.06 673.99,337.06 C673.99,337.06 670.35,334.25 670.35,334.25 C670.35,334.25 658.34,349.8 658.34,349.8 C658.34,349.8 661.98,352.61 661.98,352.61z "/><path id="_R_G_L_11_G_D_46_P_0" fill="#cf1e1e" fill-opacity="1" fill-rule="nonzero" d=" M652.68 351.39 C652.68,351.39 656.8,344.2 656.8,344.2 C656.8,344.2 650.21,340.44 650.21,340.44 C650.21,340.44 648.28,343.83 648.28,343.83 C648.28,343.83 652.05,345.98 652.05,345.98 C652.05,345.98 651.17,345.36 651.17,345.36 C651.17,345.36 648.95,349.25 648.95,349.25 C648.95,349.25 652.68,351.39 652.68,351.39z  M652.27 346.11 C652.27,346.11 662.03,329.05 662.03,329.05 C662.03,329.05 658.03,326.77 658.03,326.77 C658.03,326.77 650.21,340.44 650.21,340.44 C650.21,340.44 642.07,335.78 642.07,335.78 C642.07,335.78 649.89,322.11 649.89,322.11 C649.89,322.11 645.89,319.83 645.89,319.83 C645.89,319.83 636.14,336.88 636.14,336.88 C636.14,336.88 652.27,346.11 652.27,346.11z "/><path id="_R_G_L_11_G_D_47_P_0" fill="#cf1e1e" fill-opacity="1" fill-rule="nonzero" d=" M625.57 331.31 C626.87,331.17 627.95,330.66 628.81,329.78 C628.81,329.78 629.19,326.94 629.19,326.94 C628.43,327.71 627.54,328.15 626.51,328.27 C625.48,328.39 624.45,328.23 623.42,327.78 C622.34,327.31 621.59,326.73 621.17,326.01 C620.76,325.3 620.71,324.56 621.04,323.8 C621.34,323.12 621.83,322.66 622.52,322.41 C623.22,322.16 624.28,322.34 625.73,322.96 C625.73,322.96 630.66,325.09 630.66,325.09 C630.66,325.09 631.87,322.28 631.87,322.28 C631.87,322.28 626.63,320.03 626.63,320.03 C624.8,319.24 623.24,318.85 621.93,318.85 C620.62,318.85 619.55,319.15 618.72,319.75 C617.88,320.35 617.25,321.16 616.81,322.18 C616.37,323.21 616.24,324.26 616.44,325.32 C616.64,326.38 617.15,327.36 617.96,328.26 C618.78,329.16 619.86,329.9 621.22,330.48 C622.82,331.17 624.27,331.44 625.57,331.31z  M630.99 334.4 C630.99,334.4 635.54,323.82 635.54,323.82 C636.66,321.2 636.78,318.96 635.88,317.1 C634.99,315.23 633.23,313.74 630.62,312.61 C629.18,311.99 627.71,311.58 626.21,311.37 C624.7,311.17 623.31,311.23 622.02,311.56 C622.02,311.56 622.35,315.35 622.35,315.35 C623.27,315.07 624.29,314.99 625.41,315.1 C626.52,315.2 627.59,315.47 628.6,315.91 C630.11,316.56 631.09,317.39 631.54,318.39 C631.99,319.4 631.94,320.53 631.41,321.76 C631.41,321.76 628.66,328.15 628.66,328.15 C628.66,328.15 628.57,329.03 628.57,329.03 C628.57,329.03 627,332.68 627,332.68 C627,332.68 630.99,334.4 630.99,334.4z "/><path id="_R_G_L_11_G_D_48_P_0" fill="#cf1e1e" fill-opacity="1" fill-rule="nonzero" d=" M600.44 318.18 C599.74,317.45 599.27,316.57 599.05,315.53 C598.83,314.49 598.9,313.37 599.26,312.17 C599.63,310.95 600.2,309.97 600.96,309.24 C601.72,308.51 602.59,308.04 603.58,307.83 C604.57,307.61 605.59,307.67 606.65,307.99 C607.7,308.31 608.57,308.83 609.27,309.55 C609.96,310.27 610.42,311.15 610.64,312.18 C610.87,313.21 610.79,314.34 610.42,315.56 C610.06,316.75 609.5,317.72 608.74,318.47 C607.97,319.21 607.1,319.69 606.13,319.9 C605.15,320.12 604.13,320.07 603.08,319.75 C602.02,319.43 601.14,318.91 600.44,318.18z  M594.41 328.43 C594.41,328.43 597.8,317.23 597.8,317.23 C597.8,317.23 598.97,312.12 598.97,312.12 C598.97,312.12 600.63,307.16 600.63,307.16 C600.63,307.16 601.97,302.73 601.97,302.73 C601.97,302.73 597.78,301.45 597.78,301.45 C597.78,301.45 590.01,327.09 590.01,327.09 C590.01,327.09 594.41,328.43 594.41,328.43z  M607.7 323.96 C609.37,323.59 610.83,322.81 612.1,321.62 C613.38,320.43 614.31,318.86 614.9,316.91 C615.49,314.96 615.58,313.15 615.18,311.46 C614.79,309.78 614,308.32 612.82,307.09 C611.64,305.86 610.12,304.97 608.27,304.4 C606.67,303.92 605.15,303.83 603.69,304.15 C602.24,304.46 600.94,305.22 599.8,306.41 C598.65,307.6 597.75,309.3 597.08,311.51 C596.42,313.69 596.24,315.61 596.55,317.25 C596.86,318.9 597.53,320.26 598.58,321.35 C599.62,322.43 600.9,323.2 602.43,323.67 C604.28,324.23 606.04,324.33 607.7,323.96z "/><path id="_R_G_L_11_G_D_49_P_0" fill="#cf1e1e" fill-opacity="1" fill-rule="nonzero" d=" M567.69 315.68 C567.69,315.68 571.41,293.09 571.41,293.09 C571.41,293.09 570.13,294.08 570.13,294.08 C570.13,294.08 585.49,296.61 585.49,296.61 C585.49,296.61 584.59,295.27 584.59,295.27 C584.59,295.27 580.87,317.85 580.87,317.85 C580.87,317.85 585.52,318.62 585.52,318.62 C585.52,318.62 589.71,293.2 589.71,293.2 C589.71,293.2 567.23,289.5 567.23,289.5 C567.23,289.5 563.04,314.91 563.04,314.91 C563.04,314.91 567.69,315.68 567.69,315.68z "/></g><g id="_R_G_L_10_G" transform=" translate(256, 256) translate(-539.685, -521.112)"><path id="_R_G_L_10_G_D_0_P_0" fill="#4d4d4d" fill-opacity="1" fill-rule="nonzero" d=" M582.73 409.15 C582.73,409.15 567.87,409.15 567.87,409.15 C567.87,409.15 567.87,408.7 567.87,408.7 C567.87,405.14 563.43,402.29 557.92,402.29 C557.92,402.29 519.01,402.29 519.01,402.29 C513.53,402.29 509.07,405.14 509.07,408.7 C509.07,408.7 509.07,409.15 509.07,409.15 C509.07,409.15 496.66,409.15 496.66,409.15 C484.51,409.15 474.66,418.98 474.66,431.12 C474.66,431.12 474.66,617.94 474.66,617.94 C474.66,630.09 484.5,639.93 496.65,639.93 C496.65,639.93 582.73,639.93 582.73,639.93 C594.88,639.93 604.71,630.09 604.71,617.94 C604.71,617.94 604.71,431.12 604.71,431.12 C604.71,418.98 594.88,409.15 582.73,409.15z  M599.56 613.27 C599.56,624.71 590.49,633.99 579.32,633.99 C579.32,633.99 500.05,633.99 500.05,633.99 C488.87,633.99 479.82,624.71 479.82,613.27 C479.82,613.27 479.82,437.19 479.82,437.19 C479.82,425.76 488.87,416.45 500.05,416.45 C500.05,416.45 579.32,416.45 579.32,416.45 C590.49,416.45 599.56,425.76 599.56,437.19 C599.56,437.19 599.56,613.27 599.56,613.27z "/></g><g id="_R_G_L_9_G" transform=" translate(256.012, 178.125)"><path id="_R_G_L_9_G_D_0_P_0" fill="#e5f1ff" fill-opacity="1" fill-rule="nonzero" d=" M583.57 460.77 C583.57,460.77 495.82,460.77 495.82,460.77 C491,460.77 487.1,456.86 487.1,452.04 C487.1,452.04 487.1,434.43 487.1,434.43 C487.1,429.62 491,425.71 495.82,425.71 C495.82,425.71 583.57,425.71 583.57,425.71 C588.39,425.71 592.3,429.62 592.3,434.43 C592.3,434.43 592.3,452.04 592.3,452.04 C592.3,456.86 588.39,460.77 583.57,460.77z "/></g><g id="_R_G_L_8_G" transform=" translate(256.012, 219.02)"><path id="_R_G_L_8_G_D_0_P_0" fill="#e5f1ff" fill-opacity="1" fill-rule="nonzero" d=" M583.57 501.66 C583.57,501.66 495.82,501.66 495.82,501.66 C491,501.66 487.1,497.76 487.1,492.94 C487.1,492.94 487.1,475.33 487.1,475.33 C487.1,470.51 491,466.6 495.82,466.6 C495.82,466.6 583.57,466.6 583.57,466.6 C588.39,466.6 592.3,470.51 592.3,475.33 C592.3,475.33 592.3,492.94 592.3,492.94 C592.3,497.76 588.39,501.66 583.57,501.66z "/></g><g id="_R_G_L_7_G" transform=" translate(256.012, 260.301)"><path id="_R_G_L_7_G_D_0_P_0" fill="#e5f1ff" fill-opacity="1" fill-rule="nonzero" d=" M583.57 542.94 C583.57,542.94 495.82,542.94 495.82,542.94 C491,542.94 487.1,539.04 487.1,534.22 C487.1,534.22 487.1,516.61 487.1,516.61 C487.1,511.79 491,507.88 495.82,507.88 C495.82,507.88 583.57,507.88 583.57,507.88 C588.39,507.88 592.3,511.79 592.3,516.61 C592.3,516.61 592.3,534.22 592.3,534.22 C592.3,539.04 588.39,542.94 583.57,542.94z "/></g><g id="_R_G_L_6_G" transform=" translate(256.012, 301.196)"><path id="_R_G_L_6_G_D_0_P_0" fill="#e5f1ff" fill-opacity="1" fill-rule="nonzero" d=" M583.57 583.84 C583.57,583.84 495.82,583.84 495.82,583.84 C491,583.84 487.1,579.93 487.1,575.11 C487.1,575.11 487.1,557.5 487.1,557.5 C487.1,552.68 491,548.78 495.82,548.78 C495.82,548.78 583.57,548.78 583.57,548.78 C588.39,548.78 592.3,552.68 592.3,557.5 C592.3,557.5 592.3,575.11 592.3,575.11 C592.3,579.93 588.39,583.84 583.57,583.84z "/></g><g id="_R_G_L_5_G" transform=" translate(256.012, 342.09)"><path id="_R_G_L_5_G_D_0_P_0" fill="#e5f1ff" fill-opacity="1" fill-rule="nonzero" d=" M583.57 624.73 C583.57,624.73 495.82,624.73 495.82,624.73 C491,624.73 487.1,620.83 487.1,616.01 C487.1,616.01 487.1,598.4 487.1,598.4 C487.1,593.58 491,589.67 495.82,589.67 C495.82,589.67 583.57,589.67 583.57,589.67 C588.39,589.67 592.3,593.58 592.3,598.4 C592.3,598.4 592.3,616.01 592.3,616.01 C592.3,620.83 588.39,624.73 583.57,624.73z "/></g><g id="_R_G_L_4_G_N_10_T_0_M"><g id="_R_G_L_4_G_N_10_T_0" transform=" translate(256.012, 178.125)"><g id="_R_G_L_4_G" transform=" translate(539.697, 460.766)"><path id="_R_G_L_4_G_D_1_P_0" fill="#79ce3a" fill-opacity="1" fill-rule="nonzero" d=" M583.57 460.77 C583.57,460.77 495.82,460.77 495.82,460.77 C491,460.77 487.1,456.86 487.1,452.04 C487.1,452.04 487.1,434.43 487.1,434.43 C487.1,429.62 491,425.71 495.82,425.71 C495.82,425.71 583.57,425.71 583.57,425.71 C588.39,425.71 592.3,429.62 592.3,434.43 C592.3,434.43 592.3,452.04 592.3,452.04 C592.3,456.86 588.39,460.77 583.57,460.77z "/></g></g></g><g id="_R_G_L_3_G_N_9_T_0_M"><g id="_R_G_L_3_G_N_9_T_0" transform=" translate(256.012, 219.02)"><g id="_R_G_L_3_G" transform=" translate(539.697, 501.661)"><path id="_R_G_L_3_G_D_1_P_0" fill="#a3ce3a" fill-opacity="1" fill-rule="nonzero" d=" M583.57 501.66 C583.57,501.66 495.82,501.66 495.82,501.66 C491,501.66 487.1,497.76 487.1,492.94 C487.1,492.94 487.1,475.33 487.1,475.33 C487.1,470.51 491,466.6 495.82,466.6 C495.82,466.6 583.57,466.6 583.57,466.6 C588.39,466.6 592.3,470.51 592.3,475.33 C592.3,475.33 592.3,492.94 592.3,492.94 C592.3,497.76 588.39,501.66 583.57,501.66z "/></g></g></g><g id="_R_G_L_2_G_N_8_T_0_M"><g id="_R_G_L_2_G_N_8_T_0" transform=" translate(256.012, 260.301)"><g id="_R_G_L_2_G" transform=" translate(539.697, 542.942)"><path id="_R_G_L_2_G_D_1_P_0" fill="#cece3a" fill-opacity="1" fill-rule="nonzero" d=" M583.57 542.94 C583.57,542.94 495.82,542.94 495.82,542.94 C491,542.94 487.1,539.04 487.1,534.22 C487.1,534.22 487.1,516.61 487.1,516.61 C487.1,511.79 491,507.88 495.82,507.88 C495.82,507.88 583.57,507.88 583.57,507.88 C588.39,507.88 592.3,511.79 592.3,516.61 C592.3,516.61 592.3,534.22 592.3,534.22 C592.3,539.04 588.39,542.94 583.57,542.94z "/></g></g></g><g id="_R_G_L_1_G_N_7_T_0_M"><g id="_R_G_L_1_G_N_7_T_0" transform=" translate(256.012, 301.196)"><g id="_R_G_L_1_G" transform=" translate(539.697, 583.837)"><path id="_R_G_L_1_G_D_1_P_0" fill="#ce843a" fill-opacity="1" fill-rule="nonzero" d=" M583.57 583.84 C583.57,583.84 495.82,583.84 495.82,583.84 C491,583.84 487.1,579.93 487.1,575.11 C487.1,575.11 487.1,557.5 487.1,557.5 C487.1,552.68 491,548.78 495.82,548.78 C495.82,548.78 583.57,548.78 583.57,548.78 C588.39,548.78 592.3,552.68 592.3,557.5 C592.3,557.5 592.3,575.11 592.3,575.11 C592.3,579.93 588.39,583.84 583.57,583.84z "/></g></g></g><g id="_R_G_L_0_G_N_6_T_0" transform=" translate(256.012, 342.09)"><g id="_R_G_L_0_G" transform=" translate(539.697, 624.732)"><path id="_R_G_L_0_G_D_0_P_0" fill="#ce3a3a" fill-opacity="1" fill-rule="nonzero" d=" M583.57 624.73 C583.57,624.73 495.82,624.73 495.82,624.73 C491,624.73 487.1,620.83 487.1,616.01 C487.1,616.01 487.1,598.4 487.1,598.4 C487.1,593.58 491,589.67 495.82,589.67 C495.82,589.67 583.57,589.67 583.57,589.67 C588.39,589.67 592.3,593.58 592.3,598.4 C592.3,598.4 592.3,616.01 592.3,616.01 C592.3,620.83 588.39,624.73 583.57,624.73z "/></g></g></g><g id="time_group"/></svg>