<svg width="140" height="26" viewBox="0 0 140 26" fill="none" xmlns="http://www.w3.org/2000/svg">
<path d="M127.135 26H12.8653C5.7526 26 0.000244141 20.1873 0.000244141 13C0.000244141 5.81269 5.7526 0 12.8653 0H127.135C134.248 0 140 5.81269 140 13C140 20.148 134.248 26 127.135 26Z" fill="white"/>
<path d="M38.6426 9.87479C38.526 10.0313 38.4094 10.1879 38.2927 10.227C38.1761 10.3053 38.0206 10.3444 37.8262 10.3444C37.6318 10.3444 37.4375 10.3053 37.2431 10.227C37.0487 10.1487 36.8155 10.0313 36.5822 9.95306C36.349 9.83565 36.0768 9.75737 35.8047 9.6791C35.4937 9.60082 35.1827 9.56169 34.7939 9.56169C34.2497 9.56169 33.8609 9.6791 33.5499 9.87479C33.2778 10.0705 33.1223 10.3836 33.1223 10.7358C33.1223 11.0098 33.2 11.2055 33.3944 11.4011C33.5888 11.5577 33.822 11.7142 34.133 11.8708C34.444 11.9882 34.7939 12.1447 35.1827 12.2622C35.5714 12.3796 35.9602 12.497 36.3878 12.6535C36.8155 12.8101 37.2042 12.9666 37.593 13.1623C37.9817 13.358 38.3316 13.5928 38.6426 13.9059C38.9536 14.1799 39.1869 14.5321 39.3813 14.9626C39.5756 15.354 39.6534 15.8628 39.6534 16.4498C39.6534 17.1543 39.5368 17.7805 39.2646 18.4067C38.9925 18.9938 38.6426 19.5026 38.1372 19.9331C37.6319 20.3636 37.0098 20.6767 36.2712 20.9506C35.5326 21.1855 34.6773 21.3029 33.7054 21.3029C33.2389 21.3029 32.7335 21.2637 32.267 21.1855C31.8005 21.1072 31.334 20.9898 30.8675 20.8332C30.401 20.6767 30.0122 20.481 29.6235 20.2853C29.2347 20.0896 28.9237 19.8548 28.6516 19.5808L29.6235 18.0153C29.7401 17.8197 29.8567 17.7022 30.0511 17.5848C30.2066 17.4674 30.4399 17.4283 30.712 17.4283C30.9452 17.4283 31.1785 17.4674 31.3729 17.5848C31.5673 17.7022 31.7616 17.8197 31.9949 17.9371C32.2281 18.0545 32.5003 18.1719 32.8113 18.2893C33.1223 18.4067 33.511 18.4459 33.9387 18.4459C34.2497 18.4459 34.5218 18.4067 34.7551 18.3284C34.9883 18.2502 35.1438 18.1719 35.2993 18.0545C35.4548 17.9371 35.5326 17.8197 35.6103 17.6631C35.6881 17.5066 35.6881 17.35 35.6881 17.1935C35.6881 16.9195 35.6103 16.6847 35.4159 16.489C35.2216 16.2933 34.9883 16.1367 34.6773 16.0193C34.3663 15.9019 34.0164 15.7454 33.6277 15.6671C33.2389 15.5497 32.8501 15.4323 32.4225 15.2757C32.0338 15.1192 31.6061 14.9626 31.2174 14.7669C30.8286 14.5713 30.4787 14.2973 30.1677 13.9842C29.8567 13.6711 29.6235 13.2797 29.4291 12.8101C29.2347 12.3404 29.157 11.7925 29.157 11.1663C29.157 10.5793 29.2736 9.9922 29.5068 9.44427C29.7401 8.89635 30.09 8.4267 30.5565 7.99619C31.023 7.56568 31.6061 7.25259 32.3059 7.01776C33.0057 6.78294 33.822 6.66553 34.7551 6.66553C35.2604 6.66553 35.7658 6.70466 36.2323 6.82208C36.6988 6.90035 37.1653 7.0569 37.5541 7.21345C37.9817 7.37 38.3316 7.56568 38.6815 7.80051C39.0314 8.03533 39.3424 8.27016 39.5756 8.54412L38.6426 9.87479Z" fill="#D8271C"/>
<path d="M39.5757 6.979H42.9579C43.2689 6.979 43.5021 7.05728 43.6965 7.17469C43.8909 7.33124 44.0464 7.48779 44.1241 7.68347L45.5237 14.0629C45.6403 14.5325 45.7569 15.0021 45.8347 15.4718C45.9124 15.9414 45.9902 16.372 46.0679 16.8416C46.1845 16.4111 46.34 15.9414 46.4567 15.4718C46.5733 15.0021 46.7288 14.5325 46.8843 14.0629L48.6337 7.68347C48.7115 7.48779 48.8281 7.2921 49.0225 7.17469C49.2168 7.01814 49.4501 6.979 49.7222 6.979H51.5883C51.8993 6.979 52.1325 7.05728 52.3269 7.17469C52.5213 7.33124 52.6768 7.48779 52.7545 7.68347L54.4262 14.0629C54.5428 14.5325 54.6983 15.0021 54.8149 15.4718C54.9315 15.9414 55.0482 16.372 55.1648 16.8416C55.2426 16.372 55.3203 15.9414 55.4369 15.4718C55.5536 15.0021 55.6702 14.5325 55.7868 14.0629L57.2641 7.68347C57.3418 7.48779 57.4585 7.2921 57.6528 7.17469C57.8472 7.01814 58.0805 6.979 58.3526 6.979H61.5793L57.1863 21.1858H53.7653C53.5709 21.1858 53.4154 21.1467 53.2988 21.0293C53.1821 20.9119 53.0655 20.7553 52.9878 20.4814L50.9662 13.3975C50.8496 13.0844 50.7719 12.7713 50.6941 12.4582C50.6164 12.1451 50.5386 11.832 50.4997 11.5189C50.422 11.832 50.3831 12.1451 50.3054 12.4582C50.2276 12.7713 50.1499 13.0844 50.0332 13.3975L48.0117 20.4422C47.8562 20.9119 47.5841 21.1467 47.1176 21.1467H43.9686L39.5757 6.979Z" fill="#D8271C"/>
<path d="M68.0712 6.5481C69.0043 6.5481 69.8595 6.70464 70.637 6.97861C71.4145 7.25257 72.0754 7.68308 72.6197 8.231C73.1639 8.77892 73.6305 9.48339 73.9415 10.2661C74.2525 11.088 74.408 11.9882 74.408 13.0057C74.408 13.3188 74.408 13.5928 74.3691 13.7885C74.3302 13.9842 74.2913 14.1407 74.2136 14.2581C74.1358 14.3756 74.0581 14.4538 73.9026 14.493C73.786 14.5321 73.6305 14.5712 73.4361 14.5712H65.3499C65.4666 15.7454 65.8553 16.6064 66.4385 17.1543C67.0216 17.7022 67.7602 17.937 68.6933 17.937C69.1986 17.937 69.5874 17.8979 69.9761 17.7414C70.326 17.6239 70.637 17.5065 70.9092 17.35C71.1813 17.1934 71.4534 17.076 71.6867 16.9586C71.9199 16.8412 72.1532 16.7629 72.4253 16.7629C72.7752 16.7629 73.0084 16.8803 73.2028 17.1152L74.4468 18.6415C74.0192 19.1503 73.5527 19.5417 73.0473 19.8548C72.5419 20.1679 72.0366 20.4027 71.4923 20.5984C70.948 20.7941 70.4427 20.9115 69.8984 20.9506C69.3541 21.0289 68.8488 21.068 68.3822 21.068C67.4104 21.068 66.4773 20.9115 65.6221 20.5984C64.7668 20.2853 63.9893 19.7765 63.3673 19.1503C62.7064 18.5241 62.201 17.7022 61.8123 16.7629C61.4235 15.8236 61.268 14.7278 61.268 13.4363C61.268 12.497 61.4235 11.5968 61.7345 10.7358C62.0455 9.87476 62.512 9.13116 63.134 8.50496C63.7172 7.87876 64.4558 7.36998 65.3111 6.97861C66.0497 6.74378 67.0216 6.5481 68.0712 6.5481ZM68.149 9.48339C67.3326 9.48339 66.7106 9.71822 66.2441 10.1879C65.7776 10.6575 65.5054 11.3228 65.3499 12.1839H70.5982C70.5982 11.8316 70.5593 11.5185 70.4815 11.2054C70.4038 10.8923 70.2483 10.6184 70.0539 10.3444C69.8595 10.1096 69.5874 9.87476 69.2764 9.71821C69.0043 9.56167 68.6155 9.48339 68.149 9.48339Z" fill="#D8271C"/>
<path d="M82.883 6.5481C83.816 6.5481 84.6713 6.70464 85.4488 6.97861C86.2263 7.25257 86.8872 7.68308 87.4314 8.231C87.9757 8.77892 88.4033 9.48339 88.7532 10.2661C89.0642 11.088 89.2197 11.9882 89.2197 13.0057C89.2197 13.3188 89.2197 13.5928 89.1808 13.7885C89.142 13.9842 89.1031 14.1407 89.0253 14.2581C88.9476 14.3756 88.8698 14.4538 88.7143 14.493C88.5977 14.5321 88.4422 14.5712 88.2478 14.5712H80.1228C80.2395 15.7454 80.6282 16.6064 81.2114 17.1543C81.7945 17.7022 82.5331 17.937 83.4661 17.937C83.9715 17.937 84.3603 17.8979 84.749 17.7414C85.0989 17.6239 85.4099 17.5065 85.682 17.35C85.9542 17.1934 86.2263 17.076 86.4596 16.9586C86.6928 16.8412 86.9261 16.7629 87.1982 16.7629C87.5481 16.7629 87.7813 16.8803 87.9757 17.1152L89.1808 18.6415C88.7532 19.1503 88.2867 19.5417 87.7813 19.8548C87.2759 20.1679 86.7706 20.4027 86.2263 20.5984C85.682 20.7941 85.1767 20.9115 84.6324 20.9506C84.0882 21.0289 83.5828 21.068 83.1163 21.068C82.1444 21.068 81.2114 20.9115 80.3172 20.5984C79.462 20.2853 78.6844 19.7765 78.0624 19.1503C77.4016 18.5241 76.8962 17.7022 76.5074 16.7629C76.1187 15.8236 75.9243 14.7278 75.9243 13.4363C75.9243 12.497 76.0798 11.5968 76.3908 10.7358C76.7018 9.87476 77.1683 9.13116 77.7903 8.50496C78.4123 7.87876 79.1121 7.36998 79.9673 6.97861C80.8615 6.74378 81.7945 6.5481 82.883 6.5481ZM82.9608 9.48339C82.1444 9.48339 81.5224 9.71822 81.0559 10.1879C80.5893 10.6575 80.3172 11.3228 80.1617 12.1839H85.4099C85.4099 11.8316 85.371 11.5185 85.2933 11.2054C85.2155 10.8923 85.06 10.6184 84.8657 10.3444C84.6713 10.1096 84.3992 9.87476 84.0881 9.71821C83.816 9.56167 83.4273 9.48339 82.9608 9.48339Z" fill="#D8271C"/>
<path d="M103.915 17.8592C103.798 17.5852 103.604 17.3113 103.409 17.1156C103.176 16.9199 102.943 16.7242 102.632 16.6068C102.049 16.372 101.31 16.372 100.727 16.6068C100.416 16.7242 100.183 16.9199 99.9494 17.1156C99.7161 17.3113 99.5606 17.5852 99.444 17.8592C99.3274 18.1331 99.2496 18.4462 99.2496 18.7985C99.2496 19.1507 99.3274 19.4638 99.444 19.7378C99.5606 20.0509 99.755 20.2857 99.9494 20.4814C100.183 20.7162 100.416 20.8727 100.727 20.9902C101.038 21.1076 101.349 21.1858 101.699 21.1858C102.049 21.1858 102.36 21.1076 102.632 20.9902C102.904 20.8727 103.176 20.7162 103.409 20.4814C103.643 20.2857 103.798 20.0117 103.915 19.6986C104.031 19.3855 104.109 19.0724 104.109 18.7593C104.109 18.4462 104.031 18.1331 103.915 17.8592Z" fill="#D8271C"/>
<path d="M124.208 21.1858H120.359L114.878 6.979H118.376C118.687 6.979 118.921 7.05728 119.115 7.17469C119.309 7.33124 119.465 7.48779 119.543 7.68347L121.486 14.0629C121.642 14.5716 121.798 15.0804 121.953 15.5892C122.07 16.098 122.186 16.5676 122.303 17.0764C122.42 16.5676 122.536 16.098 122.653 15.5892C122.769 15.0804 122.964 14.5716 123.119 14.0629L125.141 7.68347C125.219 7.48779 125.335 7.2921 125.568 7.17469C125.763 7.01814 125.996 6.979 126.268 6.979H129.611L124.208 21.1858Z" fill="#D8271C"/>
<path d="M97.3057 17.8199C97.228 17.6634 97.1114 17.5851 97.0336 17.5069C96.917 17.4286 96.7615 17.3894 96.606 17.3894C96.4893 17.3894 96.3727 17.4286 96.295 17.4677C96.2172 17.5069 96.1395 17.546 96.0617 17.5851C96.0228 17.6243 95.9451 17.6243 95.8673 17.6634C95.7896 17.7025 95.7118 17.7025 95.5952 17.7025C95.4008 17.7025 95.2842 17.6634 95.2064 17.5069C95.0898 17.3503 95.0509 17.1938 95.0509 16.9198V10.8144H98.1999V7.64426H95.0509V4.08276H91.6299V4.1219C91.0856 4.23931 90.6969 4.7481 90.6969 5.29602V17.1546C90.6969 17.7417 90.7746 18.2896 90.969 18.7984C91.1634 19.3072 91.3966 19.7377 91.7465 20.0899C92.0964 20.4421 92.524 20.7161 93.0294 20.9118C93.5348 21.1075 94.0791 21.1858 94.7399 21.1858C95.4008 21.1858 96.1006 21.1075 96.7226 20.9118C97.3835 20.7161 97.9666 20.403 98.472 20.0508L98.6664 19.8942L97.3057 17.8199Z" fill="#D8271C"/>
<path d="M113.556 17.8199C113.478 17.6634 113.361 17.5851 113.284 17.5069C113.167 17.4286 113.012 17.3894 112.856 17.3894C112.739 17.3894 112.623 17.4286 112.545 17.4677C112.467 17.5069 112.39 17.546 112.312 17.5851C112.273 17.6243 112.195 17.6243 112.117 17.6634C112.04 17.7025 111.962 17.7025 111.845 17.7025C111.651 17.7025 111.534 17.6634 111.457 17.5069C111.34 17.3503 111.301 17.1938 111.301 16.9198V10.8144H114.45V7.64426H111.301V4.08276H107.88V4.1219C107.336 4.23931 106.947 4.7481 106.947 5.29602V17.1546C106.947 17.7417 107.025 18.2896 107.219 18.7984C107.413 19.3072 107.647 19.7377 107.997 20.0899C108.346 20.4421 108.774 20.7161 109.279 20.9118C109.785 21.1075 110.329 21.1858 110.99 21.1858C111.651 21.1858 112.351 21.1075 112.973 20.9118C113.634 20.7161 114.217 20.403 114.722 20.0508L114.916 19.8942L113.556 17.8199Z" fill="#D8271C"/>
<path d="M13.1528 0.247561C6.03859 0.24756 0.246154 6.00071 0.246153 13.1237C0.246151 20.2466 6.03858 25.9998 13.1528 25.9998C20.267 25.9998 26.0594 20.2466 26.0594 13.1237C26.0983 6.00072 20.3059 0.247562 13.1528 0.247561ZM17.779 12.654L10.8203 16.4895C10.2371 16.8026 9.77062 16.4503 9.77062 15.7067L9.69287 8.66203C9.69287 7.91843 10.1594 7.52706 10.7425 7.84016L17.7401 11.519C18.3232 11.8321 18.3621 12.3409 17.779 12.654Z" fill="#20BEC6"/>
<path opacity="0.24" d="M14.3185 0.0126976C7.1266 0.0126963 1.29529 5.84412 1.29529 13.0062C1.29528 20.1683 7.12659 25.9997 14.3185 25.9997C21.5105 25.9997 26.7975 20.1683 26.7975 13.0062C26.8364 5.84413 21.5105 0.0126989 14.3185 0.0126976ZM18.9836 12.5366L11.986 16.372C11.4029 16.6851 10.9364 16.3329 10.8975 15.5893L10.8198 8.50545C10.8198 7.76184 11.2863 7.37047 11.8694 7.68357L18.9447 11.4016C19.5278 11.7147 19.5667 12.2235 18.9836 12.5366Z" fill="#20BEC6"/>
<path d="M25.9039 9.99281C25.4374 7.80113 22.9882 3.53519 21.4332 2.86986C19.9559 2.24366 19.1784 1.18696 18.5953 1.06955C18.051 0.952139 15.4853 -0.1437 14.5911 0.0519851C13.697 0.24767 12.4141 -0.0654259 11.6755 0.0128481C10.9368 0.130259 7.01044 0.991274 4.79454 3.0264C2.69527 4.94412 2.07326 6.00082 2.07326 6.00082C2.07326 6.00082 -1.85316 13.8282 1.10137 14.7675C1.87888 15.0023 1.76226 15.472 1.80113 16.2939C1.80113 17.5071 1.45125 17.6637 2.34539 18.3681C3.23952 19.0726 4.17253 17.7419 4.95004 18.5247C5.68867 19.3074 4.2114 21.0295 6.31067 22.2036C8.40995 23.3385 8.09894 20.3641 9.57621 20.8729C11.0923 21.3817 9.77058 23.4951 11.4811 23.6125C13.1916 23.7691 12.5696 21.46 13.5804 21.6165C14.5911 21.7731 14.008 23.4168 16.1073 23.0255C18.2065 22.6341 16.807 20.8338 17.9344 20.4815C19.1007 20.1293 19.4894 22.3993 21.7442 20.2076C23.999 18.0159 21.8608 18.055 22.3662 17.194C22.8327 16.333 23.3381 17.8202 23.999 15.8242C24.6987 13.8282 24.0767 14.5718 23.999 13.6326C23.9212 12.7324 26.3704 12.1845 25.9039 9.99281Z" fill="white"/>
<path d="M21.8608 16.6066L20.2669 16.6066C20.1114 16.6066 19.9948 16.4892 19.9948 16.3326L19.9948 15.9021C19.9948 15.7456 20.1114 15.6282 20.2669 15.6282L21.8608 15.6282C22.0163 15.6282 22.1329 15.7456 22.1329 15.9021L22.1329 16.3326C22.094 16.4501 21.9774 16.6066 21.8608 16.6066Z" fill="#D8271C"/>
<path d="M22.2497 11.832C22.2108 11.832 22.172 11.832 22.0942 11.7929L21.7443 11.558C21.6666 11.5189 21.6277 11.4406 21.6277 11.4015C21.6277 11.3232 21.6277 11.2449 21.6666 11.2058L22.483 9.79687C22.5607 9.67946 22.7162 9.60118 22.8329 9.67946L23.1827 9.91428C23.2605 9.95342 23.2994 10.0317 23.2994 10.0708C23.2994 10.1491 23.2994 10.2274 23.2605 10.2665L22.4441 11.6754C22.4441 11.7929 22.3275 11.832 22.2497 11.832Z" fill="#D8271C"/>
<path d="M19.9948 8.89677C19.9559 8.89677 19.9171 8.89677 19.8782 8.85763L19.5283 8.62281C19.4117 8.54453 19.3728 8.38798 19.4505 8.23144L20.2669 6.8225C20.3447 6.70509 20.5002 6.62682 20.6168 6.70509L20.9667 6.93992C21.0444 6.97905 21.0833 7.05733 21.0833 7.09646C21.0833 7.17474 21.0833 7.25301 21.0444 7.29215L20.2281 8.74022C20.1503 8.81849 20.0726 8.89677 19.9948 8.89677Z" fill="#F6BF48"/>
<path d="M17.8566 5.53114C17.8177 5.53114 17.7789 5.53114 17.74 5.492C17.6622 5.45286 17.6234 5.41373 17.5845 5.33545L17.0402 3.76997C17.0014 3.69169 17.0014 3.61342 17.0402 3.57428C17.0791 3.49601 17.118 3.45687 17.1957 3.41774L17.5845 3.26119C17.74 3.22205 17.8955 3.26119 17.9344 3.41774L18.4786 4.98322C18.5175 5.13977 18.4786 5.29631 18.3231 5.33545L17.9344 5.492C17.9344 5.53114 17.8955 5.53114 17.8566 5.53114Z" fill="#D8271C"/>
<path d="M15.6407 6.118C15.6018 6.15714 15.6018 6.15714 15.563 6.19627C15.4852 6.23541 15.4463 6.23541 15.3686 6.23541L13.7747 5.8049C13.6969 5.8049 13.6581 5.72663 13.6192 5.68749C13.5803 5.60922 13.5803 5.53094 13.5803 5.49181L13.6969 5.10043C13.7358 4.94389 13.8913 4.86561 14.008 4.90475L15.6018 5.33526C15.6796 5.33526 15.7185 5.41353 15.7573 5.45267C15.7962 5.53094 15.7962 5.60922 15.7962 5.64835L15.6796 6.03972C15.6796 6.07886 15.6796 6.118 15.6407 6.118Z" fill="#20BEC6"/>
<path d="M11.7533 3.30014C11.6366 3.30014 11.52 3.22187 11.4811 3.06532L11.4034 2.63481C11.4034 2.55654 11.4034 2.47826 11.4423 2.43913C11.4811 2.36085 11.5589 2.32172 11.5978 2.32172L13.1528 1.96948C13.2305 1.96948 13.3083 1.96948 13.3471 2.00862C13.4249 2.04776 13.4638 2.12603 13.4638 2.16517L13.5415 2.59568C13.5804 2.75222 13.4638 2.90877 13.3471 2.94791L11.7921 3.30014L11.7533 3.30014Z" fill="#F6BF48"/>
<path d="M16.3792 19.1507C16.3404 19.1507 16.3015 19.1507 16.2626 19.1115L15.9127 18.8767C15.7961 18.7984 15.7572 18.6419 15.835 18.4853L16.6514 17.0764C16.7291 16.959 16.8846 16.8807 17.0012 16.959L17.3511 17.1938C17.4289 17.233 17.4677 17.3112 17.4677 17.3504C17.4677 17.4286 17.4677 17.5069 17.4289 17.5461L16.6125 18.955C16.5347 19.1115 16.457 19.1507 16.3792 19.1507Z" fill="#20BEC6"/>
<path d="M4.79463 9.01404L3.39512 8.30958C3.27849 8.2313 3.20074 8.07475 3.27849 7.95734L3.47287 7.56597C3.55062 7.40942 3.70612 7.37029 3.82275 7.44856L5.22226 8.15303C5.33889 8.2313 5.41664 8.38785 5.33889 8.50526L5.14451 8.89663C5.06676 9.01404 4.91126 9.09232 4.79463 9.01404Z" fill="#F6BF48"/>
<path d="M4.95015 15.9806C4.91128 15.9414 4.8724 15.9023 4.8724 15.8632L4.67803 15.4718C4.60027 15.3544 4.67803 15.1587 4.79465 15.0804L6.23304 14.2977C6.31079 14.2585 6.38854 14.2585 6.42742 14.2585C6.50517 14.2977 6.54404 14.3368 6.58292 14.376L6.77729 14.7673C6.81617 14.8456 6.81617 14.9239 6.77729 14.963C6.73842 15.0413 6.69954 15.0804 6.66067 15.1196L5.22228 15.9023C5.14453 15.9414 5.06678 15.9414 5.0279 15.9414C4.98903 15.9806 4.95015 15.9806 4.95015 15.9806Z" fill="#20BEC6"/>
<path d="M6.7776 6.31352C6.73873 6.31352 6.69985 6.31352 6.6221 6.27438L6.27222 6.03956C6.1556 5.96128 6.11672 5.80473 6.19447 5.64819L7.01085 4.23925C7.08861 4.12184 7.24411 4.04357 7.36073 4.12184L7.71061 4.35666C7.78836 4.3958 7.82724 4.47407 7.82724 4.51321C7.82724 4.59149 7.82724 4.66976 7.78836 4.7089L6.97198 6.11783C6.9331 6.1961 6.89423 6.23524 6.81648 6.23524C6.81648 6.31352 6.7776 6.31352 6.7776 6.31352Z" fill="#D8271C"/>
<path d="M5.76643 12.7321C5.68868 12.8104 5.53317 12.8104 5.45542 12.693L4.21141 11.6363C4.09478 11.5188 4.09478 11.3623 4.17253 11.2449L4.44466 10.9318C4.48354 10.8927 4.56129 10.8535 4.63904 10.8535C4.71679 10.8535 4.79454 10.8535 4.83342 10.9318L6.07743 11.9885C6.1163 12.0276 6.15518 12.1059 6.19406 12.1842C6.19406 12.2625 6.19406 12.3407 6.15518 12.3799L5.88305 12.693C5.8053 12.7321 5.8053 12.7321 5.76643 12.7321Z" fill="#D8271C"/>
<path d="M7.24366 19.8159C7.12703 19.8159 7.01041 19.7376 6.97153 19.6202L6.5439 18.0155C6.50503 17.859 6.58278 17.7024 6.73828 17.6633L7.12703 17.5459C7.20478 17.5459 7.28254 17.5459 7.32141 17.585C7.39916 17.6242 7.43804 17.6633 7.43804 17.7416L7.86566 19.3462C7.86566 19.4245 7.86566 19.5028 7.82679 19.5419C7.78791 19.6202 7.74904 19.6593 7.67129 19.6593L7.28253 19.7767C7.32141 19.8158 7.28253 19.8159 7.24366 19.8159Z" fill="#D8271C"/>
<path d="M12.4922 20.6376C12.3755 20.6376 12.2589 20.5594 12.22 20.4419L11.8313 18.8373C11.7924 18.6808 11.8702 18.5242 12.0257 18.4851L12.4144 18.3677C12.4922 18.3677 12.5699 18.3677 12.6088 18.4068C12.6865 18.4459 12.7254 18.5242 12.7254 18.5634L13.153 20.168C13.153 20.2463 13.153 20.3245 13.1142 20.3637C13.0753 20.4419 13.0364 20.4811 12.9587 20.4811L12.5699 20.5985C12.531 20.6376 12.531 20.6376 12.4922 20.6376Z" fill="#F6BF48"/>
<path d="M19.1002 11.2843L10.12 6.58783C9.38138 6.19646 8.75937 6.6661 8.75937 7.64453L8.83712 16.6461C8.83712 17.6245 9.45912 18.055 10.1978 17.6636L19.1002 12.7715C19.8777 12.341 19.8389 11.6756 19.1002 11.2843Z" fill="#15394C"/>
<path d="M19.1002 11.2843L10.12 6.58783C9.38138 6.19646 8.75937 6.6661 8.75937 7.64453L8.75937 8.85778L17.7396 13.476L19.0613 12.7324C19.8777 12.341 19.8389 11.6757 19.1002 11.2843Z" fill="#20BEC6"/>
</svg>
